<?xml version="1.0" standalone="no"?>
<!DOCTYPE svg PUBLIC "-//W3C//DTD SVG 1.1//EN" "http://www.w3.org/Graphics/SVG/1.1/DTD/svg11.dtd" >
<svg xmlns="http://www.w3.org/2000/svg">
<metadata></metadata>
<defs>
<font id="mias_scribblings_regular" horiz-adv-x="1139" >
<font-face units-per-em="2048" ascent="1638" descent="-410" />
<missing-glyph horiz-adv-x="831" />
<glyph horiz-adv-x="0" />
<glyph unicode="&#xd;" horiz-adv-x="569" />
<glyph unicode=" "  horiz-adv-x="831" />
<glyph unicode="&#x09;" horiz-adv-x="831" />
<glyph unicode="&#xa0;" horiz-adv-x="831" />
<glyph unicode="!" horiz-adv-x="569" d="M22 325v6q0 17 27 21l180 -61l33 -7q32 32 74 149l6 7h7l13 -21v-162q7 -20 40 -20l54 27l13 -20q0 -18 -113 -102v-81l-14 -20q-13 0 -53 54h-14q-35 -9 -100 -74l-26 -7l-14 20v41q0 44 54 108v13q-38 54 -160 122zM89 1081v304q0 308 126 432q16 41 47 41l34 -27 l100 20l46 -34h7l7 7q20 0 20 -20q93 -110 93 -142q0 -154 -60 -297q-53 -129 -80 -392q-19 -111 -194 -385h-13q0 -34 -27 -40q-14 5 -33 202q-42 65 -73 331zM122 1068q4 -41 20 -41v358q0 97 27 243v14q-47 -33 -47 -264v-310zM175 1068q0 -264 34 -264q33 124 33 196 v453q0 69 40 196q-5 141 -27 141h-6l-40 -54v-6l-34 -331v-331zM189 109h13q40 6 40 20v20l-20 7zM255 196q10 -33 47 -33l20 20v34q-33 0 -33 13q-18 0 -34 -34zM262 825q20 4 20 54v6l-20 -20v-40zM275 1068l14 13v405l-14 -13v-405zM309 257h20v27h-20v-27zM309 1790 l20 -27v-499q76 113 147 175l26 47v95q-37 147 -120 230l-73 -14v-7zM316 818h6q71 59 107 412q15 0 20 108h-13q-107 -116 -107 -311v-108zM516 1655l13 -13h7v13l-14 14l-6 -7v-7z" />
<glyph unicode="&#x22;" horiz-adv-x="727" d="M16 1752q0 36 181 86q110 0 148 -103q0 -226 -125 -501q0 -95 -45 -95h-34q-102 62 -102 130v112zM84 1666l23 -397h11q57 22 57 69v138l34 241l-46 70h-34l-45 -35v-86zM118 1208q11 -28 45 -34l12 8v61h-12zM209 1778l22 -17h12l22 17l-34 26h-22v-26zM254 1579 q34 9 34 52v95h-23l-11 -43v-104zM390 1761q0 36 182 86q109 0 147 -104q0 -225 -125 -500q0 -95 -45 -95h-34q-102 62 -102 129v112zM458 1674l23 -397h11q57 22 57 69v138l34 242l-45 69h-34l-46 -34v-87zM492 1217q8 -26 46 -35l11 9v60h-11zM583 1787l23 -18h11l23 18 l-34 25h-23v-25zM628 1588q34 9 34 52v95h-22l-12 -43v-104z" />
<glyph unicode="#" d="M16 1209v16q3 24 44 24h82q84 0 154 24v120q12 345 39 345q23 0 33 120h11q0 -72 54 -120l17 -88v-377h27q235 31 248 80q12 385 43 385q15 0 33 24h11q11 0 11 -24l6 -8h11v8l-17 80v8h6q33 -28 33 -128v-353h66l33 -16l66 8q27 0 33 -72q49 -23 66 -48v-16 q-51 0 -160 -65h-104v-256h22q110 0 220 -64v-32l-17 -32v-16q0 -16 55 -41v-32q0 -29 -93 -56h-83l-110 -64v-8l-5 -200l-77 -321h-11q0 32 -33 32l-11 112v97l-11 64v224q0 14 -165 72h-93l-66 -449q0 -53 -44 -144h-16l-6 40v233h-11l-33 -169h-11l-5 40v24 q27 319 27 433h6q-6 32 -28 32l-159 -8l-17 8v16q0 19 77 81v8h-55l-60 -8l-17 8v16l105 16h159v288l-121 8h-11l-27 8v16l27 8l132 -8v73h-148zM148 687l148 16v33q-148 -6 -148 -41v-8zM291 343q27 37 27 128v152h-11v-8q0 -117 -16 -272zM318 1345l11 16v136l-11 -16 v-136zM329 1577l11 16v32l-11 -16v-32zM335 1650l11 16v24l-11 -16v-24zM340 126h11l11 72v161l-11 120l-11 -16v-337zM373 439l11 -80q14 0 44 224l-6 32l-49 16v-192zM373 792h66v248l-6 40h-49v-96zM384 1112h38l11 16v16l-5 41h-44v-73zM384 1273h44v393q0 42 -33 80 h-11v-473zM450 1169l5 -33q28 0 66 49h-66v-16h-5zM455 1096l6 -96v-208h27q101 56 220 80q17 156 17 280h-39q-193 0 -231 -56zM466 671l105 -24l5 8v16l-82 16h-28v-16zM505 1217h66l154 -24v72h-94q-126 -36 -126 -48zM532 768h110l66 24v48h-5q-165 -32 -171 -72z M571 736q0 -22 99 -41l38 25v32h-5l-77 -16h-55zM598 631q56 -40 105 -40h5v32q0 24 -71 24h-28zM730 303l11 -16h6l-6 40v72l-11 16v-112zM741 126h11v56l-11 16v-72zM752 551l16 -296l11 16v280h-27zM752 583h27v40h-27v-40zM752 744h16l11 16v16h-27v-32zM752 808h27v40 h-27v-40zM752 880h27v128l6 136l-27 8h-6v-272zM752 1185h33l5 80h-38v-80zM763 1297h27v16h-27v-16zM763 1345h49l28 168v112l-22 89h-22q-33 -290 -33 -369zM801 247h6q27 69 27 304h-33v-304zM801 583h39v24h-39v-24zM801 647l6 -8h33v24h-28zM801 695h39v33h-11l-28 -8 v-25zM801 752h6l27 8v16h-33v-24zM801 808h39v40h-39v-40zM801 880h39v256h-33l-6 -80v-176zM807 1185h33v80h-17q-16 -8 -16 -48v-32zM862 583q28 0 33 24h-33v-24zM862 639h82q29 0 33 24v16l-104 -16h-11v-24zM862 695h22q115 7 115 33h-137v-33zM862 808l110 -8h44v16 q0 32 -110 32h-44v-40zM862 1185q170 18 170 40v16q-22 48 -55 48h-5l-55 -24h-55v-80zM867 760h44l-11 16h-33v-16zM867 1297h66v16h-66v-16zM1005 639h71l33 32q0 18 -55 41l-49 -65v-8zM1010 760l39 -8l11 16v16h-17q-33 -5 -33 -24z" />
<glyph unicode="$" d="M23 758q8 116 31 116l38 -55h16q0 28 30 41h8q25 0 139 -287q96 -112 138 -136h16v20l-16 109v479l8 184q-254 106 -254 192q28 232 92 232q80 54 139 61v82l8 35h15l8 -35v-82h30v110l8 34h15l8 -34v-103h8q15 0 15 21h16l7 -28h23l116 -47h8v34l7 34h16l7 -34v-48 l16 -14h15v96l8 34h15l8 -34v-123q63 -57 200 -137v-7h-23q-23 21 -177 55v-82q0 -280 54 -280q292 -194 292 -280l8 -89q0 -308 -92 -362q-133 -198 -247 -198v-171q-3 -55 -61 -55l-23 14l7 20q-23 7 -23 41v151h-7l-154 27v-123l-16 -96h-31v7l8 41q-8 55 -46 55l-8 34 v109q-189 54 -331 260q-92 142 -92 212zM54 737q0 -72 115 -205h8q-79 138 -108 267h-15v-62zM123 751q0 -110 162 -246l23 -7q-56 70 -154 321h-16l-15 -61v-7zM192 498q82 -130 154 -130q0 14 -154 144v-14zM246 1475q0 -120 170 -164h15v123l-8 151h-15v6 q-162 -31 -162 -116zM269 1591q93 55 131 55v21q-131 -21 -131 -76zM354 450l31 -27v7l-23 20h-8zM477 785q0 -109 23 -109v198q31 151 31 273v41l-15 14h-16v-41l-23 -150v-226zM492 204l16 -13v68h-16v-55zM500 1284l16 -14h15v315h-31v-301zM500 1612h31v20h-31v-20z M500 1667h23v13h-7zM531 341h15q114 7 124 34h-139v-34zM531 402h162l-16 212l8 513l-100 48h-23v-14q0 -119 -31 -280v-479zM539 307q0 -24 84 -34h54l23 20v48l-161 -27v-7zM562 1263q10 -24 131 -34l7 69v198q-64 75 -138 75v-308zM562 1612q93 -40 123 -68h15v20 q-85 55 -131 55h-7v-7zM585 1646l100 -34h8v7q-44 34 -100 34h-8v-7zM708 580l8 -130l15 14v68l15 513v48l-15 13h-15zM723 1216h23v314h-15v-178zM746 33l24 7v185h-16v-123zM754 266h16v27h-16v-27zM754 409h16v41l-16 -13v-28zM800 259h8q96 0 239 212v13h-16 q-131 -109 -208 -109q-23 -25 -23 -48v-68zM800 423h23q224 121 224 225v89q-79 301 -162 301q-46 34 -77 34h-8v-649zM1047 874q41 -137 54 -137v21l-47 123v7h-7v-14zM1077 635h8q16 0 16 20l-8 21h-16v-41zM1077 901l24 -20v27l-24 21v-28z" />
<glyph unicode="%" horiz-adv-x="1821" d="M13 1711v8q0 22 40 26l271 -78l50 -8q48 40 111 190l10 9h10l20 -26v-208q10 -26 60 -26l81 35l20 -26q0 -23 -171 -130v-104l-20 -26q-20 0 -80 69h-21q-53 -12 -150 -95l-40 -9l-20 26v52q0 58 80 139v17q-57 69 -241 156zM33 230q0 86 201 138q18 40 251 251l221 278 q64 46 371 389l572 468h10v-17l-180 -174h10q231 114 271 148q30 -9 30 -52v-78q-53 -196 -341 -381q-66 0 -322 -269q-1 -42 -582 -528q-179 -98 -291 -303q-64 -87 -80 -87h-20q-121 85 -121 217zM73 212h10l111 87v17h-30q-91 -38 -91 -86v-18zM83 169q0 -45 71 -121 q33 0 160 208h-20l-140 -96h-21l-30 18h-20v-9zM264 1434h20q60 8 60 26v26l-30 8zM284 299h10l131 95v9h-10q-121 -72 -131 -104zM334 429h10l30 26v8zM364 1546q14 -43 71 -43l30 26v43q-50 0 -50 17q-27 0 -51 -43zM405 489h10l50 44v8h-10zM445 1624h30v35h-30v-35z M545 619l20 18v8l-20 -17v-9zM595 680h10q226 179 402 459v9q-17 0 -331 -338zM696 611h10q331 217 331 303q-35 -4 -341 -286v-17zM796 767q309 260 402 294l461 528l-10 9h-10q-324 -257 -371 -381l-472 -424v-26zM957 992h10q181 108 411 424l61 61h-31 q-213 -138 -451 -468v-17zM1147 420v9q0 21 41 26l271 -78l50 -9q47 41 110 191l10 8h10l20 -26v-208q10 -25 61 -25l80 34l20 -26q0 -23 -171 -130v-104l-20 -26q-19 0 -80 70h-20q-54 -12 -151 -96l-40 -8l-20 26v52q0 57 80 138v18q-56 69 -241 155zM1398 143h20 q61 9 61 26v26l-30 9zM1439 1234h10q207 141 301 312v52h-30q-216 -246 -281 -355v-9zM1499 256q14 -44 70 -44l30 26v44q-50 0 -50 17q-27 0 -50 -43zM1579 333h30v35h-30v-35z" />
<glyph unicode="&#x26;" horiz-adv-x="1366" d="M315 688v39q0 87 224 224l44 35v5h-131q-110 19 -110 79v39l-11 48v13q0 75 115 167q145 49 235 49h224l65 197h6q27 -11 27 -35v-224l-5 -22h-6q-12 0 -22 44h-65q-49 -18 -202 -31q0 -12 -170 -30q-81 -91 -81 -115v-4q186 -153 262 -153l196 -5l17 -4v-9 q0 -9 -115 -26l-11 -9l5 -5v-13h-10v-4q-27 13 -71 13h-44q-109 0 -197 -123q-32 -13 -32 -39v-132q49 -149 180 -149h87l158 35q51 57 82 57h6l22 -44v-88l-11 -35v-105l-6 -22h-22q-8 0 -21 35h-6l-22 -22q-27 6 -27 31v44l33 123h-28l-120 -53l-27 -4h-137q-33 0 -212 65 q-22 15 -39 106q-10 0 -27 57zM337 683l11 -30h11q21 83 103 202l6 17v4h-6q-102 -64 -125 -131v-62zM353 1170h6q8 0 27 31l-5 31q-14 0 -28 -53v-9zM364 1056q22 -32 60 -48h98v5l-147 79h-11v-36zM364 1122l38 -26h17v26l11 35q-8 18 -28 27q-38 -25 -38 -62zM375 574 q0 -34 49 -49v9l-43 44h-6v-4zM375 618q11 -33 109 -106h38l11 9q-103 70 -103 154v79h-17q-38 -107 -38 -136zM386 1249h5q62 32 126 49q56 52 71 52v5h-16q-117 -19 -159 -62l-27 -39v-5zM419 1201l11 -9q18 0 49 66h-6q-9 0 -54 -52v-5zM441 1109q0 -50 191 -96 q-163 127 -191 127v-31zM506 890l44 35v4h-6l-38 -35v-4zM544 495q9 -18 39 -18h10l11 9l-43 9h-17zM555 934h6l11 8h-6zM599 1311h5q61 0 126 31q-123 -7 -131 -27v-4zM604 969h44l11 8l-5 5h-17q-33 -3 -33 -13zM894 354h16l6 22l-11 48l-11 -8v-62zM927 424l5 -21h5 q17 28 17 57v22q-27 -7 -27 -44v-14zM943 350h11v17h-11v-17zM943 1386h22l-6 21l-16 -13v-8z" />
<glyph unicode="'" horiz-adv-x="391" d="M8 1761q0 38 173 90q105 0 141 -108q0 -234 -119 -520q0 -99 -43 -99h-33q-97 65 -97 135v116zM73 1671l22 -412h10q55 23 55 71v144l32 251l-43 72h-33l-43 -36v-90zM105 1196q11 -30 44 -36l11 9v63h-11zM192 1788l22 -18h11l21 18l-32 27h-22v-27zM235 1582 q33 9 33 54v98h-22l-11 -45v-107z" />
<glyph unicode="(" horiz-adv-x="682" d="M12 1171v34q0 102 137 384q80 123 186 155q60 3 226 114h40v-7q0 -13 -24 -13v-27h8l32 7l25 -7v-14q-97 -76 -113 -181q-145 -147 -251 -411q-34 0 -40 -215q40 -392 105 -471l282 -424q57 -14 57 -27l-32 -54l-49 -7l-193 188q0 20 -210 216q-170 222 -170 532v6l8 95 q-24 40 -24 127zM44 1232h8q17 0 17 67q22 0 32 68h-8q-26 0 -49 -128v-7zM69 842l40 47q-16 60 -40 60v-107zM77 1044l32 -88h8q21 0 56 121l17 14v60q159 454 347 606l-8 7q-127 -33 -218 -189q-207 -305 -234 -478v-53zM93 734q61 -178 218 -364l48 -67h16q0 32 -105 236 q0 23 -129 276q0 40 -16 40h-8l-24 -87v-34zM109 1400q18 4 105 209h-8q-73 -70 -97 -202v-7zM141 902q64 -168 81 -175h8q-40 120 -40 168v95q-25 0 -49 -88zM165 1427h8q15 0 113 168l57 75v13q-106 -59 -161 -222zM230 1629l65 54v7h-17q-48 -24 -48 -61zM375 404l8 -20 h8v20h-16zM391 1501q100 91 121 162h-24q-97 -126 -97 -162zM408 337q56 -134 129 -189h8v7l-113 189h-24v-7z" />
<glyph unicode=")" horiz-adv-x="682" d="M12 68q81 41 81 53l290 451q35 83 73 424q0 192 -89 303q0 70 -210 337q0 73 -105 161v14l25 7l32 -7h8v27q-24 0 -24 13v7h40q126 -91 307 -148q110 -90 202 -337q40 -99 40 -168v-34q0 -111 -24 -121l8 -101v-6q0 -444 -363 -714q-16 -43 -218 -222h-8q-47 0 -65 61z M149 148h8q84 69 129 196h-24l-113 -189v-7zM157 1757q188 -152 347 -606v-60l65 -135h16l32 88v53q-43 179 -161 377q-117 174 -194 249l-97 41zM182 1663q21 -71 121 -162v7q-21 61 -97 155h-24zM303 384h8l8 20h-16v-20zM319 303h16l161 222q79 122 105 209v34l-24 87h-8 l-57 -135q-62 -99 -161 -336q-22 0 -32 -81zM351 1670l161 -243h17l-97 195l-81 61v-13zM399 1683l65 -54v14q-13 30 -48 47h-17v-7zM464 727h8q17 7 81 175q-24 88 -49 88v-95q0 -48 -40 -168zM480 1609q87 -205 105 -209v7q0 87 -97 202h-8zM585 889l40 -47v107 q-24 0 -40 -60zM593 1367l32 -101q0 -34 17 -34h8v7q-23 128 -49 128h-8z" />
<glyph unicode="*" horiz-adv-x="797" d="M6 1638v13q0 31 47 38l318 -114l58 -13q56 59 130 278l12 13h11l24 -38v-304q12 -38 70 -38l94 51l24 -38q0 -33 -200 -190v-151l-23 -38q-23 0 -95 101h-23q-63 -17 -176 -139l-48 -13l-23 38v76q0 83 94 202v26q-66 101 -282 227zM300 1233h24q70 13 70 38v38l-35 13z M418 1398q16 -64 82 -64l35 38v64q-59 0 -59 25q-31 0 -58 -63zM512 1511h35v51h-35v-51z" />
<glyph unicode="+" horiz-adv-x="1196" d="M5 878v16l41 9h116l-8 8v25l423 33v448l8 41h17q25 -365 41 -365v150q0 36 42 58l24 107h17l8 -41v-390h9q193 0 372 42l42 -8v-25l-33 -9q0 -16 66 -24v-9q0 -41 -17 -41l9 -9v-24l-133 -42h-74q-99 0 -216 -33h-33l-50 -373h-16l-17 174l-16 -16v-34l-25 -157h-17 l-8 41v382zM345 886l124 8h100v17h-208l-16 -17v-8zM519 861l16 -16h34v16h-50zM676 828h25v33h-25v-33zM676 977h25v116q-25 0 -25 -91v-25zM734 828h58l17 17v8h-75v-25zM743 886h41l-17 17h-24v-17zM941 911l108 -17h75l16 17v17l-116 25q-83 -27 -83 -42z" />
<glyph unicode="," horiz-adv-x="569" d="M13 331q0 27 88 73l43 -15l37 8q105 -17 139 -59q0 -14 44 -14v-15h7l-7 -7v-161q0 -84 -168 -292h-8l-29 30l-36 -22h-15v22q45 46 124 248l-36 7l-37 -15q-61 0 -131 154zM42 324q0 -62 59 -117v7q-22 24 -22 95l-22 22h-15v-7zM108 302h7l15 14l-15 15l-7 -7v-22z M152 258l22 -22v7l-8 37h-14v-22zM210 185h7l30 29v73l-15 15h-7v-44zM254 346l22 -73v-44h7q15 0 29 65q-29 59 -58 59v-7zM261 90q53 60 59 110v14h-8q-51 -94 -51 -124z" />
<glyph unicode="-" horiz-adv-x="682" d="M11 861v7q0 14 21 14v7q0 24 -21 49q26 43 64 43l120 -7q112 0 226 28h7v-21q-57 -9 -57 -28h78l169 35v-14l-7 -7v-7l71 -36v-14q0 -29 -127 -56v-14l113 -15v-14l-35 -7h-50l-134 14h-191q-26 0 -56 36h-156zM53 910l22 -21l240 -7h14v14h-28q-25 0 -50 28h-198v-14z M428 854h56q64 14 64 35h-57l-63 -21v-14z" />
<glyph unicode="." horiz-adv-x="569" d="M13 240q0 29 94 79l47 -16l39 8q113 -18 149 -63q0 -16 47 -16v-15h8l-125 -204l-71 16l-31 -16q-65 0 -141 165zM44 232q0 -66 63 -125v8q-23 25 -23 102l-24 23h-16v-8zM115 209h8l15 16l-15 15l-8 -8v-23zM162 162l23 -24v8l-7 39h-16v-23zM225 84h7l32 31v78l-16 16 h-8v-47zM272 256l23 -78v-47h8q16 0 31 70q-31 63 -62 63v-8z" />
<glyph unicode="/" horiz-adv-x="569" d="M14 38q14 40 41 231h-5q4 109 167 599q0 34 108 383q68 288 77 368h5q9 0 9 -24h4q60 158 126 263h5v-16h4l-9 -48l5 8h13l5 -40v-279q0 -185 -99 -423q-153 -422 -244 -743q-150 -270 -198 -303h-9zM46 78h4q36 28 36 56l-4 8v8q45 164 45 191l-5 8h-4 q-64 -112 -68 -223l-4 -8v-40zM82 341h4q44 0 154 431q84 181 112 463v16q-10 0 -72 -239q-12 0 -58 -208q-140 -403 -140 -463zM109 166h4q102 132 149 327q86 297 167 495l104 319q18 57 18 144v231h-5q-159 -544 -180 -694q-10 -11 -77 -240q-30 -15 -144 -479 q-36 -66 -36 -103zM370 1203h5l104 416l4 8v7q-83 -151 -113 -383v-48zM501 1682q36 59 36 88l-36 -72v-16z" />
<glyph unicode="0" d="M15 755v48q50 180 115 532q65 346 188 442q87 51 209 81l144 -48h50q90 0 173 -81l58 73h14v-8l-58 -89l15 -16h7q25 0 72 40h7l8 -40v-16l-29 -89q26 -187 108 -459v-201l43 -217v-210q0 -103 -137 -233q0 -48 -216 -242l-29 -8h-173q-147 0 -259 169h-7l-181 -177h-14 v16h-7q14 92 86 266v8q0 52 -57 121q-130 225 -130 338zM44 731q6 -75 57 -161l-28 185v113h-15l-14 -57v-80zM101 747q19 -169 44 -169v129l-29 161v16h-15v-137zM130 996l7 -80h8q21 5 21 64l-21 113h-15v-97zM166 1133l15 -16l72 338h-7q-55 -84 -80 -225v-97zM174 103 l7 -8q47 15 86 104v32l-29 17h-7q-21 0 -57 -145zM174 473q0 -65 64 -80v32q-49 129 -64 129v-81zM188 682l65 -225h14v8q-60 250 -79 250v-33zM195 956q0 -147 79 -419h22q0 35 259 620l144 282q65 85 65 113q-58 145 -187 145h-29q-31 0 -86 -64q-15 0 -15 24 q-86 0 -151 -234q-32 -51 -86 -402q-13 0 -15 -57v-8zM217 1504q36 0 65 177q-65 -73 -65 -177zM253 296q10 -33 36 -48l14 16v8l-29 32h-7l-7 -8h-7zM303 1624h15l86 121v8h-22q-79 -68 -79 -129zM318 401q13 -65 28 -65q51 85 94 266l72 185l159 403v8 q-105 -133 -231 -459q-22 -12 -122 -338zM390 143q76 -97 187 -97h7q-136 105 -187 105zM390 272q4 -24 50 -49l353 -8h7q54 0 166 137q43 49 43 218v306q-79 370 -115 370q0 -22 -195 -346q-48 -134 -129 -290l-152 -282q-28 -13 -28 -56zM426 449h14q172 416 245 499 q104 192 166 403q-7 64 -29 64q-171 -294 -353 -829q-17 0 -29 -113l-14 -16v-8zM426 1721l7 -8v-8q57 20 72 48l-22 8q-54 -21 -57 -40zM476 183q0 -21 137 -56h43q144 30 144 56h-36l-288 8v-8zM491 1810l57 -16h43v8q0 18 -93 24l-7 -8v-8zM577 1125h7q114 164 195 371 q-28 -1 -108 -169q-94 -154 -94 -202zM606 46h166l14 16v8h-123q-53 0 -57 -24zM750 1641q0 -29 36 -65l14 16v16q-21 41 -50 41v-8zM764 103h22q108 26 108 88l-130 -72v-16zM793 1689l36 -48l15 16q0 56 -51 56v-24zM836 1198l29 48v24q-21 0 -29 -72zM858 1624l14 -16 l8 8v17h-22v-9zM865 1488l15 -41l21 24v17l-14 16h-7zM901 1552l15 -16h7v24h-22v-8zM923 1294q86 -206 115 -394h7v64q-84 403 -108 403l-14 -48v-25zM959 1439l14 -64h15v24l-15 40h-14zM966 1641h7l15 16v16h-8l-14 -16v-16zM988 1319q7 -49 21 -49v8q-7 57 -21 57v-16z M1081 417h8l21 64v266l-14 16v-40l-15 -153v-153z" />
<glyph unicode="1" d="M13 38v33q152 82 270 82l68 16q0 41 37 41h83v571l-15 65l30 400v229h-8l-142 -123h-8l-22 16q-33 -40 -60 -40v40q56 132 210 351h7q6 -41 23 -41q14 0 45 172l7 8h15l8 -41v-49h7l61 90q24 0 52 -212l-7 -1444h7l45 -8h30l173 32h90q26 0 52 -32l68 -9v-16l-180 -24 v-17l52 -8h68l37 -8v-16l-37 -9h-218l-142 -16h-143q-175 -57 -405 -57h-45zM126 47h75v24h-23l-52 -8v-16zM201 104h7l15 16h-22v-16zM276 112h7q158 19 158 41h-15q-150 -26 -150 -41zM403 87h68l22 25h-30q-55 0 -60 -25zM433 1483h8l45 57v32h-8zM463 145h38l15 16h-38z M523 210h8l113 -8v277q-12 -3 -60 -163zM523 373q52 63 83 277q-15 245 -45 319v261q-30 0 -38 -302v-555zM599 993l30 -228l15 16v302l-30 359l-15 -16v-433zM614 1752q18 -229 37 -229v123q-10 130 -30 130zM696 104h68l15 16h-68z" />
<glyph unicode="2" d="M5 192q133 173 353 287q156 67 369 410q125 259 125 310v186q0 133 -243 318h-15q-84 -4 -309 -147q-81 -39 -214 -132h-14v8l36 108l-7 24l44 54v15h-15v16q273 209 428 209h88q54 0 280 -139q73 -89 73 -217v-403q-37 -233 -95 -233q-49 -66 -89 -240 q-120 -171 -169 -171l-258 -178l-29 -23l-8 -8v-15h339l412 7q45 -10 45 -23q0 -15 -30 -15v-24l37 -7v-8q-1 -15 -155 -85q0 -62 -279 -62l-8 -8q-164 0 -397 70l-162 -16q-30 8 -30 39h-29q-55 0 -59 31l7 46q-22 0 -22 16zM49 130h30q110 0 110 39v7h-7l-59 -15h-15v39 h-7q-52 0 -52 -70zM123 1494q131 72 154 108v8q-154 -38 -154 -116zM130 269q116 0 368 248q30 0 81 78v23q-172 -164 -331 -232q-105 -75 -118 -101v-16zM219 138l125 -8h29l81 23v8l-73 15l-148 -7l-14 -24v-7zM226 1633h15q31 0 125 55v7h-8q-132 -31 -132 -62zM300 269 h7q19 0 221 155q258 135 258 272q22 17 22 54v8h-8q-63 -78 -169 -171q-53 -124 -206 -194q-23 0 -125 -124zM307 1719h15q66 23 162 23h132q157 -54 192 -54v7q-54 109 -155 109h-162q-93 0 -184 -85zM462 76q0 -22 73 -31q-10 31 -66 31h-7zM469 122q0 -25 206 -39h59 q0 14 -177 55zM579 626h15q54 41 66 93l-7 8h-7zM646 153q0 -19 176 -46q81 33 81 46h-257zM705 742h14q94 60 140 178l44 210v255l-7 39h-15l8 -116v-54q0 -125 -184 -512zM741 1626q96 -92 96 -124h15v15q0 94 -111 109zM837 1719q0 -67 59 -86q24 -29 52 -131h7v15 q0 149 -103 209h-15v-7zM867 1587q32 -116 51 -116v7q-19 132 -44 132zM874 83l37 -7h29l111 69l-8 8h-7q-162 -46 -162 -62v-8zM903 928h8q20 0 44 163v54q-24 0 -52 -217zM962 207q0 -23 89 -23l7 8v15h-96z" />
<glyph unicode="3" d="M11 301l7 24h7q58 -72 86 -72l57 24q205 -55 293 -55l278 -8q38 0 157 190q79 148 79 294v159q0 53 -250 286l-43 16q-205 -66 -314 -183l-36 -8h-21v24q3 28 121 127v8h-14q-57 -23 -114 -87h-7v16h-8q230 329 372 484l114 127v8l-143 -47h-221l-157 -24h-200l-36 8v16 q86 0 107 39h7v16q-68 0 -85 64l-29 8v8q92 55 207 55h129l342 40h265q53 -10 57 -32v-16l-272 -349q-158 -154 -178 -231l7 -8l107 8h86q35 0 214 -111q157 -374 157 -421v-254q-88 -358 -171 -358q-123 -71 -207 -71h-172q-282 0 -478 191q-74 44 -100 95zM90 1715 l185 -48h22q130 0 178 48l-14 16h-43l-57 16l-172 -8h-99v-24zM161 245q79 -65 228 -103h207q86 0 86 32v8q-357 0 -471 63h-50zM218 166l14 -16h15l-29 24v-8zM275 142q7 -24 43 -24h14q-7 24 -43 24h-14zM397 86q0 -35 164 -39h228q257 62 257 190l29 80h-15l-142 -95 q-71 -136 -165 -136h-356zM439 1183h7q49 0 100 79h-14q-77 -45 -93 -79zM525 1659h121q110 31 143 64h-21q-184 -40 -243 -40v-24zM561 1342h7q14 0 78 111v8q-57 -57 -85 -119zM625 1723h14l15 16h-29v-16zM689 118h79q49 0 114 88v8h-7q-88 -6 -186 -72v-24zM689 1508h15 q15 0 85 96v16q-98 -86 -100 -112zM746 1810l143 -16h7l22 24v8h-172v-16zM768 1151l178 -191v8q-107 191 -178 191v-8zM818 245l7 -8q111 0 150 143l64 255v95l-21 87h-15v-103q0 -243 -185 -469zM925 1119q107 -238 135 -333l36 -48v8q-124 373 -157 373h-14zM975 301h7 q121 43 121 167l7 119q-32 87 -42 87q0 -99 -93 -373z" />
<glyph unicode="4" d="M9 473v28q64 22 64 122h-7q225 636 377 819q99 185 99 208h7l36 -22q18 17 42 137q37 73 71 93h15v-14l-36 -115q12 0 64 72h28v-8q-138 -176 -199 -330q-61 -117 -149 -459q-17 -9 -64 -165q-97 -178 -192 -259l-35 -50v-7h14q33 43 100 43l248 -22h107v180l7 36h14 l7 -58l7 7h22l7 -86q21 0 21 79q36 124 57 130q43 -35 43 -65v-237q192 0 192 -36h71q71 0 71 14l21 -7q0 -48 -43 -79l7 -21h-7l-28 -7l-192 14h-64l-35 -22v-43l14 -57v-108q0 -89 -71 -172h-15q-14 0 -35 93q-14 0 -14 94l-22 21l-21 -21h-7l-7 36v172l-498 64 q-29 -57 -42 -57h-7v7l7 50h-7zM87 566l7 -7h7q31 0 50 100q-33 0 -64 -93zM158 724q38 0 93 222v8h-7q-53 -90 -86 -230zM172 487h249q0 21 -149 21q-100 0 -100 -21zM187 652l7 -7q32 0 149 237q100 245 100 308v8h-8l-213 -453zM293 968q12 0 29 50v7h-7zM336 1061 q14 0 43 79v7h-8zM393 1183h7l57 129v8q-25 0 -64 -130v-7zM684 193q12 -87 29 -87h7l-7 108v115q-22 0 -29 -122v-14zM705 638q22 7 22 43v28q-22 0 -22 -71zM727 430h28v28h-14l-14 -14v-14z" />
<glyph unicode="5" d="M17 534v17h56l57 -52h14q16 88 35 88h7q110 -152 261 -221h353q191 0 191 80v176q-83 314 -247 415q-111 53 -184 53l-310 44l-35 -9l-120 53v18l28 9l-7 132v141l-35 265q0 50 56 97l28 -26h247l184 44h148q92 -26 261 -26l21 -9v-9q0 -26 -106 -35h-183l-14 -18l7 -9 h162q52 0 56 -26v-9q0 -24 -204 -89l-226 18q-138 -44 -282 -44v-309l7 -62l190 -9l353 9q100 0 212 -220q0 -20 92 -168q49 -125 49 -168v-53q0 -147 -85 -238v-141q0 -136 -169 -177l-353 -53h-63q-32 0 -205 185q-83 59 -127 142l14 26q0 100 -134 168zM144 1655h14v18 l-14 17v-35zM165 1258l14 -44l36 8l-7 133v238h-15v-26l-28 -177l7 -70zM172 472q67 -79 148 -79h7v8q-31 0 -134 133h-7l-14 -18v-44zM172 1761h64l14 18h-78v-18zM186 1637h22l7 62h-29v-62zM222 357q48 -97 91 -97h106v9q-15 42 -197 106v-18zM236 1637h28q148 0 148 27 q-73 26 -148 26h-21l-7 -44v-9zM313 207q112 -35 191 -35h42v26q-46 27 -106 27h-127v-18zM363 1726q0 -36 183 -36q71 11 71 36h-254zM419 84q12 -36 50 -36h28v9q0 25 -71 35h-7v-8zM419 145q101 -70 184 -70h35q221 0 254 185q-205 -123 -310 -123h-113zM419 322 q45 -53 78 -53v9q-37 53 -71 53h-7v-9zM511 304l141 -79h78q176 85 176 115l-85 -9h-310v-27zM574 207l36 -17l7 8v9l-35 18l-8 -9v-9zM638 1681l14 -17h127l71 53h-134l-78 -18v-18zM744 1099q49 -62 85 -62l7 9v9q-38 44 -92 44zM807 1187q48 -96 141 -159v18 q-76 129 -134 150zM857 966q103 -135 134 -211v17q-57 212 -134 212v-18zM892 163h14q0 21 35 44l15 36v8l-15 18zM906 110h21q52 0 99 106v132h-21q-15 -126 -99 -229v-9zM1047 843l14 -397h14q36 96 36 167v80l-43 150h-21z" />
<glyph unicode="6" d="M6 972v55q0 169 130 538q91 143 220 230q74 63 110 63h7q56 0 89 -24l62 8q68 0 227 -340q13 -36 13 -103v-8l-7 -40h-13q-6 56 -35 56l-20 -8q0 79 -220 222q0 23 -27 39h-35q-114 0 -261 -182q-42 0 -75 -190q-48 -141 -48 -340v-135q0 -54 96 -253h7q76 201 206 356 q226 151 288 151q234 0 405 -428l14 -111v-8q-26 -498 -254 -498h-62l-55 -16h-82q-124 0 -398 261q-31 41 -83 182q-130 132 -185 420zM54 924q4 -47 21 -47l-7 95v190l-14 -16v-222zM88 710q28 -89 48 -102h7q-37 118 -55 118v-16zM95 1114q12 13 90 348h-14l-76 -182 v-166zM178 1549h7q12 0 41 72h-7q-28 0 -41 -72zM239 1557q11 0 21 32h-7l-14 -16v-16zM274 600h20q58 95 90 190h-14l-96 -167v-23zM274 1621l27 31v16l-27 -32v-15zM281 433q0 -23 178 -142q145 -127 213 -127h103q185 90 185 222v229q-64 235 -151 285h-48 q-251 -105 -398 -261q-69 -124 -69 -150zM294 1589h14q110 103 240 103l-48 39h-6q-134 0 -200 -142zM322 1692h7l13 16h-6zM391 726h6l186 214v16h-35q-115 -96 -157 -230zM397 212l21 -24h7v8l-14 16h-14zM466 156q41 -60 192 -118h42q-13 17 -117 55q-81 71 -117 71v-8z M514 813h14l220 111v24l-35 8h-68q-78 -52 -131 -143zM562 156q0 -39 220 -103l14 16l-227 87h-7zM569 1676q13 -37 179 -150v15q0 109 -165 151h-14v-16zM631 995h20l14 16h-14l-20 -8v-8zM706 987l145 -47h13v8q0 17 -110 71l-48 -16v-16zM748 133q0 -20 75 -40l48 79v16 h-7q-57 -55 -116 -55zM857 77h69q133 195 179 341v118q-24 214 -69 214h-7q28 -94 28 -158v-56q0 -146 -179 -403l-21 -40v-16zM871 892q62 -98 117 -277v-221q23 0 41 111v110q0 173 -130 277h-28zM967 77h7q52 22 103 182v16h-7q0 -26 -103 -182v-16z" />
<glyph unicode="7" d="M16 1704v40l107 25l270 -17h607q23 106 41 106h16q0 -130 74 -130v-16h8q-66 -149 -66 -423q-65 -191 -90 -325h66l41 -8v-8q-49 -48 -123 -48v-41h115l41 -8v-16q-173 -12 -173 -41q0 -174 -188 -666l-25 -122l-24 8h-17l-24 -8v8l-8 33v48l-41 -8h-17l-16 114 q49 449 90 593v24l-213 -8l-25 8v17l230 16q0 14 -213 49v16l41 8h180q0 19 -172 32v17l41 8l172 -17q107 341 107 553h-107l-394 8l-147 -24l-8 24h-49l-41 8v16l41 8h123q327 17 327 65h-491l-41 9v16l41 8h32v8q-36 41 -98 41zM123 1712q0 -25 98 -49l131 8q0 16 -229 41 zM647 152h17v41h-17v-41zM664 477h8l82 171v170h-25q-65 -132 -65 -325v-16zM680 1590h33q155 0 155 41v16h-8q-140 0 -180 -57zM688 331l8 -122h9q41 31 41 154v114q-16 -4 -50 -130l-8 -8v-8zM778 1549h66v17h-49zM787 396h8q106 216 106 422h-24q-60 0 -90 -422zM795 973 h16l66 357v16q-34 0 -74 -292zM852 1444h16l17 65v8h-25v-33zM877 973h16q0 32 33 97v49h-8zM877 1135h8l156 439v8q-99 0 -99 -122q-33 -101 -65 -317v-8zM926 1135h8l16 65q-19 0 -24 -57v-8zM942 1622q20 0 25 82h-17v-17l9 -8l-17 -48v-9zM950 1224l25 25v16h-8l-17 -16 v-25zM959 1086l24 25v40h-8l-16 -57v-8zM991 1622h74v41l-8 41h-33q-33 -11 -33 -73v-9z" />
<glyph unicode="8" d="M7 460q14 361 90 400q38 116 164 220q90 49 148 131q-175 100 -279 255q-107 101 -107 220v14q0 105 304 158h107q42 0 73 -21h91q82 0 213 -234v-172q0 -79 -205 -213l147 -90q320 -216 320 -282q66 -78 66 -152v-110q0 -148 -205 -378q-186 -200 -320 -200h-66 q-139 21 -320 165q0 24 -106 76q-115 64 -115 213zM40 440q0 -154 197 -221q0 -34 41 -34q-50 55 -107 186q-69 83 -107 158l-8 7h-8l-8 -7v-89zM56 1665q0 -36 41 -131h25v83q7 99 90 172v14h-25q-125 -52 -131 -76v-62zM64 646q14 -110 41 -110v7q-24 60 -24 117zM114 633 q102 -338 172 -338l41 -27v7q-86 105 -156 296q-33 59 -33 117v62q41 196 197 330h-8q-138 -93 -197 -248l-16 -82v-117zM155 1548q0 -90 114 -179h17q0 22 -115 200v7h-16v-28zM171 667l25 -96h16v6q0 289 99 414v13q-77 -38 -140 -241v-96zM171 1651l16 -55h17l-8 35v55 h-17zM228 1658q29 -204 148 -316l74 -69h16q164 118 164 172v151q0 132 -147 193h-66q-98 0 -189 -96v-35zM245 467q97 -227 221 -227q0 -16 115 -34h8q-165 102 -328 268h-16v-7zM245 577q0 -98 295 -309q103 -55 164 -55h58q173 0 229 172q25 122 41 130v83 q-75 231 -254 344l-164 124l-25 -14q-79 97 -114 97q-230 -209 -230 -530v-42zM261 268q0 -57 140 -117q160 -55 246 -55h74l41 27v14l-82 -14q-289 55 -369 117l-42 28h-8zM278 178q38 -71 246 -144h131l57 13v21h-57q-250 31 -336 96q0 12 -41 14zM516 1259l41 34v7h-9 l-32 -27v-14zM606 1789h24v7l-16 14h-8v-21zM614 1266h8q156 94 156 151v186l-16 48h-17v-137q-20 -127 -74 -179l-57 -62v-7zM630 157l41 -6h66v20h-107v-14zM630 1101q0 -13 312 -269q61 -89 74 -89v7q-49 167 -156 234q-165 117 -230 117zM663 1500q25 0 25 28 q-5 61 -25 61v-89zM1082 509l16 13v131l-16 14v-158z" />
<glyph unicode="9" d="M14 1269v78q0 162 78 325q97 135 229 155q72 31 105 31q186 -40 301 -155q92 -94 111 -240q12 0 52 -155q242 -480 242 -566l7 -131v-186q-74 -372 -183 -372h-229l-118 -39h-59q-123 19 -359 287q-79 137 -79 232l7 39h13q0 -155 170 -248q0 -48 242 -147h46 q277 0 379 294v333q-16 121 -124 357q-12 0 -203 -240q-50 -31 -79 -31h-58q-191 25 -321 92q-150 58 -150 179zM53 1246l7 -39h19v23q-8 78 -26 78v-62zM53 1424l13 16v23h-13v-39zM60 1153q0 -104 157 -155h6v8l-144 155h-19v-8zM92 1471h20l52 178l-6 8q-31 0 -66 -163 v-23zM112 1254q0 -121 281 -179h184q70 0 150 217q13 3 20 47q-127 133 -177 248q-68 78 -203 124h-33q-114 0 -215 -295l-7 -93v-69zM210 1664l13 16v8l-13 -16v-8zM256 301q27 -47 65 -47v8q-43 54 -65 54v-15zM282 1013l59 -31h105l13 16v15h-39l-131 24h-7v-24z M328 1773l13 -16h79v16h-92zM374 1804h26q21 0 137 -78q110 -32 210 -147h13v39q-78 125 -183 155l-20 -8q0 38 -124 62h-27l-32 -8v-15zM452 84l66 -39h124v15q0 19 -144 47h-46v-23zM452 944h13q33 0 59 38l-6 8q-64 -23 -66 -46zM478 1688h27v15h-27v-15zM485 1044 l13 -15h20l13 15h-46zM511 921h85q66 43 98 108h-13q-127 -43 -170 -101v-7zM590 1649l163 -256h7v85q-9 83 -151 186h-6zM694 122q7 -23 39 -23h7l13 16v7h-59zM701 1083h6q46 0 46 54l-6 8h-7l-39 -54v-8zM714 153h78q51 0 98 117h-6zM792 99l20 -15h33q80 0 196 186v31 h-7q-14 0 -163 -155q-37 0 -79 -47zM799 1168h6l14 39h-14zM832 1292h32v8q-12 36 -26 39h-6v-47zM871 1261q0 -41 26 -54h7q0 42 -27 62h-6v-8zM917 239h6q110 89 138 147v31l-14 85v85l-13 16q0 -34 -65 -233l-52 -116v-15zM936 84h46q54 56 79 139l-7 8h-7l-111 -140v-7z M995 572h13v147l-13 16v-163zM1015 866q37 -242 65 -263v31q0 53 -59 232h-6zM1034 921q40 -163 79 -248q0 157 -79 263v-15zM1087 347q17 0 26 62v23q-17 0 -26 -62v-23z" />
<glyph unicode=":" horiz-adv-x="569" d="M24 966q0 28 93 77l46 -15l39 7q112 -17 147 -62q0 -15 47 -15v-16h8l-124 -201l-70 15l-31 -15q-64 0 -140 163zM55 958q0 -66 62 -124v8q-23 24 -23 100l-24 24h-15v-8zM70 346q0 28 93 77l47 -15l39 8q111 -18 147 -62q0 -16 46 -16v-15h8l-124 -202l-70 16l-31 -16 q-64 0 -139 163zM101 338q0 -65 62 -124v8q-23 25 -23 101l-23 23h-16v-8zM125 935h7l16 15l-16 16l-7 -8v-23zM171 315h8l15 15l-15 16l-8 -8v-23zM171 888l23 -23v8l-7 38h-16v-23zM218 268l23 -23v8l-8 39h-15v-24zM233 811h8l31 31v77l-16 16h-7v-47zM280 191h7l31 31 v77l-15 16h-8v-47zM280 981l23 -77v-47h8q15 0 31 70q-31 62 -62 62v-8zM326 361l23 -77v-47h8q16 0 31 70q-31 62 -62 62v-8z" />
<glyph unicode=";" horiz-adv-x="569" d="M16 959q0 28 93 77l46 -15l39 7q112 -17 147 -62q0 -15 47 -15v-16h8l-124 -201l-70 15l-31 -15q-64 0 -140 163zM47 951q0 -66 62 -124v8q-23 24 -23 100l-24 24h-15v-8zM65 334q0 26 87 72l43 -14l36 7q104 -16 137 -58q0 -14 43 -14v-15h7l-7 -7v-159q0 -82 -166 -288 h-7l-29 29l-36 -21h-14v21q44 46 122 245l-36 7l-36 -14q-60 0 -130 151zM93 331q0 -65 62 -124v8q-23 25 -23 101l-23 23h-16v-8zM117 928h7l16 15l-16 16l-7 -8v-23zM159 305h7l14 14l-14 15l-7 -7v-22zM163 881l23 -23v8l-7 38h-16v-23zM202 262l22 -22v7l-8 36h-14v-21z M225 804h8l31 31v77l-16 16h-7v-47zM272 184h7l31 31v77l-15 16h-8v-47zM272 974l23 -77v-47h8q15 0 31 70q-31 62 -62 62v-8zM303 348l22 -72v-43h7q14 0 29 65q-29 58 -58 58v-8zM310 96q52 59 58 108v15h-7q-51 -94 -51 -123z" />
<glyph unicode="&#x3c;" horiz-adv-x="1196" d="M15 603v9q42 163 306 399q198 123 464 352h18v-19l-28 -37v-9q65 22 112 65l28 -9v-19q-75 -149 -325 -371q-287 -154 -427 -306v-18h139q141 46 594 102q81 55 121 55h18v-18l-56 -65q93 -33 93 -56v-18l-139 -28h-130q-55 -6 -55 -28h398l47 -9v-19l-47 -9h-547 l-139 -37h-56l-324 9v-9q-33 0 -46 93h-19zM80 575l9 -10h9l10 10l-10 28h-9zM117 714h9q116 90 241 250q35 0 84 84h-9q-325 -211 -325 -334zM432 955l10 -9q172 71 185 120h-18q-170 -92 -177 -111zM525 640h28v18h-9zM627 1131h19q27 7 37 37h-19q-30 -9 -37 -37z M748 1224l74 18v28h-19zM840 677h10q111 18 111 37h-9q-112 -16 -112 -37z" />
<glyph unicode="=" horiz-adv-x="1196" d="M-1 676v13q0 25 38 25v12q0 42 -38 88q47 75 113 75l213 -12q200 0 402 50h12v-38q-100 -15 -100 -50h138l301 63v-25l-12 -13v-12l125 -63v-25q0 -52 -226 -100v-26l201 -25v-25l-63 -12h-88l-238 25h-339q-46 0 -100 63h-276zM7 1200v13q0 25 38 25v12q0 42 -38 88 q47 75 113 75l213 -12q200 0 402 50h12v-38q-100 -15 -100 -50h138l301 63v-25l-12 -13v-12l125 -63v-25q0 -52 -226 -100v-26l201 -25v-25l-63 -12h-88l-238 25h-339q-46 0 -100 63h-276zM74 764l38 -38l427 -12h25v25h-51q-43 0 -87 50h-352v-25zM82 1288l38 -38l427 -12 h25v25h-51q-43 0 -87 50h-352v-25zM739 664h101q113 25 113 62h-101l-113 -37v-25zM747 1188h101q113 25 113 62h-101l-113 -37v-25z" />
<glyph unicode="&#x3e;" horiz-adv-x="1196" d="M14 578v18l46 10h395q-9 27 -55 27h-129l-137 28v18q0 23 92 55l-56 65v18h19q164 -83 368 -83l239 -46q51 -27 101 -27h138v9q-57 99 -423 322q-168 114 -304 331l-18 27v19h18v9l120 -64v9l-28 37v18h19q242 -206 542 -414q213 -253 221 -331v-9q-37 0 -37 -83h-18v-9 l-10 9l-321 -9h-56l-137 37h-543zM244 734q0 -18 119 -36q0 20 -110 36h-9zM382 1258l73 -18l-55 46h-18v-28zM520 1185q9 -37 55 -37q-9 37 -55 37zM575 1084q12 -49 184 -120l9 9v10q-127 80 -193 101zM649 661h27l-18 18h-9v-18zM750 1065q193 -202 193 -230 q25 0 129 -101h9q0 122 -322 331h-9zM1090 596l9 -9h9l9 9l-9 28h-9z" />
<glyph unicode="?" d="M28 1527v6q37 74 44 178q50 147 267 147h200q70 0 215 -55q252 -27 252 -74q133 -118 133 -226v-43q0 -168 -170 -331q-248 -148 -445 -221v-12l15 -98v-178l7 -24q-5 -74 -29 -74l-82 -36h-14q-26 0 -37 67v74q-38 0 -38 36v98q-37 167 -37 239v37h-44v6q83 47 407 117 q54 25 274 73q67 63 67 110v80q0 82 -155 221l-141 79l-67 19h-178q-206 -34 -288 -98l-112 -135l-37 -12v6zM95 1674h14q100 80 319 123h133l67 -6q30 9 30 18q-59 24 -97 24h-177q-255 0 -260 -91l-29 -43v-25zM191 1686l15 13v6h-15v-19zM213 296v6q0 15 30 18l200 -55 l37 -6q35 29 81 135l8 6h7l15 -18v-147q7 -19 44 -19l60 25l14 -19q0 -16 -125 -92v-73l-15 -18q-15 0 -60 49h-14q-40 -9 -111 -68l-30 -6l-15 18v37q0 41 59 98v12q-42 49 -177 111zM339 951l15 -73h7l15 12v6q-5 61 -37 61v-6zM339 1055l15 -36q74 22 96 49v12h-7z M376 749q24 0 30 80h-8q-22 -4 -22 -49v-31zM376 970l15 -13l59 49v25h-15l-59 -43v-18zM398 100h15q45 6 45 18v19l-23 6zM421 743l14 -12v30h-14v-18zM428 627h30v24l-23 19l-7 -7v-36zM435 522h30v19h-7l-23 -6v-13zM472 179q11 -30 52 -30l22 18v31q-37 0 -37 12 q-19 0 -37 -31zM480 896q24 2 59 43l7 6h8l-8 19h-14l-52 -37v-31zM480 1000q88 0 281 141q97 25 97 43h-15q-230 -51 -230 -73q0 -26 -133 -62v-49zM532 235h22v24h-22v-24zM643 994q61 0 244 117v6h-15q-130 -31 -229 -111v-12zM702 1766l89 -12v6q-5 18 -59 18h-30v-12z M872 1754q148 -90 200 -208q23 -24 23 -56l-8 -122h15l7 61v98q0 101 -185 233h-52v-6zM946 1184h8q50 28 89 86v6h-8zM969 1637l14 -12v12l-14 13v-13zM1028 1521l7 -31h8v37l-15 12v-18z" />
<glyph unicode="@" horiz-adv-x="2079" d="M22 417v112q0 74 97 299q30 192 91 251q52 58 257 97h209q436 0 550 -167q223 -224 223 -299v-91l-84 -278l-49 -118q-29 -28 -55 -28h-49q-188 0 -257 69q-83 -62 -126 -62h-83q-152 28 -216 83q-7 19 -97 77q-21 25 -21 49v27q0 101 104 244q251 167 292 167h21 q209 0 209 -84q61 -79 70 -111q-16 0 -28 -167v-35q24 -174 55 -174h42q153 0 153 195q-35 182 -118 348q-124 209 -271 209q-125 56 -251 56h-104q-199 -59 -279 -216q-125 -202 -125 -376v-49q15 -142 251 -403q196 -146 368 -146q269 0 348 125l91 55h7v-6l-7 -42h35v-7 q0 -78 -251 -188h-69l-133 -14h-90q-187 0 -425 209q-285 258 -285 389zM50 411q0 -98 146 -237h14v7q-91 170 -91 334l-7 195h-6q-21 0 -56 -160v-139zM147 591l14 -13q33 203 230 438v14q-85 0 -244 -223v-216zM175 939h14q122 141 355 195v14h-77q-186 -29 -250 -97 q-42 -74 -42 -98v-14zM196 299q54 -159 188 -264h7v14q-65 64 -188 250h-7zM440 411q6 -56 62 -56v14q-28 75 -28 132v42q-34 -29 -34 -84v-48zM502 473q18 0 49 125q12 0 49 91h-7q-91 -49 -91 -98v-118zM530 397l42 -49l188 -7h27q181 35 181 111q37 0 70 153v63 q0 71 -111 84l-126 20h-7q-129 0 -257 -306zM565 285l35 -7l-21 21h-14v-14zM634 1113h28q119 0 327 -62v7q-85 83 -181 83h-14l-160 -14v-14zM655 271l70 -28h69q101 0 140 105l-7 7q-143 -63 -174 -63h-98v-21zM662 -132q5 -21 56 -21h14v14h-21zM843 800h42v14h-42v-14z M885 -125l14 -14h35v14h-49zM948 299l13 14v7h-13v-21zM975 1113l160 -125q103 -106 167 -250l7 -7h7v14q-160 354 -271 354q0 13 -70 14zM989 271q0 -13 42 -28l7 7q-5 84 -21 84h-14l-14 -28v-35zM1045 424q7 -167 35 -167h21q-25 61 -42 167h-14zM1080 -76v-7h21 q69 30 69 76h-7zM1233 223h42l20 20v7q-53 0 -62 -27zM1261 919q106 -211 111 -265v-153q16 0 49 104v126q-53 101 -153 194h-7v-6z" />
<glyph unicode="A" horiz-adv-x="1366" d="M23 33v19q45 123 68 304q25 0 25 95q51 66 51 219q40 0 67 456q130 565 169 627q17 67 34 67h8q17 0 17 -38h34l-8 9v48l16 19h17q145 -99 152 -171q56 -82 169 -190q52 -148 144 -276q0 -24 101 -171q130 -224 195 -475l76 -257v-28l-17 -38l25 -95v-29l-17 -19h-17 q-14 0 -59 152q-17 0 -25 95q-89 231 -186 380h-34q169 -291 169 -541v-38l-17 -19h-8q-49 22 -169 399l-93 171h-51l-101 28h-211l-220 -19l-76 -256q0 -124 -59 -124q-19 -152 -135 -323h-17zM279 900h9v69h-9v-69zM288 979h9l9 128v10h-9l-9 -59v-79zM379 811h9l183 20 v10l-183 49zM425 1195h9l100 483q-66 -96 -109 -473v-10zM434 959h110q145 0 374 -39q-215 516 -311 630q0 -145 -173 -591zM544 1816l18 -20v10l-18 20v-10zM617 1648l45 -49v10l-36 98h-9v-59zM763 1510l283 -620q0 -35 45 -79h19l-192 473q-61 122 -155 246v-20zM872 821 l92 -10l-28 50l-64 -30v-10zM1165 496l36 -108h9v20l-36 98h-9v-10z" />
<glyph unicode="B" horiz-adv-x="1366" d="M16 1206l23 16l205 -55v7l-8 207v231h-8l-53 -16l-15 24q0 27 76 55q0 65 15 80l61 -32l60 63l8 -7h8q241 79 288 79h45q212 0 311 -278l31 -143v-127q0 -47 -46 -167l303 -390q46 -112 46 -254v-48q-35 -165 -144 -246q-141 -110 -364 -191q-50 0 -395 159l-75 8 q-28 -59 -46 -64q-11 0 -45 96q-69 17 -69 39l23 24h53q0 40 -53 56l-38 71v8l38 16v668q-5 13 -220 79zM281 1588q13 -167 31 -167l15 222v16h-8q-38 -20 -38 -71zM327 459l15 -16v40l-15 16v-40zM335 396q0 -19 53 -24v16q-31 0 -53 23v-15zM357 626q5 -56 23 -56 q23 148 23 263v127l-38 -8zM365 1127l15 -16h15q-12 143 -30 143v-127zM395 1556q12 -350 38 -350v310l-15 135h-23v-95zM433 340l304 -80l174 32q152 143 152 294v271q0 99 -152 135h-364l-76 -8v-271q0 -162 -38 -373zM456 284l83 -63h114q0 24 -167 63l-7 8h-23v-8z M456 1691l15 -167v-429l53 -8h30q159 135 289 135h15l76 -8l7 8v151q-34 211 -113 302l-54 48h-37q-281 -5 -281 -32zM630 1794h31l151 -23v15q0 22 -75 32h-69l-38 -8v-16zM661 1095h15q176 43 205 79l-8 8h-15q-97 0 -197 -79v-8zM782 157l23 -24h53l15 16v8h-91zM790 78 h91q103 27 159 71v8h-61q-25 0 -98 -64h-91v-15zM888 213h46l22 24v8h-15l-53 -16v-16zM994 300h16q34 0 83 143h-8zM1025 213h7q99 26 99 47v8h-8q-87 0 -98 -39v-16zM1093 308h8q197 32 197 143v103q0 68 -69 175h-7q0 -117 -91 -286q0 -52 -38 -111v-24zM1101 515h15 q68 115 68 246q0 52 -76 103h-7v-349z" />
<glyph unicode="C" horiz-adv-x="1479" d="M13 552v92q0 79 17 121l-9 148v194q10 179 161 399h17q45 128 508 333l102 19h68l211 -38q77 -52 77 -92q-119 -102 -170 -102q-84 0 -178 28q-337 -228 -457 -352l-34 -65v-56q77 -314 220 -602q278 -166 390 -166q193 -74 271 -74h8l51 18l26 -9q108 68 161 185l8 9 l17 -27v-65l-34 -111l17 -37q-56 -152 -186 -232q-85 -55 -144 -55h-119q-155 37 -254 37q-52 52 -296 83q-201 66 -271 213q-10 39 -161 120zM55 561q14 -83 68 -83v9q-36 120 -68 120v-46zM72 802l17 -19v46l-17 -18v-9zM140 1052q85 162 85 315h-26q-59 -163 -59 -315z M165 626q0 -96 187 -223h25q-79 158 -178 556v9q-34 0 -34 -222v-120zM267 959q32 -194 93 -194v9q-68 194 -93 194v-9zM326 265q91 -75 161 -75h9v10l-170 83v-18zM335 644q62 -195 161 -305l127 -37l8 9v9q-56 55 -161 259l-135 84v-19zM369 737q12 -37 25 -37h9v18 l-26 28zM377 1404l356 250v18q-5 28 -68 28q-114 0 -288 -269v-27zM614 468q113 -213 331 -213l76 -9l101 37v19q-383 95 -474 166l-25 10zM640 237q4 -33 127 -74l50 9v9q-38 65 -177 65v-9zM868 107l9 -9h59v9l-17 19h-34zM894 1682l101 -10h9l51 47v9h-119l-42 -9v-37z M1012 144h51l119 37v19h-85q-85 -21 -85 -56zM1038 61h84q150 42 187 111l-9 9l-262 -111v-9z" />
<glyph unicode="D" horiz-adv-x="1479" d="M26 1484q69 21 77 51l153 59v15h-7l-192 -22l-16 22q0 22 131 22q27 32 223 80q13 27 276 147q52 0 269 -271q69 0 338 -301q42 -128 162 -286q38 -147 38 -198v-110q0 -86 -46 -110l-8 7h-23v-29q0 -147 -392 -418l-169 -88l-199 -37h-139q-90 0 -192 88 q-130 17 -130 37q17 14 53 14q0 15 -69 15l-15 22q18 15 54 15v7l-16 44v15l23 22h177v7l-8 1122l8 74h-8l-338 -37zM249 244l38 -36l54 7h54v44h-146v-15zM264 1528h8q172 13 184 44v15h-7q-86 0 -185 -37v-22zM402 1653h277v7q0 22 -138 22h-116l-23 -22v-7zM425 1447 l16 15v44h-16v-59zM456 1198q0 -90 62 -462v-81q23 0 23 139l-46 433v169l-8 37h-8q-23 -94 -23 -206v-29zM464 728l15 -14v36l-15 15v-37zM472 68l15 -14h23l-15 14h-23zM479 120q0 -30 215 -30h62q184 41 184 96h-7q-189 -52 -369 -52h-85v-14zM510 244h15l16 15h-31v-15z M510 1719h23q208 0 269 -88h23v14q-113 162 -161 162l-154 -81v-7zM518 1528q6 -81 23 -81v81h-23zM525 296h377q30 0 92 73q137 80 215 345v190q-16 166 -215 382q-226 286 -361 286h-23l-23 -22l-8 -756l39 -205v-103l-23 -22l-39 52zM548 193h62l23 22h-62zM894 1506 q50 -83 108 -139q46 -88 69 -88v7q-111 227 -177 227v-7zM956 244l23 -22h7q255 223 292 360q72 102 100 176v44q0 158 -123 235h-15l15 -235q0 -279 -61 -279q-130 -257 -238 -257v-22zM1178 1213q0 -58 85 -110v14q-59 90 -85 103v-7zM1178 1308q12 -28 54 -59h8 q-41 74 -62 74v-15zM1209 362q105 79 154 198v51h-8q-18 0 -100 -176l-31 -44l-15 -15v-14zM1417 648h15l8 36v52h-8l-15 -15v-73z" />
<glyph unicode="E" horiz-adv-x="1366" d="M33 159l21 15l7 -7l64 51q0 233 -21 391v211l-8 7l8 8v123q-50 0 -50 22q16 14 50 14v269q-29 198 -29 493q50 20 78 51l14 -43h49l-7 79l21 15l29 -94h14l663 7q52 29 155 29h134q16 0 28 -51q0 -24 -99 -43q0 -15 -119 -15q-92 -58 -142 -58h-268q-294 -16 -352 -44 l14 -203v-254l-7 -145l233 -29h366l22 -22l-142 -29v-7l198 -15l28 15l14 -22v-7l-21 -22h-42q-47 -73 -99 -73h-176l-381 37l14 -610l42 -15h438l134 15h317q85 0 85 -44h35l21 -14q0 -31 -92 -51h-134q-207 0 -536 -80l-84 -7h-50q-118 36 -176 36q0 -36 -21 -36t-21 44 l-22 7l-7 -7q0 20 -176 72zM119 624l17 -319q41 64 41 152l-6 356h-52v-189zM119 856h46v15l-11 14h-35v-29zM119 929h29l11 14l-11 15h-29v-29zM119 994h29v7q-13 95 -29 95v-102zM142 1647l12 -14h5l41 7v29h-46l-12 -14v-8zM148 1706h34v14h-34v-14zM154 1568 q23 -294 51 -458h6v269l-11 210h-12q-21 0 -34 -21zM228 1647h6q43 0 46 22h-52v-22zM228 1706h156l11 14h-167v-14zM240 936h17l-11 15h-6v-15zM251 138h133l11 14h-144v-14zM297 94q6 -22 35 -22h207q30 0 34 22h-276zM315 842l235 -29h121q30 0 35 22v14q-172 29 -248 29 l-143 -22v-14zM694 1669h35l57 22v15q-92 -13 -92 -37zM723 152l98 -7q109 0 109 22h-207v-15zM803 1713h12l17 22h-29v-22z" />
<glyph unicode="F" horiz-adv-x="1251" d="M26 538v98l47 579l-6 259v223l13 21l7 -7h20q32 147 61 147l14 -21v-91h6q28 42 48 42l13 -35h95q125 21 237 21q51 21 189 28q0 13 61 21l14 -14q0 -23 -81 -63v-21h115q372 -19 372 -63l-20 -14h-102q-124 0 -311 -27h-372l-143 -28l7 -84v-370l244 21h74l21 -21 q-40 -56 -142 -56q0 -21 196 -28l13 -14q-11 -56 -27 -56h-379l-67 -608q-18 0 -27 -160l6 -175l7 -7v-7l-13 -14q-61 9 -61 28v49h-7q-28 -42 -48 -42l-27 140q-47 97 -47 349zM60 545q0 -231 27 -231v552q-22 0 -27 -237v-84zM114 154h7l20 21l-7 398l-6 7h-7v-273z M121 1495q22 0 27 91v21h-20l-7 -84v-28zM134 1648h14v21l-14 -14v-7zM168 594l27 -196q34 0 68 531l7 7l6 28l-6 21h-54v-349l-21 -21l-20 70h-7v-91zM168 838l14 -14v105l-14 -14v-77zM216 1027l6 -7h7l41 14v14h-34zM216 1132h60v391q-13 70 -33 70h-27v-461zM263 1704 q0 -42 27 -42q121 42 311 63l7 7v7h-20q-112 0 -237 -21h-75zM317 1041h81q0 17 -61 21l-20 -7v-14zM642 1746h20l14 14h-14l-20 -7v-7z" />
<glyph unicode="G" horiz-adv-x="1593" d="M19 1078v84q81 319 196 377q57 91 312 218q80 101 338 101q437 -90 437 -201q36 0 45 -34l-27 -17l-80 17h-268q-472 -108 -472 -168q-109 -85 -205 -260q-67 0 -133 -343v-9q191 -315 356 -411l267 -151q332 59 366 118q169 21 169 151v134l-18 17h-36q-178 0 -178 58 v17h-9q9 34 54 34h347q80 0 80 -252l36 -285v-59q0 -100 -36 -100q-37 5 -62 75h-18q0 -26 -44 -67q-45 12 -45 59v159q-73 0 -142 -134q-78 -50 -259 -101q-131 -92 -169 -92q-211 0 -321 59q-55 18 -160 117q-35 0 -223 394q-80 69 -80 185v25l9 151zM108 1212h9 q6 34 53 34l54 117l-9 9q-107 -82 -107 -151v-9zM170 625q157 -293 277 -293h9q-138 120 -223 251l-63 51v-9zM224 1221h18q198 320 392 369l338 75h125v25q-118 67 -151 67l-544 -243q-128 -147 -178 -260v-33zM277 1523q107 20 107 92q-54 -17 -107 -84v-8zM358 298 q0 -44 44 -67h116q-106 67 -152 67h-8zM438 172q133 -117 365 -117q32 0 71 42v17l-196 75h-240v-17zM518 1623h9q106 29 294 134l53 17v25l-71 9q-185 -57 -285 -168v-17zM883 248l18 -17h18l107 34v16q-143 -8 -143 -33zM1115 298h18q49 0 89 59l-9 8h-9q-89 -44 -89 -67z M1222 751l44 -8h54v25h-54l-44 -9v-8zM1427 676l18 -68h8l36 34v17l-27 25h-35v-8zM1436 239h17l27 118q-16 67 -35 67l-9 -8v-177z" />
<glyph unicode="H" horiz-adv-x="1479" d="M17 524v206l20 366v579q0 79 39 107q30 0 30 -23l10 -8h29l10 8h10l20 -46h19v61l30 23q20 -12 49 -191q30 0 30 61l30 16l19 -23v-298l-19 -350h29l385 53h188l187 -23l-10 115v427q0 132 158 274h10q72 0 148 -396v-984q-57 -404 -89 -404l-29 -15h-10l-30 23v175 l-10 38h-10q-62 -267 -98 -267l-30 23v160l20 702h-286q-553 -47 -553 -84v-54q-69 -553 -109 -693q-28 -69 -49 -69l-20 23v99q0 50 -69 213q-19 163 -49 176zM86 806h20l20 130l-20 22l20 46v122q-33 0 -40 -122v-198zM86 1393q30 0 30 160q0 56 -30 61v-221zM96 486 l20 -145v-8h29l-19 320l-30 -22v-145zM195 440q23 0 29 69h10l-10 91v236l-10 8l10 23l-10 76h-19v-503zM195 996h19v138l-19 15v-153zM244 1423q30 -63 49 -228l20 15v274l-69 8v-69zM313 897h10q427 109 464 130h-10l-395 -53h-29q-28 0 -40 -77zM688 936q217 15 217 38 v15l-217 -31v-22zM994 951h148v23h-148v-23zM1181 272q30 5 30 61v237l-20 15l-10 -92v-221zM1241 1736l10 -8q45 15 49 31v8l-20 15q-19 0 -39 -46zM1260 615q30 -129 50 -129v876q0 222 -30 267l49 16v45h-29l-40 -30v-595q3 -38 20 -38l-20 -46v-7q3 -38 20 -38l-20 -46 v-275z" />
<glyph unicode="I" horiz-adv-x="569" d="M17 1358v388l39 22l25 -22v-134q99 0 129 134q51 75 89 75l26 -23v-388q8 -45 39 -45l12 276v195l39 22q72 -62 154 -590v-463q0 -209 -39 -441v-142q0 -202 -51 -202q-26 15 -26 68l-38 15l13 7v164l38 150l13 650q0 82 -38 82l-39 -321v-620l-38 -30v-75 q-30 -97 -65 -97q-25 15 -38 90l-51 -53h-13q-61 11 -116 336v464q0 160 -64 508zM145 394l39 -164v-38h26v292q-34 156 -65 156v-246zM171 1186q26 -260 90 -351h13v224q-36 306 -90 306l-13 -7v-172zM210 730l25 -15v30h-25v-15zM210 1492l25 -67h26v231q-38 0 -51 -112 v-52zM441 1492l25 -15v22l-25 15v-22z" />
<glyph unicode="J" horiz-adv-x="1024" d="M17 245v8l24 25q22 -23 81 -184l8 -8l32 16l49 -25v9l-129 167v8l16 25q26 0 121 -125q135 -208 194 -208l121 -51h56q115 0 210 259v1078l16 293v209q0 106 40 117l17 -25v-217l16 -17v226l24 25l16 -25v-435h16v426l24 25q17 -11 17 -100l24 -25l-8 -811 q24 -78 24 -142v-852q0 -62 -194 -193q-16 -92 -72 -92h-113q-230 0 -380 176q-142 84 -250 443zM154 36q0 -51 89 -100l16 17l-105 91v-8zM364 -206v-25q142 -101 275 -101h113l16 17v17h-113q-85 0 -210 92h-81zM461 -139v-9l16 -17h186q67 0 105 76h-8q-110 -50 -170 -50 h-129zM558 -206v-9q33 -41 97 -41h72q97 8 97 83v42h-16q-58 -75 -137 -75h-113zM865 -173h24q97 52 97 109v401q-25 0 -57 -176q-64 -146 -64 -334zM881 378h16q16 117 32 117l-8 184v184l16 126l-16 167v58q-35 0 -40 -292v-544z" />
<glyph unicode="K" horiz-adv-x="1366" d="M11 848q0 18 113 63l47 42q-20 21 -20 49h-107l-20 21l20 13h87l100 -13v6l13 91v299q0 178 40 348q0 63 47 84l26 7l14 -21v-278l40 -342v-139h6l14 14v167q0 290 -47 578l20 14q51 -106 60 -585v-132l13 -14q220 225 260 313l67 77q87 76 219 271l20 -7l27 14l13 -21 v-41h27q0 41 20 41l13 -20v-28q0 -99 -106 -167l-174 -279q-161 -181 -173 -181q-172 -97 -193 -97v-14q1 -10 167 -70q72 -31 259 -237l360 -369q80 -173 80 -195l-20 -13l-33 20h-7q0 -32 -13 -48l-67 48l-27 -7q-70 56 -293 321q-300 314 -399 320q0 12 -67 28h-6 q-34 -156 -34 -279v-118q0 -258 20 -341v-7l-20 -21q-15 16 -26 84h-20v-56l-47 -35l-33 7h-14l-6 -7h-7l-13 21v404l-14 76v348l-106 -48h-20q-17 0 -20 28h-40zM251 654q20 0 40 187l-40 14v-201zM264 1016h13q34 0 34 13q-7 195 -34 195v-111zM271 159h6q12 0 40 77 l-6 174v264q-31 -29 -40 -250v-265zM364 1064h13v174l-13 14v-188zM444 835q14 -28 100 -49h6v7q-69 69 -99 69h-7v-27zM464 1029h7q184 66 253 154q110 113 139 160v21q-150 -95 -352 -286l-47 -35v-14zM517 918q101 -109 180 -160l553 -522h6v35l-546 564q-132 83 -193 83 zM824 1398h6q137 104 153 154l-6 7q-60 -34 -153 -161zM957 1614h6q43 18 87 112v21q-16 -9 -93 -133zM1270 145l20 -21h6v7l-20 21h-6v-7z" />
<glyph unicode="L" d="M10 171q0 28 73 52l-7 727v343l7 171l-7 129v51l20 26l14 -52l13 17v120l20 26l20 -26l53 94l20 9q33 -71 33 -188l-7 -1413v-17l7 -60l106 26h133q110 0 272 59h34l20 -25l-47 -43h332l20 -26q0 -51 -173 -51q0 -77 -99 -77h-193q0 -34 -26 -34l-299 25h-20l-67 -8 q0 -103 -26 -103l-13 35h-14l-6 -9h-7l-13 26v42q-27 0 -27 26l27 17v26l-47 8h-40l-20 26q16 17 47 17v17h-93zM110 968l6 -745h33v154q-11 659 -33 659h-6v-68zM163 1498q0 -376 26 -376v556h-13l-13 -77v-103zM223 1147l13 17v454l-13 -17v-454zM608 111q0 -25 172 -25 h27q-7 25 -40 25h-159z" />
<glyph unicode="M" horiz-adv-x="1706" d="M53 149v633l32 214l-11 680q41 166 138 166h11l85 -16q5 32 31 32q22 -10 22 -95l10 -8q0 -16 106 -24q208 -181 319 -411q20 -36 42 -39q35 33 85 181q118 206 244 206q20 46 180 103l64 -8q0 33 95 55q59 0 138 -403q64 -441 64 -846v-119q-59 -372 -127 -372 q0 -71 -43 -79q-32 0 -32 55h-21l-10 -8h-11l-21 24v174q0 159 -32 214l-11 759v388h-10q-180 -163 -276 -324l-212 -190h-21v-8l31 -48l-31 -16q-62 0 -266 277q-186 193 -254 198v-8l10 -1099v-111l11 -166q-14 -37 -43 -40l-21 24v39h-10l-85 -39l-21 24v205h-22 l-85 -190l-10 -7h-11zM127 379h21l54 126v633h-43v-340zM127 1660l11 -126q42 0 42 166v39h-10q-30 0 -43 -79zM212 1194h43v71q0 206 -43 229v-300zM255 181h10l53 8v55l-42 245h-21v-308zM361 1581l233 -174h21q-100 153 -244 245h-10v-71zM626 1368l85 -87l10 7 q-56 95 -95 95v-15zM934 1328h21q96 202 403 340h11v8q0 43 -43 55h-11q-93 -110 -169 -110q-134 -73 -212 -277v-16zM976 1249h21l117 119q32 77 95 142h-10q-167 -116 -223 -261zM1453 1083l11 -594l32 -181l21 15l-11 467q-31 128 -31 229v64l-22 16v-16zM1453 1447 l22 -16v174l-22 -16v-142zM1464 1652h21l21 16q-6 79 -31 79h-11v-95zM1559 790l22 -16v56l-22 15v-55zM1581 450l21 -16v198l-21 16v-198zM1591 1233q0 -364 53 -364l-31 396v8l-22 15v-55zM1634 751l21 -16v23l-21 16v-23z" />
<glyph unicode="N" horiz-adv-x="1479" d="M8 1782l18 16l46 -23h9q19 0 19 60l18 15l46 -7l55 15l73 -23l28 8q17 0 174 -204q232 -206 468 -567q166 -152 340 -461h18q-147 845 -147 914v220l19 22q45 0 101 -158h18v143q0 68 82 83l19 -22v-53l46 -15l9 -870v-574l9 -68q-18 -50 -83 -106q0 -30 -45 -30 q-32 68 -46 68h-19q0 -30 -27 -30q-61 0 -147 181l-165 363q-106 87 -321 446q-88 145 -239 332l-9 38h-28v-400l-36 -242v-477q46 -115 46 -241v-106l-28 -23l-18 23v83l-110 -38l-28 -23l-18 31h-28v-8l9 -53l-27 -15l-28 23l-27 476v1141q0 37 -46 136zM118 218h28v257 q0 39 -28 45v-302zM155 1563q46 -363 46 -869v-234l46 7v166l18 363v613l-28 60l19 38q0 29 -37 91h-18l-46 -38v-197zM201 135h18l28 22v219q0 42 -46 61v-302zM292 172l19 -15v38l-19 15v-38zM320 1752q62 -143 92 -143h27q0 41 -110 143h-9zM476 1495q0 -48 202 -280 q367 -429 367 -536q72 -191 248 -325v7q-90 184 -358 582q-56 173 -303 431l-138 121h-18zM1017 928l37 -68h9v8q-20 68 -46 68v-8zM1081 830q22 -73 129 -212l147 -264h18q-86 216 -266 468l-28 16v-8zM1109 429l28 -37v-38l27 -8v38q-24 0 -46 53h-9v-8zM1210 233h18v7 l-18 15v-22zM1219 1533q0 -136 64 -363h10l-10 53v227q-31 159 -64 159v-76zM1274 263l37 -30v15l-28 23h-9v-8zM1283 1095l19 -16v38l-19 15v-37zM1329 1488q12 -432 64 -477v189l19 106h-9l-28 23v287l-18 15q0 -74 -28 -143zM1366 664l18 -15v22l-18 15v-22zM1384 588 q5 -76 28 -76v8q-7 83 -28 83v-15z" />
<glyph unicode="O" horiz-adv-x="1593" d="M13 583v324l54 310q0 177 162 389l99 94q120 72 396 158h18q467 -41 467 -115q63 -23 144 -209q119 -87 198 -324q45 -137 45 -591v-7q0 -32 -153 -173q0 -83 -207 -259q-248 -166 -387 -166h-215q-364 0 -522 288q-99 158 -99 281zM58 590q6 -115 36 -115v29 q-6 115 -36 115v-29zM112 785l54 -288q0 -279 225 -332l153 -14v7q-178 132 -279 324q-90 173 -90 260v129q0 201 54 425q-65 0 -117 -418v-93zM121 1275h27l162 324q-74 0 -189 -310v-14zM229 972q0 -319 144 -555q209 -158 423 -158h44l180 79q279 202 279 519l36 338v101 q-122 339 -225 339q-121 98 -261 144q-163 0 -440 -310q-180 -253 -180 -497zM373 108q146 -58 225 -58v14l-216 51h-9v-7zM472 281q140 -130 252 -130h27q359 60 359 115q66 0 135 209h-9q-217 -223 -324 -223q-12 -29 -81 -29h-26q-129 0 -333 65v-7zM607 115 q0 -19 72 -29h81q0 16 -108 29h-45zM885 115h36l72 29v14h-9q-99 -25 -99 -36v-7zM1074 1764l135 -108v-14h27v14q0 15 -135 108h-27zM1272 389q207 132 207 331v425q-40 144 -63 144v-288q-36 -141 -45 -317zM1524 597l27 22v36q-27 -7 -27 -43v-15zM1524 821l18 14v202 l-18 14v-230z" />
<glyph unicode="P" horiz-adv-x="1366" d="M22 1697q15 49 107 84q0 62 23 62q16 -18 16 -54h7q245 69 353 69h138q69 0 490 -130q0 -13 92 -38q115 -104 115 -222q0 -227 -54 -299q0 -60 -122 -138q-32 0 -222 -114l-468 7h-38l-92 8v-8l15 -352v-375l-23 -23l-23 23v100l-38 -8v-46l15 -46q-30 -191 -76 -191 q-53 0 -62 145l-69 261v114q0 125 23 299v191q-8 18 -92 61l-7 23q7 29 53 46l46 -7v497l-84 -15l-15 15l23 46zM145 419q53 -163 53 -206h16v788h-8l-15 -15v-138q-46 -208 -46 -283v-146zM168 1636l30 -214q31 0 31 229h8l-8 23q-42 0 -61 -38zM168 1713h7l77 7v31h-8 l-76 -15v-23zM214 1108h15v61l-15 -15v-46zM252 350q23 0 23 85v84q0 160 -23 160v-329zM290 1644l16 15v23h-16v-38zM359 1047q0 -30 291 -69q202 161 445 275l7 39v46q0 216 -245 344q-286 54 -460 54q-38 -138 -38 -245v-444zM666 1812l15 -15h23l-15 15h-23zM742 970 h108q137 44 222 184l7 31l-7 7q-206 -103 -330 -199v-23zM758 1797l15 -16h8v16h-23zM965 1690q168 -169 168 -284l8 -61h7q22 0 31 77v61q-64 191 -153 191q0 14 -38 16h-23zM1087 1070h8q174 165 222 306v92q-50 153 -130 153h-8v-8q38 -84 38 -122v-62q0 -86 -76 -191 q0 -31 -54 -161v-7zM1217 1123h8l23 23h-8z" />
<glyph unicode="Q" horiz-adv-x="1593" d="M14 660v6q0 458 277 783q107 90 196 198q251 184 294 184l89 -7q105 34 171 34h25q87 0 318 -293l139 -252q49 -118 49 -177v-163l-25 -211l8 -102v-48q0 -159 -155 -279l196 -252l-33 -14l-114 102l-65 48l-8 7h-8v-14l130 -190l-32 -14q-97 65 -204 211h-25 q-55 -41 -302 -95q-101 -68 -154 -68h-58q-223 30 -464 245q-185 170 -245 361zM96 735l8 -82h16q0 192 73 395q142 280 278 456l8 20h-16q-125 -77 -270 -340q-65 -138 -97 -422v-27zM161 571q0 -78 236 -211q323 -102 375 -102h221q59 0 163 61v7q0 18 -229 204l-8 28 l33 13v21l-25 47l17 14q31 0 65 -55h16l33 21h57q38 0 187 -130h17q98 148 98 259v198q0 92 -318 551q-159 184 -196 184h-25q-166 0 -367 -191l-146 -218q-196 -327 -196 -544l-8 -82v-75zM389 258q152 -132 343 -170h49q68 24 122 68v7h-147q-98 0 -367 102v-7zM487 285 q46 -49 261 -88h122q43 0 49 20v7h-147q-41 0 -285 61zM699 1681h8q117 34 171 34q125 0 188 -123q195 -200 375 -571h8v68q-51 281 -106 347q-200 244 -236 245q-189 95 -237 95q-43 0 -171 -88v-7zM952 1804q157 -84 236 -109q68 -114 147 -164h8q-43 90 -204 232 q0 31 -98 61l-89 -14v-6zM960 176h24q95 0 229 82l-17 14h-24l-179 -69q-15 -20 -33 -20v-7zM1009 523l171 -143h8q-54 87 -171 143h-8zM1050 571l195 -150h25l8 28l-171 136h-57v-14zM1392 394q122 84 122 225h-8q-16 0 -57 -123q-19 0 -57 -95v-7zM1433 1347 q57 -190 81 -429l17 14v191q0 116 -90 231h-8v-7zM1449 639h8l49 123q-32 170 -49 170v-157l-8 -129v-7z" />
<glyph unicode="R" horiz-adv-x="1479" d="M7 1045q5 30 64 30h64v173q0 217 33 331l-8 8h-9q-30 -44 -48 -45q-20 49 -56 60q27 65 161 166l8 7v8l48 -15l345 90h265q190 0 409 -286q24 -85 24 -143v-113q-33 -149 -80 -188q-76 -83 -96 -83q-59 0 -233 -136l-72 -37v-30q155 -49 353 -286q228 -265 281 -452 q16 0 16 -60l-32 -15q-26 0 -145 128l-88 52l-32 -15q-171 151 -209 151q-72 28 -72 68l32 15v15q-304 362 -514 436h-16l16 -143v-308l-16 -181v-151q0 -14 -48 -30q0 -45 -40 -45l-16 15l8 53v83q-27 -12 -72 -128q-31 -38 -64 -38l-17 23v579l-16 121v248q-5 23 -64 23 q-64 26 -64 45zM176 714l16 -15v263h-16v-248zM176 1090h16v98l24 151v203h-16q-24 -122 -24 -301v-151zM192 96h8q18 0 24 53l-8 8h-24v-61zM232 706l8 -504h16l48 248l-8 234v188q0 98 -24 98h-40v-264zM232 1007h56v30l-56 8v-38zM232 1098h48l-16 180q-26 0 -32 -98v-82 zM256 1640l24 7v23h-8l-16 -15v-15zM304 1549q0 -87 40 -271h8v128l-32 173v31h-16v-61zM344 239l16 15v332l-16 -15v-332zM360 1579l32 -165q6 -331 16 -331l8 -8l8 8h8l185 -15h297q163 47 249 165v38q0 74 -201 316l-56 45q-210 83 -265 83l-112 15q-169 0 -169 -38v-113 zM505 977l8 -7v-8l96 8h88v15h-192v-8zM601 1798h48q161 0 434 -128q51 0 168 -211h8v23q0 82 -128 188q0 42 -201 135l-72 15h-241l-16 -15v-7zM649 917l97 -30h24q71 40 72 53v7h-64l-89 -15h-40v-15zM762 819q195 -217 441 -376v15q-254 314 -441 361zM858 608 q46 -43 176 -226q69 -64 145 -75q66 -69 161 -113v15l-426 354l-56 53v-8zM970 1632h24l-16 15h-8v-15zM1002 1617l129 -166h8l8 8l8 -8h16l8 8h8q-63 111 -185 166v-8z" />
<glyph unicode="S" horiz-adv-x="1366" d="M4 482q0 56 27 80q90 0 90 -87l45 -40v13l-27 80l18 14q22 0 108 -154q86 -66 207 -100l126 -67h180q351 36 351 114q63 57 90 167v133q0 197 -216 308q-189 139 -450 167q-138 46 -297 60q-225 37 -225 127v87q0 55 72 187q0 127 45 127q0 83 108 133q5 27 27 27h405 q279 -54 279 -127l-9 -53h9q90 -55 90 -94v-7l-18 -20l-72 27h-9q126 -104 126 -127l-18 -13q-283 198 -486 220l-189 7q-100 -23 -162 -134v-20q0 -23 432 -107q139 -37 153 -60q103 -128 324 -254q0 -18 144 -153q36 -70 36 -127v-94l45 -167v-133q0 -288 -270 -368 q-112 -40 -162 -40h-108q-35 0 -252 67q-122 53 -270 153q-141 0 -279 201q-15 0 -18 47zM76 1290q0 -43 189 -80l81 -20h36v13q-171 40 -171 100q-20 0 -36 61v106l-36 27q-40 0 -63 -113v-94zM220 1384q0 -73 144 -141h27v7q-153 106 -153 140h-18v-6zM283 1417 q0 -49 243 -154q117 -33 180 -33h63v7q-148 87 -441 173l-9 7h-36zM319 281l45 -20h36v7q0 9 -72 27l-9 -7v-7zM436 1818l18 -13h63l27 20h-108v-7zM472 1217q103 -61 360 -127l207 -87v6q-69 94 -549 214h-18v-6zM499 1698h117l45 -7v7q-12 26 -81 26h-54l-27 -20v-6z M508 174l180 -80h90q32 0 171 54q174 32 180 60v13h-18l-153 -60l-171 -20h-63q-31 0 -189 53h-27v-20zM508 1390l72 -20l207 -87h9v14q0 49 -288 107v-14zM670 1825l234 -107h18v6q-24 49 -252 101zM715 174h90l18 14h-108v-14zM796 1651q0 -15 45 -20q0 15 -45 20zM814 47 h99q342 78 342 181h-9q-141 -100 -234 -100l-198 -67v-14zM1066 963l18 -14v20h-18v-6zM1147 255h18q72 0 99 80v73h-18q-17 -76 -99 -140v-13z" />
<glyph unicode="T" horiz-adv-x="1251" d="M6 1760l17 13h152q121 34 175 34h219v27q0 52 23 61q11 -15 22 -88l6 -7h17l180 -13h164l78 -7q46 20 96 20h79l17 -20q0 -22 -186 -74q-141 -82 -175 -82h-78l-79 14v-7l-12 -954v-271l-11 -216v-81q0 -11 -39 -34q0 -57 -40 -68q-14 26 -50 264h-6l-6 406v988h-428 l-17 13q0 21 34 34l-11 14h-79q-62 15 -62 34zM598 481l5 -68v-101q15 -116 28 -116v149q-21 136 -33 136zM598 900l11 14v277l5 237l-5 196v34h-11v-758zM620 630l11 -14v68l-11 13v-67zM637 109h6q22 11 22 47l-28 -7v-40zM637 1577q18 0 22 81h-22v-81zM643 1117 q0 -312 16 -454v-270l12 -88h11l6 1272v13h-6q-39 -96 -39 -318v-155zM964 1706h11l56 20v13h-5l-62 -27v-6z" />
<glyph unicode="U" horiz-adv-x="1479" d="M18 932v165q0 137 97 589q30 165 96 165l18 -15l-9 -8l9 -127v-52h17v164l27 23l17 -23v-157q0 -86 -105 -313v-411q34 -253 219 -455q178 -228 343 -321q75 0 351 164q185 176 185 388v695q0 38 -150 403l18 15q26 0 26 -23l9 -7h18v45l17 22q30 0 62 -75 q123 -59 123 -164v-157q28 0 70 -410v-224q0 -62 -193 -508q-51 -125 -352 -276q-52 -30 -96 -30h-53q-60 0 -237 105q-155 0 -281 119l-149 284q-97 278 -97 410zM62 1044q0 -171 88 -321h9v30l-27 299v313q-70 -77 -70 -321zM141 596q29 -89 44 -89h9v30l-53 67v-8z M176 1477h9q21 0 26 67l-35 -52v-15zM238 574q0 -61 140 -269q0 -62 228 -149h27v22l-106 82l-263 321h-26v-7zM273 350l17 -15v22h-17v-7zM668 96l123 -45h53l70 45v8h-79l-167 15v-23zM975 156q40 14 44 30h-17l-27 -23v-7zM1248 1679l105 -269h9v30q0 80 -97 246h-17v-7z M1327 671q35 12 35 52v224q0 141 -35 164v-440zM1406 1119l9 -321l17 15v254q0 55 -26 59v-7z" />
<glyph unicode="V" horiz-adv-x="1366" d="M9 1729v16l21 24l68 -80h14v24l-62 121l21 16q199 -193 240 -394q183 -353 358 -596l185 -249h7q241 984 241 1030l14 112v73l13 24l21 -16l62 24l14 -16l-7 -8v-8l27 -81h7q24 33 48 33q5 72 35 72l13 -24l-7 -8l21 -65v-32q-80 -322 -165 -587q0 -182 -172 -789 q0 -81 -27 -169v-72q0 -25 -28 -25l-34 17l-48 -89h-96q-23 0 -49 24l-41 -16l-14 24l14 65v8l-151 386q-96 209 -254 748l-165 282q0 24 -124 201zM415 1013q0 -64 219 -628q76 -165 76 -209h21l7 40q-8 106 -317 821h-6v-24zM524 908q33 -35 49 -128q128 -290 171 -451 l21 -32q14 0 41 120q-107 231 -275 507h-7v-16zM703 715h14v8l-14 16v-24zM731 683q64 -173 89 -193h14v56q-82 145 -103 145v-8zM772 79h14q62 79 62 105l-21 16l34 56q-13 73 -34 73q-55 -120 -55 -193v-57zM854 409q21 -80 35 -80h14l13 32q0 41 -41 97h-14zM875 120h14 l20 40v8l-13 16zM889 530q36 -71 48 -72q91 228 151 893v8q-16 -13 -82 -314q-117 -458 -117 -515zM957 329h7q19 0 28 80v33h-14zM1047 611h14l27 104h-14q0 -30 -27 -80v-24zM1088 941h14l75 273l35 322h-14q-82 -153 -82 -386zM1157 1568q18 0 55 89v72l-14 16h-7z M1239 1431q14 0 55 178q-4 80 -20 80l-28 -48v-129z" />
<glyph unicode="W" horiz-adv-x="1933" d="M10 1834q29 23 78 24q106 -48 177 -242q0 -137 93 -442q40 -93 127 -484q36 -68 57 -249q23 0 43 153q71 100 120 402l114 500q75 195 142 249l14 -40h14q4 32 22 32q59 -79 63 -185q213 -671 213 -845l85 -290l8 -8h7q177 624 333 1240q59 169 85 169l14 -24l-14 -145 v-33h7q89 129 107 129l14 -24l-99 -612q-107 -414 -192 -612q-119 -354 -142 -354l-42 -16q0 -16 -22 -16q-98 107 -149 217q-190 359 -220 676q-17 33 -42 226q-18 0 -36 97l-7 8h-7l-142 -298q-85 -247 -113 -548q-39 -204 -135 -427q-27 -4 -43 -48h-7q-15 1 -156 274 q-43 84 -99 346q-186 409 -242 660l-7 427zM81 1335q0 -147 213 -628l7 -25h7v8l-213 773l-7 8h-7v-136zM81 1689q156 -623 312 -1135h14v8l-298 1159v56l-14 17h-7l-7 -57v-48zM166 1697q57 -251 78 -258v8q0 188 -71 250h-7zM265 1310l15 -16v8l-7 41h-8v-33zM301 1190 q4 -49 21 -49h7q-9 57 -28 57v-8zM329 578l15 -16v16l-15 16v-16zM329 1101q26 -145 50 -145v8l-35 137h-15zM351 505q56 -209 78 -209v24q0 43 -71 201v8h-7v-24zM379 916l14 -16v16l-14 16v-16zM414 739q5 -49 22 -49h7l-21 105h-8v-56zM471 433q29 -137 43 -137v16 q-7 121 -36 121h-7zM571 288h14v24l-14 -16v-8zM592 352l14 16v16l-14 -16v-16zM869 1302h14l42 129v8l-14 16q-42 -56 -42 -153zM947 1512h14l14 64v8h-14l-14 -16v-56zM996 1431l22 -72h14v16l-14 80h-22v-24zM1074 1375l7 -24h8v24l-15 16v-16zM1110 1053 q0 -268 156 -516l7 -8h7v16q0 116 -149 492q0 24 -21 24v-8zM1117 1238l14 -56h7v16l-7 40h-14zM1138 1141q0 -43 36 -64v24l-29 73h-7v-33zM1294 417l43 -89h14v8q-20 65 -50 89h-7v-8zM1422 256h14q43 35 43 104v105h-7q-50 -152 -50 -209zM1465 175h7q42 57 142 379 q106 201 227 789l28 249h-7q-143 -183 -199 -515q-42 -73 -42 -185q-99 -255 -107 -556zM1713 1463q14 0 50 145v8h-7q-22 -88 -43 -120v-33z" />
<glyph unicode="X" horiz-adv-x="1366" d="M12 1722l14 14q17 0 94 -88v7l-7 47l14 14l101 -14l7 7l-22 54l15 14q23 -1 150 -190q190 -143 252 -272l86 -108q111 197 166 217q366 347 366 393q0 41 22 41l21 -20l-21 -82v-13h14q48 40 65 40l14 -13q0 -163 -86 -244q-377 -519 -381 -645q79 -156 194 -447 q134 -154 180 -319l-22 -14h-7q-14 0 -29 41q-57 0 -57 41q-178 273 -345 447h-15q-123 -319 -172 -319l-165 -210q-34 -69 -80 -88l-14 20l58 102h-8l-86 -20l-14 13q0 102 93 319q85 340 173 475q-21 60 -94 142q-71 154 -409 563q-65 72 -65 95zM127 1641 q147 -202 194 -244v-7h14q0 26 -158 210q0 28 -50 48v-7zM199 1668q0 -45 65 -95v7q-29 88 -51 88h-14zM343 1546q30 -100 309 -475h14l29 75v7q-132 230 -345 407h-7v-14zM357 169h14v-7q122 34 122 88l29 41l-43 20q33 116 151 312l58 170q-48 45 -72 88q-33 0 -79 -149 l-159 -475q-21 -26 -21 -54v-34zM522 1092q6 -24 58 -68l14 -34h7v13q-50 95 -72 95zM608 359q22 2 87 129h-7q-80 -72 -80 -122v-7zM673 874l22 -20v7l-22 20v-7zM688 1003q23 -39 50 -54h21l22 61q-28 62 -50 75h-8q-18 0 -35 -68v-14zM731 671h7l14 27v14h-7l-14 -14v-27 zM752 1139l36 -61h22l266 475q-324 -270 -324 -414zM802 881h8l21 21v13h-14l-15 -13v-21zM846 983l14 -14l57 170h-7q-64 -109 -64 -149v-7zM853 651l86 -89v7q-43 88 -86 88v-6zM860 807l29 -28v7q-9 34 -22 34h-7v-13zM982 1180h7q29 59 187 278v13q-194 -129 -194 -271 v-20zM1097 1471l101 82l21 13l7 -6h15q12 0 79 101v41h-22q-109 -69 -201 -217v-14z" />
<glyph unicode="Y" horiz-adv-x="1366" d="M16 1757q10 62 32 62q92 -234 121 -249l-16 249v16l24 23l16 -23v-8q0 -449 194 -529q164 -101 186 -101h145q120 0 258 264q79 85 129 296q0 55 48 93q44 -85 105 -85l8 -32h16l8 8q41 0 73 -194v-195l-40 -187l-16 -1143l-25 -16l-24 16l8 7v172l-32 -47h-8l-24 23v86 h-8q-16 -1 -49 -78q-89 -117 -105 -117l-16 24v326l32 382v210q0 151 33 249h-16q-86 -210 -258 -210h-226l-81 -24h-32q-107 0 -162 94q-40 13 -177 225q-121 104 -121 413zM113 1453l48 -54v15l-40 63h-8v-24zM185 1368q96 -171 186 -234v8q-141 210 -153 210l-25 16h-8z M427 1150q46 -62 89 -62h121v7q0 26 -169 70h-41v-15zM669 1142l105 -54q172 69 266 256q65 120 65 187v31h-16q-88 -185 -226 -350q-63 -54 -145 -54h-49v-16zM1065 177h8q42 36 129 218v47l48 428v85h-24q-32 -93 -129 -256l-32 -273v-249zM1097 979q25 7 97 334 q48 122 48 156l-16 15q-129 -290 -129 -474v-31zM1105 1306h8l16 54v16q-24 -8 -24 -47v-23zM1129 878h8q113 184 113 287v63l-8 39q-26 -18 -113 -374v-15zM1258 317l16 16v85h-16v-101z" />
<glyph unicode="Z" horiz-adv-x="1251" d="M-1 1730q0 45 206 45h423q26 0 30 23h-489l-15 22l15 15h639q36 -2 36 -15l247 38q16 0 31 -23l-36 -75l5 -53l-10 -90h5q36 -13 36 -30l-15 -15h-16l-5 7q-16 -2 -82 -248l-103 -226v-15h67l87 30l11 -23q0 -43 -201 -75l-11 -22v-16h129l155 -7l10 -23q0 -55 -186 -90 h-149q-69 -68 -175 -467l-46 -113v-15h587q72 -15 72 -45q0 -82 -294 -158l-180 -38l-62 -15h-129q-87 14 -113 30l-103 -45l-10 23l51 128v7h-10q-71 -90 -113 -90l-11 22l11 83h-6q-31 0 -31 23q0 31 98 68q167 336 232 594v8h-103l-15 23l98 37l82 76v22l-108 -30h-5 l-16 23q35 33 150 52q27 59 77 249l149 293v16q-96 30 -257 52h-119q-13 0 -15 30l-278 -45q0 -10 -83 -15l-10 30h-57q-72 15 -72 53zM76 1715h201q67 0 67 23h-149q-119 0 -119 -23zM318 134h11l20 15v22q-31 0 -31 -37zM396 262h15q65 22 170 286q83 242 83 316h-31 q-13 -6 -145 -384q-92 -189 -92 -211v-7zM421 66q191 74 289 75v15l-191 15h-46q-27 -27 -52 -83v-22zM488 277h6l10 15v7h-5l-11 -15v-7zM555 66l11 -15h154q54 30 268 52q36 18 36 31h-165l-304 -61v-7zM566 209q170 -15 242 -38l108 15h31q94 0 149 -37q98 42 98 60v7 l-10 15h-618v-22zM622 1715h16l263 -53h20q35 29 103 128v8l-335 -60q-67 0 -67 -23zM669 721q12 3 51 128v15h-10q-16 0 -41 -136v-7zM669 939h20v23h-5l-15 -8v-15zM689 1015h16v15h-16v-15zM710 1067h5q62 168 62 219h-5q-26 -24 -62 -211v-8zM725 939h16q21 15 21 45 l-16 8q-21 -11 -21 -23v-30zM762 1082h20q24 16 93 241l103 264v15q-57 0 -149 -286q-23 -30 -57 -188l-10 -16v-30zM839 902h118l109 30l-11 15h-165q-51 -17 -51 -45zM885 1165q59 90 108 249v7h-5q-103 -204 -103 -256z" />
<glyph unicode="[" horiz-adv-x="569" d="M17 127v241q57 456 57 646l-14 103v43l7 552q19 137 79 137v9l43 -17h229l137 -17v-18q-73 0 -108 -60l122 -26v-17l-36 -9h-193l-122 -26v-439l36 -456v-259l-29 -293h50q75 -43 136 -43h58l35 -8v-18l-86 -17h-14v-26h50q61 0 93 18l22 -9v-9q-25 -32 -29 -86l-50 -8 h-7l-265 25h-7v-17l-22 -17l-43 26l-57 -9q-72 37 -72 104zM46 101q0 -26 28 -26l36 9v8q0 22 -64 35v-26zM46 239h7q39 22 43 224v267q-14 0 -50 -345v-146zM74 178l51 -43h7q1 43 14 43l-7 216v818q-12 0 -36 -258l22 -224v-250q0 -186 -51 -267v-35zM89 1212q24 0 50 301 v207l-7 43l14 17v18h-36l-14 -86zM168 273l14 -17v8l7 638l-7 534l-7 9h-7v-1172zM211 135l93 -26h43l7 43l-108 26h-35v-43zM211 419l14 18v163l-14 -17v-164zM354 1798q7 -43 29 -43l43 25v18h-72zM483 49h36v35l-36 -9v-26z" />
<glyph unicode="\" horiz-adv-x="569" d="M14 1481v281l5 40h9l4 -8h5v8l-9 32l4 24h5q66 -106 126 -265h4q0 24 9 24h5q75 -427 149 -593q45 -210 153 -521l50 -232l-5 -24l41 -217l-5 -24h-9q-171 198 -234 417q0 43 -271 818q-36 93 -36 240zM32 1449q0 -153 108 -409q0 -32 86 -248q119 -386 176 -537 q61 -97 72 -97v8q-36 97 -149 521q-55 78 -149 490l-139 505h-5v-233zM46 1762l36 -80v16l-36 72v-8zM100 1625q18 -37 18 -80q22 -59 81 -320q9 0 9 -24h5v24q-18 196 -91 368l-13 32l-5 9h-4v-9zM231 1241q15 -238 130 -537q90 -369 140 -369v8q0 34 -153 513 q0 24 -72 248q-33 145 -45 145v-8zM456 335q0 -28 45 -193l-4 -32l40 -40v40q-27 180 -76 233z" />
<glyph unicode="]" horiz-adv-x="569" d="M9 109v9h15v9l101 -18h51v26h-14l-88 17v18l37 8h58q62 0 138 43h51v9q-29 190 -29 284v259l36 456v439l-123 26h-197l-36 9v17q124 14 124 35q-46 49 -109 51v18l138 17h232q37 0 37 17q65 0 87 -146l7 -552v-43l-14 -112q0 -178 58 -637v-241q-17 -104 -87 -104l-44 9 l-36 -26q-29 9 -29 34h-8l-269 -25h-7q-58 0 -58 60zM60 49h36v26l-36 9v-35zM154 1780l59 -25l14 43h-73v-18zM227 152l7 -43h44l95 26v43h-37zM358 437l15 -18v164l-15 17v-163zM394 893l8 -637l14 17v1172l-14 -18zM438 187l15 -52h7l51 43v35q-51 81 -51 267v250l22 232 q-24 250 -37 250v-818zM438 1780l15 -17l-8 -43v-207q27 -301 51 -301v17l-7 491l-15 78h-36v-18zM474 84l51 -9l15 26v26h-7q-59 -16 -59 -35v-8zM489 463q4 -202 44 -224h7v146q-36 345 -51 345v-267z" />
<glyph unicode="^" horiz-adv-x="961" d="M56 618l8 8v9l-8 67q54 161 220 448q0 120 177 363h8q21 0 26 -76q47 0 143 -211l135 -203q81 -150 152 -422h-25l-51 34h-8v-144l-9 -42h-8q-136 223 -262 642q-17 0 -76 177h-25q-252 -587 -372 -667h-17v17h-8zM149 778h17q44 11 211 431v8q-50 -11 -228 -439z M335 1251h8q25 0 59 118q-67 -86 -67 -118zM487 1310l101 -219q17 0 25 -85h17v17q-54 230 -143 304v-17zM672 846q80 -249 127 -287v50q0 104 -118 262h-9v-25zM689 1032q118 -338 161 -338l8 8q-116 357 -169 363v-33z" />
<glyph unicode="_" d="M18 -196q44 70 106 70l201 -11q188 0 377 47h12v-36q-94 -14 -94 -47h130l283 59v-23l-12 -12v-12l118 -59v-24q0 -49 -212 -94v-24l188 -23v-24l-59 -12h-82l-224 24h-319q-44 0 -94 59h-260l-59 12v12q0 23 35 23v12q0 40 -35 83zM89 -220v-24l35 -35l401 -12h24v24 h-47q-41 0 -83 47h-330zM714 -314v-24h95q106 24 106 59h-95z" />
<glyph unicode="`" horiz-adv-x="682" d="M7 1522v10h54v44q0 54 43 65l87 -22q100 14 162 54q63 -35 173 -205q63 -139 162 -238q-49 -76 -97 -76q-141 0 -465 270q-29 0 -119 98zM115 1478l335 -248l11 11q-8 36 -238 194l-75 76h-33v-33zM180 1554q0 -28 130 -65h11q0 40 -130 76h-11v-11zM267 1576 q37 0 173 -130l43 -11v33q-107 151 -141 151l-75 -22v-21zM494 1273q21 -54 75 -54v22l-43 43h-32v-11z" />
<glyph unicode="a" d="M17 121v47l32 169q0 91 91 292q113 205 270 416l168 123l155 31q21 0 116 -77l45 -8v8l13 15h6q123 -210 123 -377q0 -71 84 -500l19 -154l-19 -23v-8l-7 8h-6q-58 -26 -58 -77h-20q-34 0 -103 516q-358 -516 -477 -516h-45l-84 8l-90 -8h-103q-86 0 -110 115zM43 98 q36 -61 71 -61h142q-29 45 -123 77l-77 123h-7l-6 -39v-100zM75 298q0 -79 77 -161h13v8l-32 184v62h-6q-16 -8 -52 -85v-8zM81 391h7q40 38 84 154l26 38v62l-13 15l-104 -231v-38zM159 368q18 0 26 77v38h-13l-13 -92v-23zM185 229q22 -46 58 -46h51v23q-20 0 -96 116h-7 l-6 -54v-39zM191 145l19 -24h97l20 24v7h-71l-65 16v-23zM210 383q0 -84 136 -192q91 0 406 292q103 172 103 316v161q0 57 -71 131h-116q-127 -58 -341 -331q-65 -98 -117 -338v-39zM243 691h6q13 4 65 123l200 231l6 8v7h-13q-196 -159 -264 -331v-38zM262 83 q0 -17 58 -31q97 48 103 69v24h-6l-129 -54h-26v-8zM372 37h90q40 0 168 131l19 30h-13l-116 -53h-45q-72 -93 -103 -93v-15zM449 175h13q231 113 290 231l26 46h-13q-127 -123 -310 -254l-6 -7v-16zM655 252h7l13 16v7l-20 -7v-16zM875 1022l13 -15h6v46h-19v-31zM920 860 l19 -23v8q0 138 -19 138v-123zM971 568q9 -146 33 -146v7l-20 116v23h-13zM997 799l13 -16v39h-13v-23zM1010 129l13 -69h13v54l-13 31h-13v-16zM1042 360q5 -131 26 -131v69q0 59 -26 70v-8z" />
<glyph unicode="b" d="M9 523l72 334l27 208l9 768l9 25h18l8 -42v-58h18v33l9 42h18l9 -33h9l45 33q21 -25 63 -25l9 -42v-333q0 -259 -18 -376h9q161 67 206 67l54 -8q204 91 305 91q139 0 206 -342v-275l45 -150l-27 -150v-75q-56 -184 -143 -184q0 -21 -108 -25h-287q-55 0 -161 75l-252 33 l-9 67q-37 -33 -71 -33h-9l-9 42v308l-45 -8v8zM126 356q35 0 71 309h-9q-37 0 -62 -142v-167zM144 690h26l27 42v8l9 142h-27l-35 -92v-100zM152 240h18l36 33v125q-27 0 -54 -142v-16zM152 1249l18 17v33h-9l-9 -42v-8zM161 932h27l18 33v242q-18 0 -45 -275zM170 1374 q22 0 36 150v142l-18 17l-18 -17v-292zM188 148h18v67h-18v-67zM251 139l81 -8v17l-72 58h-9v-67zM269 298q96 -150 224 -150q0 -19 81 -25h63q231 0 367 108v109q-99 492 -197 492q-176 150 -224 150h-9q-251 -105 -251 -217q-23 -23 -27 -83v-109l-27 -200v-75zM278 1591 l18 -17v117l-18 -17v-83zM296 915h18q106 110 197 150v26q-215 -56 -215 -134v-42zM529 1032h45q47 0 54 25l-18 17h-36l-45 -34v-8zM637 1107l9 -25h71q174 0 234 -133q68 -89 98 -251h9v167q-52 292 -134 292l-18 17h-18q-84 0 -251 -67zM655 1015h45l-18 17h-9zM682 974 l134 -100v16q-29 50 -134 92v-8zM700 39h188q90 7 90 42h-45l-72 -17h-135zM753 1040q91 -84 234 -267h9q-85 276 -243 276v-9zM951 690q38 -183 62 -183v133l-44 50h-18zM960 114h27l26 25v17h-9l-44 -33v-9zM1049 173l27 8v50h-9l-18 -16v-42z" />
<glyph unicode="c" horiz-adv-x="1024" d="M4 369v35q0 260 147 466q67 197 139 234l78 -9q64 52 193 69q34 35 109 35q72 0 193 -156l8 -8v-35q-46 0 -46 -78h-16q-12 1 -54 87h-77q-95 0 -418 -337q-24 -95 -47 -130v-17q0 -80 116 -312q135 -103 248 -103h15q122 42 202 155h15v-17h8l-31 -78q149 67 225 147h7 v-17h8q0 -104 -225 -285l-54 -9h-31l-147 26h-186q-52 0 -201 130q-178 71 -178 207zM35 360q48 -164 147 -164v9q-132 135 -132 225v69l-15 -18v-121zM43 533l15 18v17l-15 -17v-18zM81 412q0 -61 70 -121l8 9h8l-47 104v112q0 44 54 138q37 153 132 251l116 130v17h-70 q-145 -108 -240 -337q-31 -162 -31 -251v-52zM198 395q5 -121 54 -121h8v9q0 43 -55 121h-7v-9zM236 706h8q160 233 356 303v8l-85 26q-78 0 -271 -285zM267 1026q36 17 39 35v8h-16l-23 -26v-17zM438 1087l31 -9l7 9v26h-23l-15 -18v-8zM523 1087h147v8q0 26 -124 26 l-23 -26v-8zM623 1147l117 -43l7 9v8q0 26 -69 43h-55v-17zM670 41h101l15 17h-116v-17zM740 92h46q41 0 77 44v17l-123 -43v-18z" />
<glyph unicode="d" d="M2 313v52q0 240 286 381q137 119 176 119q94 -7 169 -30q191 60 227 60l52 -37h14q0 188 66 388l8 582l7 23h15q0 -31 44 -83q20 -149 44 -149v239h22l7 -37v-366l-15 -261v-239q-36 -309 -36 -440q-37 -158 -37 -292v-74l-22 -105h-15q-58 0 -58 135l-8 7h-14 q-69 -92 -345 -172l-30 -7h-95q-403 68 -403 142q-59 68 -59 164zM31 298q40 73 66 224q88 106 88 127h-7q-147 -123 -147 -254v-97zM75 216q0 -42 74 -82h14v15l-73 74h-15v-7zM105 276q0 -82 183 -187h154l81 37v23h-44q-154 0 -338 119q-11 30 -22 30h-14v-22zM112 358 q42 -101 242 -164l110 -15h103q293 192 293 306v127q0 67 -102 67q-89 55 -221 59q-34 0 -381 -276zM141 507q186 178 301 239h-7q-158 -37 -191 -105q-41 -10 -103 -119v-15zM413 798q33 15 36 30h-7q-29 -11 -29 -22v-8zM442 37h162l7 22h-147zM457 776h44l36 7v23h-58 l-22 -23v-7zM582 89h29q87 24 183 97v15h-7l-205 -90v-22zM626 783h44v15h-44v-15zM648 186h14q228 90 228 187q29 30 29 82v142l-22 22h-7v-119q0 -132 -242 -291v-23zM684 753q0 -27 118 -52h22v15q-18 37 -110 37h-30zM736 104q104 0 198 127v37h-8q-57 -79 -190 -157v-7 zM765 835q0 -22 88 -29v-8l-15 -30q5 -23 66 -59h15v67q-37 84 -59 89q-95 -5 -95 -30zM802 201h7q42 0 88 90h-15l-14 -15zM948 776l8 -23h14v8l8 283l-15 -14zM1000 507l7 -82v-149h15v149q29 341 29 612q-44 -24 -51 -411l7 -104l-7 -7v-8zM1007 1074q22 8 22 45v52 q-19 0 -22 -97zM1066 1433l14 -142v-418l15 15v358l-15 343l-7 8h-7v-164z" />
<glyph unicode="e" d="M17 625v52q0 141 159 351q147 149 449 149q0 18 87 22q67 0 130 -89q102 -57 102 -120v-74q-12 -162 -73 -239q-191 -201 -318 -201q-23 -45 -80 -45h-203l-101 23h-7v-30q0 -102 224 -201h456q198 68 261 208q7 45 22 45h7v-15h7q0 -141 -232 -387q-108 -60 -181 -60 h-123q-76 0 -166 60h-94q-246 44 -246 186q-22 74 -37 238q-19 0 -43 127zM46 595l22 -22v186q-22 -7 -22 -44v-120zM111 305q15 -14 15 -75q30 -82 86 -82l95 -45h36v8q-60 68 -181 112l-44 97h-7v-15zM118 551h15v7q0 272 188 462h-14q-167 -98 -167 -238q-18 -15 -22 -97 v-134zM162 484l94 -23h246l14 15v8h-275q-28 37 -58 37h-21v-37zM162 551h202q333 67 333 223l22 67v127q0 27 -231 82l-44 22q-282 -171 -282 -499v-22zM307 193q0 -48 144 -90h29l36 8v7q-7 18 -188 75h-21zM415 513h167l14 15v8l-87 -8h-94v-15zM480 193q0 -22 80 -22 h181l36 7v15h-297zM480 1080l203 -52v22q0 31 -130 67h-15q-53 0 -58 -22v-15zM509 74q10 -30 65 -30h181q98 9 203 112l15 37h-8q-24 0 -130 -75q-54 -22 -116 -22h-123l-87 -15v-7zM538 558h15q89 0 166 82l7 7v30h-7q-65 -57 -181 -111v-8zM647 1139h14l123 -15v15 q0 17 -65 30h-58l-14 -15v-15zM712 1065q0 -63 130 -97l7 -7v-8l-29 -171h29q29 15 44 44v45q-36 186 -123 186l-58 15v-7zM719 722h22q48 0 79 224l-72 22v-112l-29 -127v-7zM734 618l7 -8h7q101 77 101 142h-14q-23 -9 -101 -134zM792 133h7l36 15v15h-7l-36 -15v-15z M857 1050l50 -60h8v23q-29 52 -58 52v-15z" />
<glyph unicode="f" horiz-adv-x="569" d="M9 1490v54q0 166 187 272q88 42 111 42h4q73 0 249 -235q9 0 9 -24q-67 -163 -160 -163v18q61 66 80 114v73q-48 -117 -98 -145h-4v6q80 99 80 157v12q0 50 -125 127h-4q-92 -47 -116 -91l18 -120v-85l31 -392q9 0 9 -36h89q24 24 40 24h13q15 0 31 -18h27l5 6l13 -6v-12 q0 -14 -62 -24l-23 -61q-44 -36 -66 -36l-31 6v-6q57 -260 57 -368v-350l-35 -223h-13v36q0 12 -14 12l-4 6v6l-22 -12v6l-5 24v230q0 53 -138 651q0 18 -9 18h-31l-22 6v12l22 6h27v12q-19 43 -27 43l5 42q-98 308 -98 386zM27 1478q0 -59 62 -265h13v6l-4 241 q-36 74 -36 151v48h-4q-31 -42 -31 -91v-90zM80 1593q6 -61 18 -61l22 193h-9q-12 -7 -31 -54v-78zM120 1249l5 -151l13 -12h18v12h4q-22 75 -31 151l-4 6h-5v-6zM120 1430l13 -18l-4 60v66h-9v-108zM129 1647h9q0 33 35 102v12h-8q-36 -43 -36 -102v-12zM138 1285l40 -199 h13q0 82 -49 211h-4v-12zM142 1038q8 -25 31 -25v13q0 31 -13 36h-18v-24zM147 1556q0 -223 44 -337q30 -145 45 -145h17q0 78 -53 199l-44 175v145q0 31 13 54v18q-22 -14 -22 -109zM160 977q6 -60 18 -60v60h-18zM169 1677h4l27 42l-9 12zM173 1460q0 -80 67 -235h5v12 l-23 277v79l-13 90h-4q-32 -38 -32 -96v-127zM187 1050l4 -31h9l9 13q-6 30 -13 30h-9v-12zM196 917q0 -65 106 -525h5v109q-76 409 -98 464h-13v-48zM213 1743q36 9 85 67h-36q-23 0 -49 -49v-18zM231 1038h18v12l-18 6v-18zM253 959q0 -46 18 -54v12l-4 42h-14zM271 766 l9 -12v12l-9 12v-12zM285 953l57 -495v-271l14 18v386q0 124 -63 362h-8zM298 169l9 12v24l-9 12v-48zM302 1001l5 -6h66q26 0 40 43v12h-4q-50 0 -107 -49zM458 1472q43 22 93 121v12q-7 24 -35 48h-9v-66q0 -32 -49 -109v-6z" />
<glyph unicode="g" d="M10 610v8q0 163 158 316q112 182 307 182h17l124 -16l33 16q123 -52 200 -66h25v66h8q17 0 17 -25l8 -8h8q34 0 50 108h17l66 -266q56 -313 91 -772v-66q-83 -302 -191 -349q-25 0 -74 -58q-135 -100 -200 -100h-116q-61 0 -224 100q-216 85 -216 191q-20 0 -42 133 l25 41v25l-8 8l8 25h9q172 -248 340 -248q53 -34 100 -34h75q274 93 274 183q24 0 49 91v432h-8q-151 -150 -457 -200h-8q-53 0 -266 133q-77 0 -191 141zM43 610l25 -25h8v41q0 43 -24 50l-9 -8v-58zM110 -21q27 -125 91 -199q211 -105 241 -133l99 -33h150q192 70 266 224 l8 33v67h-8q-49 -115 -183 -200l-233 -16q-340 55 -340 149l-75 108h-16zM110 552h25l-17 16h-8v-16zM126 651q0 -31 374 -91q5 -13 174 -50h67q70 0 174 257l8 67v33q-118 102 -298 141h-142q-138 -22 -265 -141q-92 -109 -92 -199v-17zM159 585q0 -117 341 -133h166l42 8 v17h-9l-324 75l-207 41zM201 -79q65 -133 191 -133v8q-32 38 -166 125h-25zM201 900h8q88 83 208 125l8 8v9h-33q-56 0 -191 -125v-17zM334 419l116 -58h58q133 27 133 49h-224l-75 17h-8v-8zM442 -187v-8q60 -42 83 -42h100l116 50v17h-9q-24 -22 -107 -42h-50l-125 25h-8z M674 1042h50v16l-41 8h-9v-24zM741 -229v-8q73 9 158 133v8h-17zM849 502h16q50 33 50 66q-52 -34 -66 -66zM940 1000h17v50h-17v-50zM998 -154h17q91 188 91 232v92q-14 249 -41 249q-44 -247 -67 -573zM998 925h17v33l-17 17v-50zM1006 726l9 -116v-150l16 -16l9 41v249 q0 92 -25 92v-17z" />
<glyph unicode="h" d="M17 1832l10 26h29l59 -60q16 0 40 60h19q109 -162 109 -256v-597h19q156 119 197 119l158 -34h118q90 0 167 -154q197 -213 197 -665v-111l-10 -43h-20l-9 43v76l-79 -230h-20l-10 43v94q0 118 -147 452q0 104 -197 350l-39 25q-34 0 -315 -239l9 -102v-350 q-39 -222 -167 -222q-20 63 -79 657q-29 107 -29 214v85zM86 1465q29 0 29 137v26h-9l-20 -18v-145zM106 714l19 17l-19 18v-35zM106 1201q7 -196 39 -196v392q-26 0 -39 -196zM125 347q6 -51 30 -51v103q0 93 -30 93v-145zM155 108h29v26l-29 9v-35zM184 1602l10 -623v-102 h20l29 25v726q-12 85 -39 85h-10zM204 151h10l20 17v77l-20 17zM214 723h20v43h-20v-43zM293 783h29q170 179 217 179v8h-20q-107 -44 -226 -170v-17zM381 945l10 -9h10l29 26v8h-9q-40 -12 -40 -25zM667 987q0 -22 98 -136q98 -160 207 -487h19v9q0 382 -157 529 q-74 103 -138 103l-29 -9v-9z" />
<glyph unicode="i" horiz-adv-x="455" d="M22 1726v8q0 19 26 23l176 -70l33 -8q30 36 71 171l7 8h6l13 -23v-187q7 -23 39 -23l52 31l13 -24q0 -20 -110 -116v-94l-13 -23q-13 0 -52 62h-13q-35 -10 -98 -85l-26 -8l-13 23v47q0 51 52 124v16q-37 62 -156 140zM185 1477h13q39 8 39 23v23l-20 8zM191 683v272 l7 39h6l20 -15l85 54l19 -15h20l26 7q26 0 52 -93v-762q0 -31 -65 -102q0 -46 -46 -46l-26 23l-26 -31h-6l-7 39q0 206 -26 350v132q-33 49 -33 148zM217 644l7 -54h13v257l-13 15h-7v-218zM250 1578q9 -39 46 -39l19 23v39q-32 0 -32 16q-18 0 -33 -39zM263 302h13l7 39 v109l-20 7v-155zM263 979l13 -156h13l7 78v86h-20l-6 -8h-7zM270 185l13 -15v85h-13v-70zM270 652q15 -202 45 -202v15q0 75 -32 234h-13v-47zM276 107h13v31l-13 16v-47zM302 1648h20v31h-20v-31zM315 100l7 -39h13v62h-7l-13 -16v-7zM328 909h7q29 13 45 46v32l-19 7 l-33 -7v-78zM341 870l20 -125v-155q0 -82 26 -234h13v382l-20 163h-13zM361 131h13v101l-13 -16v-85z" />
<glyph unicode="j" horiz-adv-x="455" d="M12 -39h7q24 0 39 -109h20q20 93 39 93h6q0 -60 118 -148h7l33 109q-31 76 -53 466l-6 31v133q-33 48 -33 147v273l6 39h7l20 -16l85 55l19 -16h20l26 8q26 0 53 -94v-731l13 -46l-7 -202v-31q-58 -343 -183 -343q-82 0 -184 203q-52 128 -52 179zM19 1726v8q0 19 26 23 l177 -70l32 -8q31 36 72 171l7 8h7l13 -23v-187q6 -23 39 -23l52 31l13 -24q0 -20 -111 -116v-94l-13 -23q-13 0 -52 62h-14q-35 -10 -98 -85l-26 -8l-13 23v47q0 51 52 124v16q-37 62 -157 140zM130 -140q15 -109 39 -109h46q0 47 -79 109h-6zM169 -280v-16h46v16h-46z M182 -343q2 -17 40 -46h19v23l-19 23h-40zM182 1477h13q40 8 40 23v24l-20 7zM215 645l7 -55h13v257l-13 15h-7v-217zM248 -273v-23h6q40 34 40 101v16q-46 -57 -46 -94zM248 1578q9 -39 46 -39l19 23v39q-32 0 -32 16q-18 0 -33 -39zM261 302h13l7 39v109l-20 8v-156z M261 -343l6 -7h14v23h-7zM261 979l13 -155h13l7 77v86h-20l-7 -8h-6zM267 186l14 -16v86h-14v-70zM267 652q16 -202 46 -202v16q0 74 -32 233h-14v-47zM274 108h13v31l-13 16v-47zM300 1648h20v31h-20v-31zM307 -257v-16h13l13 16l-20 8zM313 100l13 -15v31zM326 909h7 q30 13 46 47v31l-20 8l-33 -8v-78zM340 870l19 -124v-156q0 -82 26 -233h13v381l-19 163h-13zM346 -16l13 -124v-47h7q16 0 32 202l7 7v8l-7 55h-19v-55q0 -46 -33 -46zM359 186h13v46l-13 -15v-31z" />
<glyph unicode="k" horiz-adv-x="1024" d="M16 1101v180q0 102 75 577h16l8 -37v-98l58 105h25q0 -36 75 -120v-637l66 -285v-53l8 -37h25q355 299 414 315v-23q-199 -205 -199 -255q72 40 124 143l91 45v-8l17 -37v-15q-151 -85 -298 -285l-33 -30v-15q184 -64 422 -225q101 -39 116 -83l-8 -45l8 -37l-99 -23 l-58 8q0 -23 -17 -23h-16q-22 30 -141 75q0 28 -240 83v-23q0 -102 -124 -232h-17q-29 5 -66 105l8 112h-16q-51 -202 -83 -202h-9zM49 1288q23 0 33 218q-23 0 -33 -203v-15zM91 793q16 -262 49 -262l42 300v240q-25 68 -58 300l-9 7h-8q-16 -67 -16 -180v-405zM148 1641 q15 0 42 97l-8 8h-17zM173 163q33 0 50 113v90q0 64 -33 195h-17v-398zM215 628l8 -90h17v158l-9 150h-16v-218zM256 418q33 -92 33 -165l-8 -157q16 -34 33 -38l17 15q0 206 -42 323l8 52q-12 30 -24 30zM273 763l16 -142h25l8 22l-33 135h-16v-15zM372 628l8 -22h25 q52 0 124 127v8q-40 -14 -157 -113zM380 193l9 -37h8q25 5 25 60v67h-17v8l-25 -8v-90zM380 328l17 -15h25v53l-9 37h-33v-75zM422 493q0 -65 281 -165l8 8v7q-36 7 -74 68q-179 82 -207 82h-8zM455 313l132 -30l9 8v7q-79 90 -133 90h-8v-75zM620 313q42 -60 116 -60h9 l16 15q-108 53 -132 53h-9v-8zM695 403l33 -30v8l-25 22h-8zM786 283l58 -15l16 15l-74 23v-23zM819 223l17 -15l16 15l-8 8h-25v-8zM885 231q0 -17 91 -45l17 22v15q-25 38 -58 38q-50 -8 -50 -23v-7z" />
<glyph unicode="l" horiz-adv-x="455" d="M17 1244v409q33 205 66 205h18l10 -45h28q71 45 103 45l56 -27l19 18h9l9 -44v-259q113 -275 113 -525l9 -650q-82 -294 -140 -294l-38 -35h-9q-19 0 -19 26h-19q-36 -26 -84 -26h-47l-9 -36h-19l-9 27l19 338v312zM54 1199q0 -116 29 -116v588l9 89h-19l-19 -80v-481z M120 77h47l9 223v187l-19 18zM129 1707q42 -392 66 -392l9 178v312h-18q-33 0 -57 -98zM242 1484l18 18v169h-18v-187zM251 487l9 -107v-214q0 -65 28 -71h10q46 11 122 258l-10 713q-31 347 -75 347v-526zM251 709h19v54l28 107v498q-22 0 -28 -44l-19 -543v-72z" />
<glyph unicode="m" horiz-adv-x="1706" d="M13 1070l9 40h18l17 -104h9v137l9 40h9q62 -48 62 -89h18l62 97l9 8h26q27 -145 45 -145q131 105 222 105h17q52 0 133 -65h18l89 16q49 -2 160 -209h17q102 209 275 209h9l71 -24l124 8q142 -38 142 -129q27 -66 54 -467q71 -161 71 -290v-105q0 -44 -36 -57h-18l-44 65 h-36l-88 -8l-18 48v177q-47 506 -160 589q0 24 -26 24q-249 -86 -249 -234l-44 -96v-395l-9 -41h-18q-6 41 -26 41v-105l-45 -105h-35l-9 32l27 170q-27 0 -36 145q-56 389 -160 491q-24 12 -88 121h-27q-107 -42 -266 -185l-9 -403l-27 -137l27 -170l-9 -24h-9 q-14 0 -35 73q-68 0 -142 177l-9 32l9 162v282q-80 253 -80 298zM128 280q15 -54 80 -97v49q-20 121 -44 121q-36 -47 -36 -73zM173 1030l35 -137h9l44 88v16l-17 138h-18zM226 723l18 -16v33h-18v-17zM332 877h9q114 55 160 137v16l-98 16q-71 -62 -71 -161v-8zM465 1102 q0 -14 80 -40l54 48l-18 16h-89zM616 1022q0 -12 98 -33v25q-17 29 -53 40q-41 -16 -45 -32zM661 957l26 -24h9v16l-26 24h-9v-16zM732 1062l88 -65q0 -25 45 -48h9q0 51 -89 129h-27zM741 828l17 -16v16l-9 24h-8v-24zM776 965l106 -298h9q-24 282 -80 282l-26 24zM909 764 h27v8q0 59 -27 64v-72zM927 691l9 -97v-72l17 -16v193h-8l-9 -8h-9zM1033 901h9q16 2 53 72v8q-14 -1 -62 -72v-8zM1149 973h9q20 0 26 41h-9l-26 -25v-16zM1158 1046h17l27 24h-27l-17 -16v-8zM1193 949h27l26 24l-18 16l-35 -32v-8zM1273 997l97 -72l9 8q-41 97 -62 97h-9 zM1379 997q71 -114 116 -274h9v89q0 111 -98 210h-27v-25zM1486 1030l35 -65h27v24q-31 49 -62 49v-8zM1512 143h80v32l-9 41h-9zM1610 304l35 -201l27 -8v145q-24 201 -62 201v-137z" />
<glyph unicode="n" d="M10 1070l10 40h21l20 -104h11v137l10 40h10q72 -48 72 -89h20l72 97l11 8h30q31 -145 52 -145q152 105 256 105h21q60 0 154 -65h20l103 16q103 0 236 -379v-515l-11 -41h-20q-8 41 -31 41v-105l-51 -105h-41l-11 32l31 170q-31 0 -41 145q-65 389 -184 491 q-29 12 -103 121h-31q-124 -42 -308 -185l-10 -403l-31 -137l31 -170l-10 -24h-10q-16 0 -41 73q-79 0 -165 177l-10 32l10 162v282q-92 253 -92 298zM143 280q17 -54 93 -97v49q-24 121 -52 121q-41 -47 -41 -73zM195 1030l41 -137h10l51 88v16l-20 138h-21zM256 723 l21 -16v33h-21v-17zM379 877h11q131 55 184 137v16l-113 16q-82 -62 -82 -161v-8zM533 1102q0 -14 93 -40l61 48l-20 16h-103zM708 1022q0 -12 113 -33v25q-20 29 -62 40q-47 -16 -51 -32zM759 957l31 -24h10v16l-31 24h-10v-16zM841 1062l103 -65q0 -25 51 -48h10 q0 51 -102 129h-31zM851 828l21 -16v16l-10 24h-11v-24zM892 965l123 -298h11q-28 282 -93 282l-30 24zM1046 828l31 -234v-72l21 -16v217q-25 113 -52 113v-8z" />
<glyph unicode="o" d="M13 542q0 218 186 478q110 152 208 163h115l58 16h14l244 -65q86 0 86 -49q136 -167 150 -259q65 -48 65 -203q0 -205 -158 -357q-224 -227 -394 -260h-72q-301 32 -301 65q-36 67 -136 187q-29 62 -36 170q-20 0 -29 114zM42 493h14l57 243q94 180 94 220h-8 q-104 -84 -157 -374v-89zM78 339q0 -41 57 -114h7v16q0 60 -57 106h-7v-8zM128 680h14q36 25 36 105v16h-7zM142 371q0 -55 115 -122l7 9q-100 154 -100 259v49l-22 -24v-171zM178 193l21 -17h8v9l-22 24l-7 -8v-8zM192 469l7 -9h8v122l14 65v73h-14zM228 120q0 -49 43 -49 h22v16q-10 33 -65 33zM228 209q53 -81 101 -81h129q-77 53 -230 97v-16zM235 469q35 -276 244 -276l79 -25h86q157 26 316 219q36 56 36 106v122q-78 271 -180 316q-41 36 -308 106h-7q-68 -13 -215 -219q-34 -43 -51 -268v-81zM250 996l7 -8h7q0 36 115 138h57v16h-7 q-134 0 -179 -146zM271 939h7l86 114v16h-7q-48 -42 -86 -130zM307 899h7q29 16 29 48h-7q-29 -16 -29 -48zM343 87l21 -24h244q101 19 101 40v9h-22l-79 -17h-265v-8zM400 1045h7l87 24h57v16l-122 8zM501 1126l294 -89v8q-97 97 -280 97zM780 996q0 -15 101 -81l72 -89h7 v8q0 88 -180 170v-8zM823 1077q55 -81 101 -81h7q0 36 -108 89v-8zM988 834l22 -73h14v48l-28 41h-8v-16zM1024 396h15v24h-15v-24zM1089 631l14 16v57h-14v-73z" />
<glyph unicode="p" d="M30 351v21q35 144 35 239q0 124 42 159h7q0 -35 35 -87l105 101q68 58 224 101q22 29 70 29q440 -33 440 -101q154 -146 154 -274v-80q0 -96 -42 -180q0 -116 -56 -116q-115 -87 -252 -87q-499 0 -545 87h-21v-14h-7l7 -22q0 -197 49 -368v-151l-7 -37h-14 q-26 69 -42 224h-7v-173q0 -51 -49 -51q-28 8 -28 44v303l-91 411zM79 235q17 -110 42 -130v15l-7 123l-28 7l-7 -7v-8zM121 380l7 -22h14v29l-14 14zM142 206l14 -281l7 -7h7v173l-14 115h-14zM156 -284v-116h21v65l-7 51h-14zM170 502l14 -72q16 3 49 116l126 180l-7 7 q-64 0 -182 -231zM219 243l21 -22h7v14l-14 15h-14v-7zM219 387q17 -26 280 -108q0 -15 35 -15h258q76 0 210 108q17 0 35 80v65q-82 110 -287 166l-216 72q-148 0 -189 -94q-119 -148 -126 -260v-14zM247 322q59 -58 168 -58h7v15l-168 50h-7v-7zM254 271q34 -65 175 -65 h154q-10 29 -63 29h-77q-91 0 -182 36h-7zM261 185q0 -25 77 -36v21l-70 22h-7v-7zM282 762h7l21 22h-14l-14 -14v-8zM408 141l14 -14h56q0 18 -70 22v-8zM541 820q105 -29 293 -36v7q0 25 -126 51l-28 -15l-42 15h-83l-14 -15v-7zM590 149l14 -15h69v15h-83zM611 748 q257 -48 412 -173l7 -8v15q0 79 -357 180h-62v-14zM673 235l14 -14h196q117 68 126 94l7 29h-21q-109 -109 -224 -109h-98zM799 856q287 -175 287 -317l14 -152l14 14v159q0 121 -196 282l-70 14h-49zM827 748q0 -15 119 -51v8q0 28 -105 50h-14v-7zM834 149h7q102 0 161 57 h-14q-150 -37 -154 -57zM1002 250h7q32 12 49 43v58l-56 -87v-14z" />
<glyph unicode="q" d="M8 479v80q0 161 183 326q49 20 331 51l172 -80q88 -59 147 -152h6q30 53 30 87h6q35 -5 41 -297q16 0 24 -102v-22q-18 -51 -18 -145q-21 -49 -65 -290v-174h6q45 27 106 196q31 34 119 87h17v-15l-59 -72v-14h12l41 43h24v-7q0 -20 -130 -167q-53 -117 -130 -167 q0 -65 -83 -65l-23 -8h-36v22l12 22v160q41 165 41 384h6l-6 22h-12q-57 -88 -461 -88h-17q-118 0 -243 124q0 77 -35 174zM32 421l11 -15q0 281 113 349l142 123h-42q-129 0 -224 -283v-174zM79 312q24 -43 47 -43v14l-47 87v-58zM97 472q0 -106 195 -189h230l260 109l6 7 v22q0 126 -159 334q-28 22 -107 22q-65 -37 -242 -88q-169 -103 -183 -152v-65zM103 588q88 94 266 160l88 21v15h-53q-301 -96 -301 -196zM114 363q0 -55 107 -116l6 -7h165l12 14h-83q-97 0 -189 109h-18zM126 225q49 -58 142 -58q-27 36 -142 58zM173 719q101 36 101 50 v8h-12q-89 -22 -89 -51v-7zM268 806q159 7 248 36v7l-12 15h-70l-48 -15l-12 15q-106 -26 -106 -51v-7zM404 153h59l12 14h-71v-14zM481 225h124q103 0 142 44l12 21h-6q-77 -36 -154 -36h-65q-45 0 -53 -29zM570 145h47l12 15v7q-59 -4 -59 -22zM617 283h6q90 0 142 58v7 h-6l-142 -50v-15zM670 748q123 -198 142 -298h6l12 73q-100 232 -154 232zM688 167q65 11 65 36v8h-6l-59 -22v-22zM711 806l18 -22h6v7l-12 15h-12zM765 240h5l18 21v8h-12l-11 -15v-14zM765 -398h17l18 21v189q-9 0 -30 -189zM830 -65l11 15l12 275h-12l-11 -116v-174z M853 377h12l6 37l-6 7h-6l-6 -7v-37zM871 123q16 0 35 131l-11 15l-18 -8z" />
<glyph unicode="r" horiz-adv-x="682" d="M25 659v483l7 48h15l8 -48v-47h15q0 49 37 104h8q52 -36 97 -237h7q132 218 246 218h23q85 0 187 -265l7 -66v-76l-7 -47h-15q0 37 -15 37l-68 -18h-59q-18 28 -53 28l-7 47v104q-55 86 -104 86h-8q-126 -142 -134 -199q37 -245 37 -379q0 -280 -82 -322l-75 -104h-15z M92 224l8 -142h22l8 28q-18 123 -38 123v-9zM92 640q0 -334 67 -483v95l-59 398h-8v-10zM92 934q9 -95 30 -95v114q4 131 22 142q-14 43 -29 47h-8l-15 -85v-123zM152 745q0 -228 30 -228v142q0 142 -30 142v-56zM398 1114l60 -29h52q-11 57 -52 57h-22l-38 -9v-19zM488 953 l15 -19v19l-8 47h-7v-47zM503 839l22 -28h15q-19 104 -37 104v-76zM533 962l30 -123h14v57q0 51 -37 76h-7v-10zM585 1029l22 -171v-66h15q30 15 30 66v19q0 72 -67 152z" />
<glyph unicode="s" horiz-adv-x="1024" d="M5 402q57 42 57 80h22q98 -185 307 -266q169 -32 385 -48q91 8 91 32v234q0 145 -488 225q-249 216 -249 290v65q0 132 283 185q126 0 273 -105l11 -8v-8q-13 -129 -125 -129q-61 0 -79 129l-46 24h-68q-102 -64 -102 -145v-16q0 -86 329 -137q192 -49 295 -177 q125 -135 125 -177v-105q0 -217 -193 -274q-68 -64 -193 -64q-443 0 -601 266zM198 152l45 -32h12v16q0 18 -57 24v-8zM266 192q36 -56 125 -104h238l113 24v8h-11l-181 -8h-46q-98 0 -227 104h-11v-24zM289 829q115 -107 249 -145h91q0 20 -182 56l-136 97l-11 -8h-11z M368 716q23 -32 68 -32l-57 32h-11zM413 168l34 -24h103q0 22 -114 32h-23v-8zM516 772l147 -32h23q0 19 -170 48v-16zM550 1062l11 -80h23q45 16 45 40q-16 33 -57 48h-22v-8zM618 635q98 -3 226 -96h12v8q-71 104 -148 104h-90v-16zM697 47h34l23 16l-12 8l-45 -8v-16z M708 724l57 -40h11v8l-45 32h-23z" />
<glyph unicode="t" horiz-adv-x="569" d="M12 937v19l28 9h120l34 488l-6 138v55l6 46h6l17 -18q0 133 62 184h6l6 -46v-166l39 -258v-73l12 -175v-175h136q19 0 51 -46h6v-19l-6 -9v-9l40 -9v-19l-28 -9h-120l-74 -18l6 -111v-488l-17 -230h-11q-13 0 -17 46l-69 -18q-62 36 -62 248l-17 341v147h-34l-29 9v28 q0 15 40 28v9h-28v9q0 19 45 37l6 9v37h-120zM183 597q12 -95 17 -461l39 -74q57 0 57 37q-15 221 -28 221q-23 0 -23 157v175l-6 110h-56v-165zM183 891h45v28l-28 9h-17v-37zM183 965h45l-23 230h-5zM228 1204l11 -18v27l-11 19v-28zM234 1112l11 -18v46l-11 18v-46z M273 1278l18 -240v-55l11 -18l6 9v285l-12 203q-23 0 -23 -184zM319 541h11v230l-11 19v-249z" />
<glyph unicode="u" d="M16 616v393q0 122 49 122l8 68h17q16 0 24 -81q74 -18 74 -122v-149q0 -350 148 -556l32 -14h238q33 0 156 163q90 206 90 461v176l8 68h8q121 -204 205 -665q66 -194 66 -244v-13h-16q-14 0 -33 81h-17l9 -95v-40h-17q-54 99 -115 311h-8q-34 -8 -65 -271 q-199 -203 -304 -203q-77 54 -246 95q-74 100 -188 190q-39 0 -123 325zM49 616q0 -62 41 -108l-25 244h-16v-136zM114 616q30 -163 74 -163v14q-39 271 -65 271l-9 -95v-27zM303 209q0 -33 90 -67v13q0 41 -74 68h-16v-14zM450 155l41 -13h9l32 54h-82v-41zM573 128h66 q57 57 57 81v14h-24q-60 0 -99 -81v-14zM811 209l49 68v27h-8q-41 -40 -41 -95zM811 345h8q38 26 41 54v81h-24l-25 -108v-27zM893 508h25l8 95q-16 61 -33 67v-162zM1024 426q22 -87 41 -95v27q-11 56 -41 82v-14z" />
<glyph unicode="v" horiz-adv-x="1024" d="M11 1161l8 38h9l134 -213h8l-25 113l9 37h16q0 -46 210 -502q121 -274 168 -427h17q36 0 184 829h17l8 -88q20 0 67 226h17q34 -21 34 -88v-126h17q0 49 109 189h8q0 -39 -92 -226l-9 -51v-12l9 -13q-93 -327 -168 -489v-139q0 -188 -59 -188h-25l-92 25q-51 -50 -76 -50 q-86 18 -218 389q-285 556 -285 766zM78 1011q30 -93 92 -201h9q0 98 -101 226v-25zM288 734q95 -389 184 -464h17l-142 364q-23 83 -51 100h-8zM430 207l9 -13h33l-8 38h-17zM607 119q5 -38 67 -38h50l8 63v163h-25q0 -31 -100 -188zM665 408q62 0 118 515q-32 0 -118 -515 zM816 847h9l33 139v75h-17l-25 -151v-63z" />
<glyph unicode="w" horiz-adv-x="1479" d="M12 1007l18 192h9q12 0 54 -141l9 -10h9v30l-18 101h18q24 -17 109 -424q113 -255 172 -444h9q90 257 162 565q109 173 109 202q54 0 54 50h18q141 -152 280 -565q63 -152 127 -202h27l135 525v141l9 51h18l9 -51v-100h19v80q0 51 45 51l36 141h18l9 -50 q-45 -125 -145 -737l-81 -202l18 -61v-10l-45 10q0 -74 -27 -80q-162 125 -298 363l-190 414l-9 10h-9q0 -65 -154 -454q-56 -343 -135 -343l-9 -61h-9q-159 121 -344 929zM84 916q41 -45 45 -111q19 0 37 -80l9 -10h18l-82 222v10h-27v-31zM157 634q103 -444 144 -444h9v30 l-135 394l-9 30h-9v-10zM256 513q24 -124 99 -263h9q-66 293 -108 293v-30zM337 119l9 -30h18v20l-27 30v-20zM455 341q24 0 45 131v10q-25 0 -45 -121v-20zM509 503l18 20v10h-18v-30zM536 583h9l9 51v10h-9l-9 -51v-10zM554 654h9l64 222v20q-30 0 -73 -202v-40zM735 866 l36 -51h9v71l-36 51h-9v-71zM753 1017l45 -70v20q-21 60 -36 60h-9v-10zM780 765l18 -20v30l-18 20v-30zM816 896q109 -276 136 -292v30q-63 99 -63 192l-64 90h-9v-20zM934 493q137 -245 181 -283l9 10q0 100 -172 283h-18v-10zM952 573l18 -20h9l-9 30h-18v-10zM1250 382 h27v10l9 111q-22 0 -36 -111v-10z" />
<glyph unicode="x" horiz-adv-x="1024" d="M14 1082v9q36 0 36 54l109 18q120 0 370 -443h9q101 138 343 352q0 34 109 127h18v-18q-86 -93 -99 -181q27 0 27 -18v-18q-87 -61 -181 -280q-118 -101 -118 -127q55 -114 389 -461v-63l-54 -27q-22 18 -145 27q-8 54 -280 398q-181 -171 -181 -253l-162 -127h-9l54 118 l-9 9h-9q-136 -127 -172 -127v27l91 118l-9 36q298 287 298 352q-162 220 -416 452zM59 1045q76 -84 100 -90v18q-67 109 -82 109h-9zM113 1109q164 -164 262 -226v18q-115 226 -225 226h-19zM186 205h18q54 25 54 63h-9q-25 0 -63 -63zM231 937l244 -325h9l27 72 q-214 234 -262 253h-18zM357 313l9 -9q50 20 136 154v9h-9q-136 -91 -136 -154zM384 865l19 -18v27h-19v-9zM457 494l27 9v9l-18 18l-9 -9v-27zM502 575q6 -27 36 -36q36 9 36 54l-27 28h-9q-19 -4 -36 -46zM574 476q30 -66 63 -72v18q-18 81 -36 81h-9q-18 0 -18 -27z M574 684q0 -49 36 -63l208 289v18q-32 0 -244 -244zM719 286l90 -117l9 9v27l-99 99v-18zM845 123l18 -63h73q0 48 -73 100l-18 -18v-19zM972 78l18 -18h9v27h-27v-9z" />
<glyph unicode="y" horiz-adv-x="1024" d="M8 711v25l35 118v83l7 42h14l7 -42v-42h7l84 101h7l7 -42v-42l-21 -184v-92q0 -77 99 -159l56 -9h323q61 30 175 260v8l-7 176q0 40 35 76h14l36 -34l7 42h14l7 -25l7 -469v-101l21 -8l63 435h14l7 -25l-56 -385v-519q0 -114 -70 -151q-37 -6 -134 -109l-140 -59 q-162 0 -267 68q-295 89 -295 301q-28 50 -42 159l7 25h7q14 0 49 -175h14l-7 74l7 26h7q132 -327 260 -327l105 -50q232 50 232 134l133 419v50l7 125h-14q-79 -103 -196 -125q-86 -67 -155 -76h-70q-118 21 -161 84q-40 60 -134 126q-105 219 -105 293zM57 678l14 -17v50 h-14v-33zM99 644q5 -134 28 -134h14v8q-18 143 -42 143v-17zM99 828l14 -16h14q0 28 21 58v51h-7q-42 -30 -42 -76v-17zM106 -68v-8l21 -25v8zM127 -168v-9l49 -58h8v8q-16 32 -57 59zM169 502q10 -35 36 -51h14v9l-28 50h-22v-8zM247 443q0 -26 140 -67h155l49 42v17h-295z M254 351q0 -80 140 -109h105l218 100q126 78 126 235h-21q-39 -134 -224 -243l-85 -17h-35l-210 42h-14v-8zM471 -361v-17h21l-14 17h-7zM619 -344v-8h77q77 70 77 117h-7q-118 -69 -147 -109zM647 409h7l21 9v17h-7zM731 -218h7q98 85 98 159v175h-14zM773 585l21 26v16 l-21 -25v-17zM822 -235h14l29 33v84q-24 0 -43 -117zM893 -210h14l28 33v352l-28 209h-14v-594z" />
<glyph unicode="z" horiz-adv-x="1024" d="M13 1050v20q46 0 71 49h13l-7 10v30l58 20l188 -20h264q22 40 39 40q123 -27 155 -100l58 -89v-20q0 -103 -129 -229q-75 -118 -213 -269q-94 -145 -136 -249v-30h504q129 0 129 20l19 -10v-40q-28 -50 -45 -50v-9l6 -70h-13v-10l-96 10h-123l-129 -40h-90 q-284 26 -284 60q0 69 -33 69l-77 90v40q1 17 123 129q32 60 77 219q87 233 284 339l155 60v20h-97l-258 -20h-174zM129 1119h52l-13 20h-26zM168 243h13l32 50h-13q-29 -19 -32 -40v-10zM187 1060h58l-13 20h-45v-20zM232 253l13 -20q16 0 39 90q52 12 52 69h-7 q-51 0 -97 -139zM310 133q23 -29 45 -29h206l168 -10q107 56 116 79h-13l-464 -10l-52 10zM323 233l6 -10h7q0 32 180 359v10h-6q-187 -207 -187 -359zM323 442q40 0 103 150q103 229 103 258h-13q-139 -124 -193 -408zM497 631h6q44 0 213 289h-38q-155 -61 -155 -229 q-26 -20 -26 -60zM613 1119q7 -30 39 -30h103v10l-13 30l-77 -10h-52zM749 850h12q27 14 39 50l-6 10v10q-21 0 -45 -70zM826 94h52l32 30v9h-13q-71 -12 -71 -39z" />
<glyph unicode="{" horiz-adv-x="684" d="M14 893q0 59 179 91l66 30l-120 121q-113 195 -113 340q0 117 155 280l107 73l144 30h5q83 0 102 -67l-6 -30h-125q-102 0 -203 -298l-6 -60v-6q81 -334 155 -334l48 -61q-16 -45 -90 -79l-95 -85q63 -56 220 -85q42 -9 42 -43l-173 -170q-30 -69 -30 -182v-61 q0 -136 144 -206h184l18 12h6v-36l36 12l18 -6v-6q-53 -61 -131 -61q-340 79 -340 128q-72 16 -72 255q25 37 54 170q34 55 137 127v12q-111 67 -197 67l-35 -6l-18 6l6 43q-72 38 -72 85zM38 880q48 0 48 49v6h-6q-42 -23 -42 -55zM50 1463q0 -126 48 -170v122l101 315 q-36 0 -107 -127q-14 0 -42 -121v-19zM121 1220q0 -53 114 -145v6q-62 101 -114 145v-6zM121 1293l18 -48h18v6l-24 54h-12v-12zM133 886l36 -36h24q89 63 89 73v12q-76 0 -149 -36v-13zM145 1330h12v18l12 55l-6 85q-18 0 -18 -79v-79zM163 370l6 -73v-60q25 -97 78 -97 q-45 67 -78 230h-6zM181 1263q17 -37 42 -37q-33 110 -42 110v-73zM187 1494q14 12 36 91l47 85v12h-11q-72 -47 -72 -97v-91zM199 504h6l89 115v6h-6q-89 -65 -89 -121zM199 1184q18 -42 48 -55v12l-42 49h-6v-6zM211 322q0 -96 48 -128h6l-24 116v139h-6q-24 -53 -24 -79 v-48zM229 1694h6l161 97v6l-6 6h-6q-155 -28 -155 -97v-12zM247 516h6l12 12v6zM312 735l12 -12h24v18h-36v-6zM372 710q24 0 24 -18h12l12 12v19l-30 6h-18v-19z" />
<glyph unicode="|" horiz-adv-x="532" d="M188 43v1770q5 45 22 45h8l67 -37h29q0 22 15 22h30l8 -37v-1733q0 -37 -38 -67h-22q-15 0 -45 67q-43 0 -67 -37zM210 207l15 15v141h-15v-156zM210 452h15l8 52v38l-23 7v-97zM210 661l45 81v15q-17 17 -37 104h-8v-200zM210 1196l15 15v30l-15 15v-60zM210 1479 q21 0 30 141v37l-15 60l15 74l-15 30h-15v-342zM225 385l15 -15l8 8v7l-15 15l-8 -7v-8zM225 1077q0 -193 30 -193q0 28 37 81v30l-7 -7h-30l-15 89v37h-15v-37zM233 1382l15 -82q27 0 59 141v45h-22q0 -23 -52 -67v-37zM255 304l22 -90v-44h15l22 22v30l-7 148l-22 8 l-30 -8v-66zM255 817l22 -23v38h-22v-15zM255 1218q6 -81 22 -81l15 141q-11 0 -37 -60zM255 1732l7 -8h8q30 34 30 67h-15q-15 0 -30 -59zM270 415h15v60h-15v-60zM270 1531h7l15 15v52h-7l-15 -15v-52zM270 1657h22v15h-22v-15zM292 110l52 8v44q-40 0 -52 -30v-22z M300 66l14 -15v22h-14v-7zM300 571q29 0 29 -193l8 -8h7v268q0 39 -22 45h-15v-37zM307 757q5 -44 22 -44h15v260q-18 0 -37 -74v-142zM314 1226l8 -23h22v179q-22 0 -30 -156z" />
<glyph unicode="}" horiz-adv-x="684" d="M14 74v7l18 6l36 -13v37h6l18 -12h184q144 69 144 205v61q0 189 -90 241q-113 89 -113 115q0 39 95 43q167 62 167 78q-94 84 -155 121l-30 43q0 10 108 114q65 126 95 279v6q0 111 -119 302q-62 54 -90 54h-125l-6 30q19 67 102 67h6q196 -30 196 -79q74 0 185 -205 l24 -109q0 -139 -125 -345q-106 -87 -108 -102q28 -23 191 -61q54 -42 54 -66q0 -31 -72 -85v-6l6 -30l-17 -6l-48 6q-70 0 -185 -67v-12q161 -101 161 -230l30 -66q0 -241 -84 -266q-47 -55 -328 -115q-78 0 -131 60zM276 709l12 -12h12q0 18 24 18v18h-18l-30 -6v-18z M300 1791l161 -96h6v6q0 69 -125 97l-36 6l-6 -6v-7zM348 727h24l12 13v6h-36v-19zM402 625l89 -115h6v6q-30 84 -89 115h-6v-6zM414 927q0 -10 89 -73h24l36 37v12q-73 36 -149 36v-12zM426 1671q61 -109 77 -176h6v91q0 50 -72 97h-11v-12zM432 201h5q48 32 48 127v49 q0 26 -24 78h-6v-139zM432 534l11 -12h6l-17 18v-6zM449 141h6q37 0 72 103v60l6 73q-10 0 -42 -151q-10 -2 -42 -85zM449 1132q43 24 48 61h-6l-42 -48v-13zM461 1078q114 92 114 145v6q-52 -44 -114 -145v-6zM473 1229h6q21 5 36 37v72q-9 0 -42 -109zM497 1731l102 -314 v-121q47 43 47 169v18q-12 108 -125 242zM527 1399l12 -49v-18h12v79q0 78 -18 78zM539 1247h18l18 49v12h-12zM610 933q0 -48 48 -48q0 31 -42 54h-6v-6z" />
<glyph unicode="~" horiz-adv-x="1196" d="M4 1493q12 121 101 121h67q74 0 139 -38h22l-5 77v19q0 124 179 173l67 13q29 0 150 -167q3 -125 23 -128h5q9 2 45 122q29 57 73 57h27q55 0 185 -211l56 -135l5 -57q0 -67 -95 -135v-6l45 -96l5 -39v-134l-5 -26l22 -51q-24 -58 -78 -58h-17q-81 0 -190 122h-5l5 -128 v-135q0 -39 -55 -198h5q138 150 268 192h73q78 -28 78 -64q-82 -187 -195 -225q-118 -76 -196 -76h-89q-81 -257 -201 -257l-39 -6l-12 -13h-22v6l190 276q112 169 112 218q33 88 33 122v166h-11q0 -59 -100 -128q-174 0 -174 160v103h-5q-80 -45 -207 -45q-165 47 -201 102 l-5 20q0 164 245 256v13q-98 0 -251 89q-67 95 -67 129zM26 1480h12q0 60 44 96v6h-5q-38 0 -51 -77v-25zM54 1441q160 -118 285 -141h56q29 0 89 39v13q-96 85 -139 179q-105 58 -162 58h-17q-99 0 -112 -141v-7zM99 999l33 -32h17v7q-33 51 -33 83h-11l-6 -45v-13z M138 1031q84 -115 168 -115h33q212 107 212 160l34 167h-6l-45 6l-201 -45q-118 0 -156 -64q-21 -14 -39 -51v-58zM333 1230h23l50 13v12q-73 -4 -73 -25zM350 1621q11 -84 34 -84h11q0 51 -45 116v-32zM378 1678q30 -145 95 -205q43 -19 101 -147l28 -13h5q95 192 95 263 v51q0 130 -156 154h-118q-50 -32 -50 -71v-32zM406 916q45 22 45 32h-6q-30 0 -39 -26v-6zM406 1480q13 -64 50 -64v12q-18 37 -39 52h-11zM462 1288h39l6 6h5l-5 19h-28l-17 -19v-6zM473 954h6l16 7v13l-22 -7v-13zM484 1807h23l95 -7v7l-23 25h-11q-84 -7 -84 -25zM501 44 h6q117 0 189 238v12h-16q-46 -141 -129 -179q-50 -45 -50 -71zM501 1384q17 -42 33 -45l6 6q-19 45 -28 45h-11v-6zM523 801q0 -58 67 -58h56q112 0 112 141v90q0 48 -101 192h-11q-45 -192 -89 -192q-27 -22 -34 -77v-96zM551 1006h6q22 12 22 38h-5q-23 -13 -23 -38z M579 717q0 -25 101 -25l11 19v13l-56 -7h-56zM607 1127h11v20h-11v-20zM680 1300l83 7h62l106 -32h11q106 40 106 83l11 13v154q-46 96 -134 160h-44q-70 0 -157 -295l-44 -70v-20zM696 1166q9 -26 17 -26h6v7l-17 25h-6v-6zM696 1262l140 6h11v13h-123l-28 -6v-13z M708 1493h5l11 12v32h-11l-5 -32v-12zM713 1211q145 -127 145 -193q37 -85 62 -102h28q89 0 89 51v39q-41 153 -78 153l-34 26h-100l-106 38l-6 -6v-6zM724 307q178 39 285 96q59 0 129 141v64l-67 7q-73 0 -174 -103q-29 0 -173 -192v-13zM741 1140q65 -186 117 -186v7 q-33 128 -95 166l-5 20h-17v-7zM775 1236q9 -25 39 -25h61v6q-3 19 -45 19h-55zM842 1698q33 6 33 19h-22l-11 -13v-6zM903 877l17 -19h11v7l-17 19h-11v-7zM903 1243q4 -17 28 -32h61v6q0 17 -44 26h-45zM953 871q19 0 39 -19h62q18 0 22 83v141q0 21 -50 109h-45v-6 q78 -105 78 -193v-19q0 -77 -106 -77v-19zM959 839l11 -13h6v13l-17 6v-6zM981 1262l45 -45h11q84 66 84 122v25l-23 84h-16v-64q0 -63 -101 -122zM1160 563h5l12 13v7l-12 12h-5v-32z" />
<glyph unicode="&#xa1;" horiz-adv-x="682" d="M22 1541v6l7 7q122 68 160 122v13q-54 64 -54 108v41l14 20l26 -7q65 -65 100 -74h14q40 54 53 54l14 -20v-81q113 -84 113 -102l-13 -20l-54 27q-33 0 -40 -20v-162l-13 -21h-7l-6 7q-42 117 -74 149l-33 -7l-180 -61q-27 4 -27 21zM89 487v304q31 266 73 331 q19 197 33 202q27 -6 27 -40h13q175 -274 194 -385q27 -263 80 -392q60 -143 60 -297q0 -32 -93 -142q0 -20 -20 -20l-7 7h-7l-46 -34l-100 20l-34 -27q-31 0 -47 41q-126 124 -126 432zM122 494q0 -231 47 -264v14q-27 146 -27 243v358q-16 0 -20 -41v-310zM175 473 l34 -331v-6l40 -54h6q22 0 27 141q-40 127 -40 196v453q0 72 -33 196q-34 0 -34 -264v-331zM189 1763l33 -47l20 7v20q0 14 -40 20h-13zM255 1676q16 -34 34 -34q0 13 33 13v34l-20 20q-37 0 -47 -33zM262 1007l20 -20v6q0 50 -20 54v-40zM275 399l14 -13v405l-14 13v-405z M309 75l73 -14q83 83 120 230v95l-26 47q-71 62 -147 175v-499l-20 -27v-7zM309 1588h20v27h-20v-27zM316 1054l13 -101v-108q0 -195 107 -311h13q-5 108 -20 108q-36 353 -107 412h-6zM516 210l6 -7l14 14v13h-7l-13 -13v-7z" />
<glyph unicode="&#xa2;" d="M11 408q0 218 162 390q74 164 154 195l86 -7q71 41 239 65q0 12 85 28l17 87h18l8 -43q26 0 43 101h17l8 -36q13 0 52 79l8 7q0 22 17 22h9l8 -36l-51 -246v-14q35 -4 77 -72v-22q-51 0 -51 -65h-17l-34 22h-9q-104 -472 -214 -563q-68 -87 -68 -116v-14l77 -7 q105 11 231 130h17v-15h8l-34 -65q164 56 248 123h8v-15h9q0 -87 -248 -238l-60 -7h-34l-162 22h-103q-58 -90 -154 -152h-17l-8 37l17 57l-43 7l17 72q-125 94 -213 109q-120 71 -120 180zM45 372q53 -137 163 -137v7q-146 113 -146 188v57l-17 -14v-101zM54 516l17 15v14 l-17 -14v-15zM96 415q0 -51 77 -101l9 7h8l-51 87v94q0 37 60 115q40 128 145 210l128 108v14h-76q-161 -90 -265 -281q-35 -135 -35 -209v-44zM225 401q5 -101 59 -101h9v7q0 36 -60 101h-8v-7zM242 509q0 -54 77 -180q25 -63 77 -94h8q231 574 231 628 q-376 -200 -376 -325l-17 -14v-15zM267 661h9q155 177 384 252v15l-85 14q-86 0 -299 -238zM302 928q39 14 42 29v7h-17l-25 -22v-14zM387 -3h17q60 48 60 101h-34q-20 0 -43 -101zM464 199l34 -8l51 159q-38 0 -85 -151zM490 978l34 -7l8 7v22h-25l-17 -14v-8zM524 444 q36 48 60 130v7h-9q-51 -97 -51 -137zM558 249h17q188 243 188 397q31 65 68 246l-8 21h-26q-31 -35 -179 -498q-52 -99 -60 -166zM584 589h8l34 93v8q-25 0 -42 -94v-7zM584 978h102v15l-17 14h-60l-25 -21v-8zM746 105h111l17 14h-128v-14zM823 148h51q45 0 86 36v15 l-137 -36v-15zM840 1043h26l8 36v15h-8q-20 0 -26 -51z" />
<glyph unicode="&#xa3;" d="M-3 496q0 54 102 101l228 -9l70 -37l19 9q-35 249 -76 249q-80 0 -127 55v18q63 12 63 37l-57 9v19l32 9h44v18q-26 83 -63 83h-57v9q10 37 44 37h19q-32 117 -32 184v92q0 192 197 432q15 46 57 46q330 -47 330 -257v-37h-25l-7 64h-12l-19 -18l-13 18v46l-70 28v-9 l114 -175v-28h-6q-131 230 -286 230h-12q-102 -140 -102 -294v-92l76 -221h38l235 46l121 -18v-9q0 -28 -216 -83l-120 -46h-13v-19l19 -27h127l6 9l6 -9h89l32 -9v-10q0 -34 -197 -55l-38 -18l-6 -9v-10q19 -92 19 -211v-138l165 -129q44 -50 152 -101h7q33 0 183 147 q24 0 51 55h7l6 -46v-37h6l19 19l13 -19q0 -136 -152 -211l-32 -83l-44 9h-172q-38 0 -190 74h-13q0 -152 -158 -175h-51q-292 102 -292 322zM22 487q4 -56 19 -56l64 129h-26q-49 -40 -57 -64v-9zM67 293q0 -22 51 -82h12l-51 92h-12v-10zM67 376q9 -38 32 -55h12v110l7 46 h-7q-44 -32 -44 -101zM137 385q0 -92 88 -239h115q59 8 114 129q-28 124 -152 212h-70q-54 0 -95 -92v-10zM232 1250q0 -43 31 -138h26q-32 157 -57 157v-19zM232 1388q17 0 25 92l6 9v28h-12l-19 -101v-28zM263 1305q37 -174 64 -174v128l-19 175v55l6 92q-20 0 -51 -230 v-46zM276 91h13l13 18h-26v-18zM283 864l12 -19h45v10l-13 18h-44v-9zM308 1011q9 -38 32 -55h12v27q0 19 -38 37zM352 1131l13 -19h19v37l-19 64h-13v-82zM365 1057l13 -18h38v18l-13 18h-38v-18zM384 993q6 -37 38 -37h19v27l-13 19h-44v-9zM390 91h64l12 18v46l-12 19 l-64 -74v-9zM416 790q39 -165 50 -165h7q0 102 -51 184h-6v-19zM447 1057l13 -18h57q13 18 178 73v9l-241 -46h-7v-18zM530 275q0 -81 152 -120q0 -18 32 -18h114l13 18l-7 10h-139q-38 0 -146 119h-19v-9zM530 404q43 -62 266 -184h13v18q-159 121 -228 193l-38 28h-13v-55 zM530 1775q70 -13 89 -37h25q0 18 -101 55h-13v-18zM879 174q23 -28 44 -28v19l-19 27h-12zM961 229h13l32 9v28h-26l-19 -28v-9zM974 303h6q64 11 64 36v19l-7 9v9q-56 -35 -63 -64v-9z" />
<glyph unicode="&#xa4;" />
<glyph unicode="&#xa5;" d="M20 1755l16 52l-8 25l8 26h24q34 -60 65 -60q91 -167 402 -411q112 -144 153 -146l330 531l40 43l33 -8l40 42h16v-8q-108 -350 -258 -583q-61 -51 -80 -94v-343h16l105 -17l56 9l40 -26h73l40 -9v-17l-40 -8h-89q-52 -60 -161 -60h-40v-163h8l153 26q0 -47 161 -52v-17 q-85 -34 -226 -43q0 -13 -80 -26v-60q0 -152 -81 -342l-40 -9q-43 53 -80 257v154q0 18 -371 69v9q5 25 65 25h8l298 9v154h-16v9l-8 -9l-121 9q-137 -3 -137 -18l-24 9v9q0 25 129 34l24 77q-24 0 -24 17v9l40 8h137v197l8 43h8q16 0 16 -34h24v17l-177 163h-16v-9 q59 -120 105 -120h8v-34h-17v-8q-37 0 -201 265q-330 304 -330 403l-8 8zM84 1712q379 -453 411 -454l32 -17v9q-150 252 -306 351q-112 120 -137 120v-9zM487 744h8q121 0 121 26v17h-8q-121 -9 -121 -34v-9zM608 1207l24 -35h16v9l-24 26h-16zM648 256q30 -175 64 -206h8 v9q0 273 -48 368h-24v-171zM648 830h16l16 163l-8 8h-8l-16 -17v-154zM672 538h16v26l-16 -17v-9zM720 1138h16v43h-16v-43zM736 821h33v274h-8q-25 0 -25 -180v-94zM769 273l16 17v77l-16 -17v-77zM881 1335q89 107 105 189q-105 -137 -105 -180v-9z" />
<glyph unicode="&#xa6;" horiz-adv-x="532" />
<glyph unicode="&#xa7;" d="M0 1112v57q20 101 107 101q19 19 39 19h15q213 -82 258 -139l58 -51h5q10 13 10 51h4q0 24 -102 63q-33 0 -73 177v32q0 128 88 196q40 0 53 37v7q-144 24 -209 82q0 20 -19 44q0 48 185 70h102q41 -19 122 -26l14 -50q0 -90 -102 -114h-24q86 -111 141 -284l5 -63v-57 q0 -64 -83 -95v-13l44 -57q31 59 126 114q70 63 132 63q57 70 102 70q141 -41 141 -127q0 -163 -54 -189h-77v-6q14 -24 14 -45v-19q-12 -82 -44 -82l-34 -6q-39 0 -68 25h-10v-114q0 -63 -58 -63q23 -156 146 -391v-13q0 -14 -24 -19l-73 6q0 -38 -39 -44h-78v-19l29 -215 h-15l-19 76h-10v-50l10 -19v-7h-10v-6q-19 6 -19 38v95l-34 88l-5 19h-132l-24 -32v-195l-5 -32h-14l-30 32h-9q0 -19 -10 -19q-11 0 -20 57q35 79 35 113v70h-25q-112 39 -112 82l73 354h-48q-88 0 -88 82v38l-49 -7h-39q-43 0 -43 95v13q0 54 14 76v25h-24 q-117 27 -117 101zM19 1093h10q0 62 39 139l-5 6q-44 -29 -44 -69v-76zM49 1099q0 -30 29 -50h58q17 0 34 19h25l5 -25h4l30 6l14 -6v-7q-102 -77 -102 -139v-12q0 -51 34 -51h59q10 0 68 88h14l5 -25l-10 -82v-44q0 -17 39 -25h44q0 35 20 50q0 69 53 265q-11 0 -92 76 q-135 101 -253 101h-30q-48 -71 -48 -132v-7zM273 1775l87 -69h78l117 38q58 0 73 31v19l-58 19h-224q-73 -6 -73 -25v-13zM277 752q17 -38 44 -38h20q0 15 -34 32l-10 37v51l-10 13l-10 -51v-44zM341 1377h9q0 53 44 139l20 76h-10q-30 0 -63 -145v-70zM346 329 q0 -18 58 -38l10 19v19l-34 6v38l-34 -32v-12zM365 1302l10 -13h5l14 164h-9q-20 -61 -20 -120v-31zM375 417h5l19 19h10l5 -32l-10 -38v-12h24v215l15 202h-10q0 -53 -39 -171q-19 -119 -19 -183zM399 1264q0 -25 107 -70h54q58 62 58 108v69q-44 202 -78 202l-82 7 l-44 -76v-32l-15 -170v-38zM428 284h25l39 26q-3 19 -39 19h-5q-20 -11 -20 -45zM448 354l92 -25l103 25h29q92 -25 165 -25v50q-50 218 -107 341q-29 23 -29 70q-115 292 -136 322h-49q-39 -107 -68 -531v-227zM472 63l5 -25h15v126h-5q-15 0 -15 -101zM487 1611l9 -12h35 v12l-15 19h-15zM501 1687q64 5 64 19h-49zM521 284h39q0 16 -20 19zM599 1106q12 -41 24 -45v26q-15 0 -15 19h-9zM599 1200h14q44 35 44 45v94l-14 76h-10l5 -31v-57q0 -60 -39 -127zM604 310h102l-15 19h-78l-9 -13v-6zM652 1080l15 -25h10l170 177v6h-5q-28 -6 -112 -75 q-34 0 -78 -83zM657 1005l78 -184l19 -56h20v6q-20 111 -102 246zM686 246l15 -19l5 7v25h-10zM691 1036q0 -15 73 -158q25 -101 34 -101h10l19 76v57q0 46 15 50q54 -50 73 -50h59l14 19v6q0 70 -34 133v19h5l39 -13h92v101q-10 95 -58 95h-58l-103 -38l-107 -114 q-60 -56 -73 -82zM759 284h73v19h-63l-10 -12v-7zM774 701q21 -50 29 -50h5l-19 69h-15v-19zM808 562q44 -159 54 -164l14 6v7q0 42 -63 170h-5v-19zM813 746h19l15 19v50h-5q-7 0 -29 -63v-6zM857 329h53v12q-20 44 -29 44l-5 -31h-10l-4 6h-5v-31zM939 1283h5l44 12h44 l24 -6v13l-53 19h-20q-44 -13 -44 -32v-6zM1066 1283q44 -52 44 -127l10 13v50q0 52 -54 70v-6z" />
<glyph unicode="&#xa8;" horiz-adv-x="682" d="M6 1691q0 157 71 157q39 -39 118 -39q55 -63 55 -118v-16q0 -55 -142 -118q-102 42 -102 134zM85 1699l23 -24h8v24l-24 23h-7v-23zM430 1754q0 78 87 78h24q96 0 141 -149v-32q0 -62 -63 -62h-55q-66 0 -134 165z" />
<glyph unicode="&#xa9;" horiz-adv-x="1509" d="M15 782v13q0 420 80 466q346 466 492 466q50 0 127 -47l47 7q225 -33 452 -260q262 -305 293 -519v-186q0 -170 -153 -320q-238 -259 -313 -259q-119 0 -140 20l-113 -7h-93q-439 0 -612 380q-67 205 -67 246zM42 769q4 -94 33 -94v54q-13 86 -33 86v-46zM48 922l7 -34h7 v47l-14 13v-26zM82 1075q13 3 113 239q33 30 33 54h-7q-139 -138 -139 -267v-26zM102 575q34 -126 66 -126h7q0 20 13 20q109 -126 193 -126h27q-187 99 -300 312h-6v-80zM115 1041l13 14v13h-13v-27zM128 815q0 -39 93 -206q10 0 47 -73q45 -19 106 -100q108 -93 160 -93 h326q373 34 373 99q113 119 113 346v60q0 125 -140 413q-108 184 -485 306l-47 7h-47q-202 0 -406 -286q-93 -241 -93 -453v-20zM161 635q54 -146 167 -206l7 7v6l-114 120q0 17 -53 87v6h-7v-20zM221 369q0 -55 260 -166l120 -20v6q-64 62 -380 187v-7zM341 862v60 q0 79 67 133q95 211 186 233q64 0 233 -54l40 -59q-7 -27 -40 -27h-140q-156 -42 -213 -133l-26 -60q0 -131 199 -206l133 -7h7q167 51 167 120h13q0 -27 33 -27v-13h7q-58 -151 -160 -193l-47 -14h-59q-400 129 -400 247zM361 1541h7l40 40v6h-7q-29 -16 -40 -46zM368 862 q53 -120 126 -120h14v7q-100 94 -100 233v26h-14q-17 0 -26 -53v-93zM434 1607h20q72 60 207 60v7q0 18 -67 26h-13q-90 -22 -147 -79v-14zM448 316q6 -27 46 -27q149 -98 213 -106h60q-251 133 -286 133h-33zM474 1101h20l207 87v13h-20q-207 -28 -207 -100zM528 1195 l186 33q0 29 -127 33q-16 0 -59 -53v-13zM607 1614h87l-13 13h-60zM614 722q63 -47 147 -47h33q33 0 60 34v6h-167l-73 14v-7zM701 316q0 -23 106 -47h80q100 0 180 67v7q-120 -27 -220 -27h-146zM754 1175h73v6l-20 20h-33l-20 -20v-6zM767 1601q63 0 326 -174h14v7 q-13 21 -107 67q-128 113 -233 113v-13zM827 229h53l14 14h-67v-14zM880 1614q266 -155 366 -293q179 -301 227 -426h6v27q-51 206 -213 406q-155 209 -372 293h-14v-7zM934 176l66 -7h67q46 28 46 40q-145 -6 -179 -20v-13zM954 229h20q106 41 106 67v7q-126 -50 -126 -74z M1060 229q135 0 186 147v6h-6q-30 0 -127 -99l-46 -34h-7v-20zM1093 309h7q30 0 60 53l-7 7q-50 0 -60 -60zM1113 1421l27 -27h7l-27 27h-7zM1260 422h6q20 0 34 67q-12 0 -40 -67zM1286 1148l87 -226v79q-47 154 -80 154zM1320 442h6q140 94 140 227v139q-44 174 -66 174 v-60q0 -308 -80 -473v-7z" />
<glyph unicode="&#xaa;" horiz-adv-x="758" d="M9 764v31l21 111q0 60 60 193q75 135 178 274l111 81l102 21q14 0 77 -51l29 -5v5l9 10h4q81 -139 81 -249q0 -47 55 -329l13 -102l-13 -15v-5l-4 5h-4q-38 -17 -38 -51h-14q-22 0 -67 340q-237 -340 -315 -340h-30l-55 5l-60 -5h-67q-57 0 -73 76zM26 749q24 -41 47 -41 h94q-19 30 -81 51l-51 81h-5l-4 -25v-66zM47 881q0 -53 51 -107h9v6l-21 121v41h-4q-11 -5 -35 -56v-5zM51 942h5q26 25 55 101l17 26v40l-8 10l-69 -152v-25zM103 927q12 0 17 51v25h-9l-8 -61v-15zM120 835q14 -30 38 -30h34v15q-13 0 -64 76h-4l-4 -35v-26zM124 780 l12 -16h64l13 16v4h-46l-43 11v-15zM136 937q0 -56 90 -127q60 0 268 193q68 113 68 208v106q0 38 -47 87h-77q-83 -39 -225 -219q-42 -64 -77 -223v-25zM158 1140h4q9 2 43 81l132 152l4 6v4h-9q-129 -105 -174 -218v-25zM171 739q0 -11 38 -21q64 32 68 46v16h-4l-85 -36 h-17v-5zM243 708h59q27 0 111 87l13 20h-9l-76 -35h-30q-47 -62 -68 -62v-10zM294 799h8q153 75 192 153l17 30h-9q-83 -81 -204 -167l-4 -5v-11zM430 850h4l9 11v4l-13 -4v-11zM575 1358l8 -10h4v31h-12v-21zM605 1251l12 -15v5q0 91 -12 91v-81zM638 1059q6 -97 22 -97v5 l-13 76v16h-9zM655 1211l9 -11v26h-9v-15zM664 769l8 -45h9v35l-9 21h-8v-11zM685 921q3 -86 17 -86v46q0 38 -17 46v-6z" />
<glyph unicode="&#xab;" d="M17 935q91 228 352 463l222 194h10v-37l-167 -259q-230 -229 -269 -352q145 -111 176 -213l297 -296l83 -93v-9h-9q-39 0 -176 139l-10 9h-9v-9q14 -52 121 -158v-9q-69 0 -176 176q-132 82 -250 213l-186 213zM100 972h19l28 28v18h-10l-37 -37v-9zM119 898 q0 -74 74 -74h19l9 9h9q0 43 -111 83v-18zM156 1111h18l102 111v28q-91 -55 -120 -139zM304 648q17 -34 56 -47v19q-18 33 -56 46v-18zM434 1370l28 28v9h-10l-18 -18v-19zM508 963l213 296q237 306 269 306h9l18 -19l-92 -130v-18q51 46 139 194l9 10h18 q-30 -105 -379 -584v-18q2 -21 176 -167q59 -136 259 -426v-28h-28l-380 380q-160 194 -194 194l-19 -18h-9zM610 1000q0 -21 46 -28v28l-28 27l-18 -18v-9zM675 1046h27q0 24 93 157v19q-27 -2 -120 -176zM814 1240l18 19v9l-18 -18v-10zM860 1305h18l28 65q-27 -7 -46 -65 z" />
<glyph unicode="&#xac;" horiz-adv-x="1196" d="M8 776v8q0 17 25 17v8q0 28 -25 59q31 51 74 51l140 -9q130 0 262 34h9v-25q-66 -10 -66 -34h90q66 0 156 42l99 -8h164q29 0 58 -34h8l66 17l98 -51q33 -35 33 -84v-278l-25 -25l-16 25v287h-16v-219q-25 -22 -25 -68l-25 -17l-16 43h-25q0 -34 -33 -43l-16 34l16 110 v84h-33q-296 0 -468 25h-222q-30 0 -65 42h-181zM57 835l25 -26l279 -8h17v17h-33q-29 0 -58 33h-230v-16zM493 767h65q74 17 74 42h-65l-74 -25v-17zM640 750l99 -8h16q42 34 148 67v9h-131q-66 -51 -132 -51v-17zM772 877l16 -17h140v17h-156zM895 742h123v25h-65l-58 -8 v-17zM1051 835l17 -17v25h-17v-8zM1059 582h17v109h-17v-109z" />
<glyph unicode="&#xad;" horiz-adv-x="682" d="M11 861v7q0 14 21 14v7q0 24 -21 49q26 43 64 43l120 -7q112 0 226 28h7v-21q-57 -9 -57 -28h78l169 35v-14l-7 -7v-7l71 -36v-14q0 -29 -127 -56v-14l113 -15v-14l-35 -7h-50l-134 14h-191q-26 0 -56 36h-156zM53 910l22 -21l240 -7h14v14h-28q-25 0 -50 28h-198v-14z M428 854h56q64 14 64 35h-57l-63 -21v-14z" />
<glyph unicode="&#xae;" horiz-adv-x="1509" d="M7 756q0 419 80 465q344 464 491 464q49 0 126 -46l46 6q225 -33 451 -259q261 -304 292 -517v-186q0 -169 -152 -318q-237 -259 -312 -259q-118 0 -140 20l-112 -7h-93q-482 0 -631 445q-46 125 -46 192zM34 730q53 -282 205 -438q177 -146 418 -146h100l-445 212 q-159 101 -259 392q-10 26 -19 26v-46zM40 882l7 -33h6v47l-13 13v-27zM73 962q0 -106 20 -106q7 167 126 471h-6q-140 -138 -140 -266v-99zM120 776q0 -39 93 -206q10 0 46 -73q45 -18 106 -99q108 -93 159 -93h326q371 34 371 100q113 118 113 345v59q0 138 -153 431 q-122 186 -544 306h-59q-300 -118 -339 -246q-119 -253 -119 -504v-20zM153 597q54 -146 166 -206l6 7v7l-112 119q0 17 -53 86v7h-7v-20zM352 1499h7l39 40v7h-6q-29 -17 -40 -47zM425 1566h20q72 59 206 59v7q0 18 -67 26h-13q-89 -22 -146 -79v-13zM505 1068q0 42 19 93 l-6 46h6l40 -6q91 79 140 79h13q232 -43 232 -99q93 -127 93 -186v-20q-20 -146 -126 -146h-20l-60 13l-6 -6v-7q185 -186 265 -186l13 -53l-46 -20q-57 0 -239 160l-66 46q-65 20 -87 40h-13v-7l7 -106l-7 -20h-13l-7 7h-6v-106l-7 -33h-13q-20 47 -53 404q-19 0 -53 113z M551 1148l7 -20q25 0 79 93h-13q-22 0 -73 -73zM584 278q0 -25 246 -86h132q108 36 186 133l-7 7q-163 -54 -305 -54h-252zM584 955h13v53l-13 14v-67zM597 1572h87l-14 13h-59zM624 1015q0 -100 46 -100l166 -46h7q64 11 133 99l6 7v86q0 93 -166 166l-59 7h-7 q-55 0 -126 -73v-146zM644 1221h13l47 33h-27q0 -14 -26 -14l-7 -6v-13zM670 849q0 -32 140 -53v7q-3 17 -133 59h-7v-13zM757 1559q63 0 325 -173h13v7q-12 21 -106 66q-128 113 -232 113v-13zM869 1572q266 -154 365 -292q178 -299 226 -424h7v26q-52 206 -213 405 q-155 209 -371 292h-14v-7zM896 862l7 -6h46q66 49 66 93v19h-6q-45 -58 -113 -106zM923 139l66 -6h66q47 27 47 39q-145 -6 -179 -20v-13zM1049 192q134 0 185 146v7h-6q-30 0 -126 -100l-47 -33h-6v-20zM1102 1380l26 -27h7l-27 27h-6zM1248 385h6q20 0 33 66 q-11 0 -39 -66zM1274 1108l86 -226v80q-46 152 -79 152zM1307 405h7q139 92 139 225v139q-43 173 -66 173v-60q0 -306 -80 -471v-6z" />
<glyph unicode="&#xaf;" horiz-adv-x="1131" />
<glyph unicode="&#xb0;" horiz-adv-x="819" d="M6 1475v36q0 230 180 306q114 36 171 36h18q423 -147 423 -315l18 -81q0 -207 -135 -207q-80 -81 -153 -81h-45q-477 104 -477 306zM42 1439q16 -86 288 -207l126 -27h90q81 18 81 45v9h-108q-162 0 -387 171q-54 54 -54 144v63q-25 0 -36 -90v-108zM141 1529 q0 -133 333 -207h126q67 0 135 108v63q-61 234 -234 234l-189 27h-90q-81 -70 -81 -135v-90zM276 1790h90v9l-45 9h-45v-18z" />
<glyph unicode="&#xb1;" horiz-adv-x="1124" d="M3 107v8q0 14 35 14v7q0 25 -35 51q43 45 106 45l199 -7q186 0 375 29h12v-22q-95 -9 -95 -29h130l280 36v-14l-12 -7v-8l118 -37v-15q0 -30 -211 -58v-15l188 -15v-15l-58 -7h-83l-222 15h-317q-43 0 -93 37h-259zM5 614v15l38 9h109l-7 7v24l396 31v420l8 38h16 q23 -342 38 -342v141q0 33 40 54l22 100h16l7 -38v-366h9q181 0 349 40l39 -8v-23l-31 -9q0 -15 62 -22v-9q0 -38 -16 -38l8 -9v-22l-124 -39h-70q-92 0 -202 -31h-31l-47 -350h-15l-16 163l-15 -15v-32l-23 -147h-16l-8 38v359zM73 158l36 -22l398 -7h23v15h-46 q-41 0 -83 29h-328v-15zM324 622l116 7h94v16h-195l-15 -16v-7zM487 599l15 -15h32v15h-47zM634 568h24v31h-24v-31zM634 707h24v109q-24 0 -24 -85v-24zM688 568h55l16 16v7h-71v-23zM695 100h93q106 15 106 36h-95l-104 -21v-15zM697 622h38l-16 16h-22v-16zM883 645 l101 -16h70l15 16v16l-109 24q-77 -26 -77 -40z" />
<glyph unicode="&#xb2;" horiz-adv-x="682" />
<glyph unicode="&#xb3;" horiz-adv-x="682" />
<glyph unicode="&#xb4;" horiz-adv-x="682" d="M37 1412q92 88 174 266l132 153q111 -51 184 -51l61 20q41 -10 41 -61v-41h51v-10q-68 -72 -235 -184q-172 -149 -316 -163q-46 0 -92 71zM149 1402q51 0 72 51v11h-31l-41 -41v-21zM231 1606q54 0 153 113l51 20v21l-92 20l-112 -143v-31zM251 1423l11 -11l316 235v31 h-31l-285 -235l-11 -10v-10zM384 1657h10q52 0 123 62v10h-10q-123 -34 -123 -72z" />
<glyph unicode="&#xb5;" horiz-adv-x="1180" d="M9 -55l29 19h86q76 0 76 107v1010l29 29l19 -20h19q5 39 29 39q23 -54 67 -97v-301q77 -253 182 -253h47q106 0 259 389v214l47 38q0 49 58 49q51 0 105 -359l115 -379l-29 -19v9l-57 -29l-58 29l-9 -9h-10q-57 19 -57 38l29 49l-20 126h-28q-201 -243 -345 -243h-67 q-61 0 -114 49h-58v-466q-27 -243 -86 -243h-28q-192 34 -192 156v39q-38 0 -38 29zM114 -133v-19q0 -42 134 -78q23 0 29 68h-10q-48 0 -48 29l20 78h-10q-35 -78 -115 -78zM277 411l19 19v39h-19v-58zM286 -36v-39l19 20v39zM286 595l29 -39h10q-19 44 -39 49v-10z M296 741h19v155h-19v-155zM325 537l19 -20h9v10l-19 19h-9v-9zM889 673h9q67 58 67 107q-38 140 -38 320h-29v-379z" />
<glyph unicode="&#xb6;" horiz-adv-x="1100" d="M0 1316l11 61q154 -52 341 -184l110 -33h17q22 10 22 74h5q0 26 -115 68q-38 0 -83 190v34l11 101q-49 49 -49 109v75q3 40 16 40l11 -13l6 6h11q63 -81 115 -94v-14h6l66 68q40 -16 77 -54q62 0 110 108h17l11 -170q0 -13 -61 -67q55 -149 55 -204v-61q0 -68 -93 -102 v-13q27 -48 49 -48q51 0 341 231q28 0 77 47h11l6 -27q-34 -141 -110 -237v-14q17 0 88 -88q0 -33 -182 -40q0 -55 -38 -156l-17 -88q72 -291 182 -468v-14q0 -15 -28 -20l-82 6q0 -40 -44 -47h-88v-20l33 -231h-17l-22 81h-11v-54l11 -20v-7h-11v-7q-22 7 -22 41v102 l-38 95l-6 20h-148l-28 -34v-210l-6 -34h-16l-33 34h-11q0 -20 -11 -20q-12 0 -22 61q38 85 38 122v74h-27q-127 42 -127 88l28 129h-88q-93 0 -143 170v7q0 25 55 122l5 61l-27 13q-12 -27 -28 -27q-33 14 -33 54v68q0 28 28 54v21q-17 0 -17 13v21q39 45 39 95v13 q-103 143 -127 143zM55 1316q61 -14 83 -34h11v6q-60 41 -94 41v-13zM132 644q13 -40 165 -95q0 -17 44 -27l66 251v20h-11v7l-5 -7h-6q-38 0 -71 238h-6q-18 0 -60 -41h-11l-61 14q-33 -16 -33 -28q13 -2 39 -40l-22 -48q38 -19 38 -74v-27q0 -28 -66 -102v-41zM132 1058 l6 -21h49q23 28 44 28h66q47 0 66 -150l28 -88h5q18 0 66 272v13l-302 136l-6 6h-16v-13l44 -41q0 -20 -39 -95zM171 570q0 -27 66 -55h44v7q0 18 -110 48zM220 1017h22l11 14v6h-33v-20zM292 1743q0 -34 38 -82q23 10 33 34v7q-55 48 -55 75h-16v-34zM330 1478h11 q0 56 50 149l16 61l-5 7h-6q-38 -22 -38 -54l5 -20h-5q-28 -11 -28 -68v-75zM336 353q0 -19 66 -41l11 20v21l-39 6v41l-38 -34v-13zM358 1397l11 -14h5l17 177h-11q-22 -66 -22 -129v-34zM369 448h5l22 20h11l6 -34l-11 -41v-13h27v230l17 217h-11q0 -56 -44 -183l-22 -149 l5 -27zM396 1356q0 -26 121 -74h61q66 66 66 115v74q-50 217 -88 217l-94 7l-49 -81v-34l-17 -183v-41zM429 305h28l44 27q-3 21 -44 21h-6q-22 -11 -22 -48zM451 380l105 -27l116 27h33q104 -27 187 -27v54q-68 297 -154 407q0 74 -50 74v7q0 14 17 14v6q-91 250 -127 278 h-50q-44 -114 -77 -569v-244zM479 68l5 -27h17v135h-6q-16 0 -16 -108zM495 1729l11 -13h39v13l-17 21h-16zM534 305h44q0 17 -22 20zM600 1716l17 -21h22q26 16 49 55v47h-5q-54 -68 -83 -68v-13zM622 1288h17q49 37 49 48v102l-16 81h-11l5 -34v-61q0 -65 -44 -136z M628 332h115l-16 21h-88l-11 -14v-7zM633 1661l17 -6q40 25 44 40v7q-26 0 -61 -41zM688 1078q44 -129 116 -217l5 7q-16 82 -104 224zM688 1146q36 -32 77 -122q21 -23 61 -122h5v190q0 40 33 40h6l82 -27h39v7q-55 54 -55 68v20q65 65 93 156h-5q-30 0 -292 -190 q-40 0 -44 -20zM721 264l17 -20l5 7v27h-11zM804 305h82v20h-71l-11 -13v-7zM820 753q25 -55 33 -55h6l-22 75h-17v-20zM853 983h11l11 61v14l-11 13h-11v-88zM859 604q49 -172 60 -177l17 7v7q-1 46 -72 183h-5v-20zM914 353h60v13q-23 48 -33 48l-5 -34h-11l-6 7h-5v-34z M969 1173q12 -28 49 -47l6 6v7q-29 34 -50 34h-5zM980 1370h5l17 7v6h-6l-16 -6v-7zM1046 1397l5 -20h11l6 33v14h-6q-13 0 -16 -27z" />
<glyph unicode="&#xb7;" horiz-adv-x="569" />
<glyph unicode="&#xb8;" horiz-adv-x="682" />
<glyph unicode="&#xb9;" horiz-adv-x="682" />
<glyph unicode="&#xba;" horiz-adv-x="748" d="M-1 1169v33q0 211 165 281q105 33 157 33h16q388 -135 388 -289l17 -74q0 -190 -124 -190q-73 -74 -140 -74h-41q-438 95 -438 280zM32 1136q15 -79 264 -190l116 -24h82q75 16 75 41v8h-99q-149 0 -355 157q-50 50 -50 132v58q-23 0 -33 -83v-99zM123 1219 q0 -122 305 -190h116q61 0 124 99v58q-56 214 -215 214l-173 25h-83q-74 -64 -74 -124v-82zM247 1458h82v8l-41 9h-41v-17z" />
<glyph unicode="&#xbb;" d="M16 430v27q189 276 270 441q76 33 153 135v9l-333 486l-36 90h9q34 -24 135 -189l9 -9h9v18q-90 107 -90 135l9 9h18q158 -137 423 -522q27 -7 45 -63l-9 -27h-9l-27 18l-216 -225l-333 -333h-27zM250 1384l27 -54h18q-18 56 -45 63v-9zM322 1285l18 -18v9l-18 18v-9z M358 1231q90 -130 90 -153h27v9q-99 162 -117 162v-18zM430 385v9q53 71 306 306q0 18 81 99q0 60 153 180q0 50 -189 270q-121 123 -207 297l-27 27v36h9q522 -447 522 -585l36 -45q0 -45 -216 -261q-47 -84 -207 -180q-100 -165 -180 -180v9q117 117 117 162 q-162 -144 -180 -144h-18zM493 1006h9l36 27v9l-18 18l-27 -27v-27zM682 1420l27 -27v18l-18 18h-9v-9zM781 646q37 12 54 45v18q-37 -12 -54 -45v-18zM862 1249l99 -108h18v9q-50 93 -117 126v-27zM907 871l9 -9h27q72 0 72 72v18h-9q-93 -42 -99 -81zM988 1033l27 -27h18 v9l-36 36h-9v-18z" />
<glyph unicode="&#xbc;" horiz-adv-x="1708" d="M15 239q0 90 193 144q18 41 242 261l213 288q62 48 358 404l552 486h9v-18l-174 -180h10q223 118 261 153q29 -9 29 -54v-81q-51 -203 -329 -396q-63 0 -310 -279q-1 -43 -561 -548q-172 -101 -280 -315q-62 -90 -78 -90h-19q-116 88 -116 225zM54 221h9l107 90v18h-29 q-87 -40 -87 -90v-18zM54 1354v18l48 9h261v351h-19l-126 -135h-19l-10 27q38 105 203 234h10q68 -51 68 -135v-315h9l97 9l58 -18l39 9l29 -9v-9q0 -22 -252 -63q-45 -36 -96 -36l-49 27l-126 -9q-25 0 -58 36zM63 176q0 -47 68 -126q32 0 155 216h-19l-136 -99h-19l-29 18 h-20v-9zM257 311h10l125 99v9h-9q-117 -74 -126 -108zM305 446h10l29 27v9zM373 509h10l48 45v9h-10zM402 1399h29v90q0 47 -29 54v-144zM402 1714l10 -63h19v108l-19 18h-10v-63zM508 644l20 18v9l-20 -18v-9zM557 707h9q218 186 387 476v9q-16 0 -319 -350zM654 635h9 q319 225 319 314q-33 -3 -328 -296v-18zM750 797q298 270 387 305l445 549l-9 9h-10q-312 -267 -358 -396l-455 -440v-27zM905 1030h10q175 113 396 441l58 63h-29q-206 -143 -435 -486v-18zM1079 248v18q10 27 58 27v9q0 93 155 459l10 63h19l10 -45v-72l9 9h29l10 -27 l-116 -369h-10l10 -27h106q0 102 49 144h29l19 -144h39q145 0 145 -36q0 -27 -87 -45h-107v-63q0 -45 -19 -45q-48 0 -48 99q-51 18 -203 18h-29zM1176 302h10q23 0 77 225v9q-53 0 -87 -207v-27zM1369 1282h10q200 147 290 324v54h-29q-207 -256 -271 -369v-9z" />
<glyph unicode="&#xbd;" horiz-adv-x="1708" d="M15 238q0 90 193 144q18 41 242 261l213 288q62 48 358 405l552 486h9v-18l-174 -180h10q223 117 261 153q29 -9 29 -54v-81q-51 -203 -329 -396q-63 0 -310 -279q-1 -44 -561 -549q-172 -101 -280 -315q-62 -90 -78 -90h-19q-116 88 -116 225zM54 220h9l107 90v18h-29 q-87 -39 -87 -90v-18zM54 1354v18l48 9h261v351h-19l-126 -135h-19l-10 27q38 105 203 234h10q68 -51 68 -135v-315h9l97 9l58 -18l39 9l29 -9v-9q0 -22 -252 -63q-45 -36 -96 -36l-49 27l-126 -9q-25 0 -58 36zM63 175q0 -47 68 -126q32 0 155 216h-19l-136 -99h-19l-29 18 h-20v-9zM257 310h10l125 99v9h-9q-117 -74 -126 -108zM305 445h10l29 27v9zM373 508h10l48 45v9h-10zM402 1399h29v90q0 47 -29 54v-144zM402 1714l10 -63h19v108l-19 18h-10v-63zM508 643l20 18v9l-20 -18v-9zM557 706h9q218 186 387 477v9q-16 0 -319 -351zM654 634h9 q319 226 319 315q-33 -4 -328 -297v-18zM750 796q298 271 387 306l445 549l-9 9h-10q-312 -267 -358 -396l-455 -441v-27zM905 1030h10q175 113 396 441l58 63h-29q-206 -144 -435 -486v-18zM1099 85v18q99 99 232 153q184 164 184 252v72q0 53 -59 90q-87 -63 -212 -117 v-18h-10l-39 18l-29 -9v9q0 93 252 189q203 -27 203 -153v-54q0 -278 -223 -342v-9h223q46 0 77 -54v-9q-61 -57 -125 -63h-136l-106 -18h-29l-107 45h-9l-78 -9zM1311 166h10l29 27h-39v-27zM1311 625h10q39 14 39 27v9h-10l-39 -27v-9zM1360 94h48q203 31 203 54h-87 q-136 0 -164 -54zM1369 1282h10q200 146 290 324v54h-29q-207 -256 -271 -369v-9zM1379 238h19q44 0 97 45v9h-19q-20 0 -20 -27h-48zM1476 337h9q47 0 68 45v63q-29 0 -77 -108zM1553 580h29v45h-29v-45z" />
<glyph unicode="&#xbe;" horiz-adv-x="1708" d="M15 231q0 87 193 140q18 39 242 252l213 278q62 47 358 392l552 469h9v-17l-174 -174h10q223 114 261 148q29 -9 29 -52v-79q-51 -196 -329 -382q-63 0 -310 -270q-1 -42 -561 -531q-172 -97 -280 -304q-62 -87 -78 -87h-19q-116 85 -116 217zM54 214h9l107 87v17h-29 q-87 -38 -87 -87v-17zM63 171q0 -46 68 -122q32 0 155 209h-19l-136 -96h-19l-29 17h-20v-8zM228 1823v9l48 9h78l309 17l29 -9v-17q-122 -148 -155 -148v-17h10l116 26q126 0 126 -174v-44q-65 -148 -232 -148q-102 0 -213 79v52h10q90 -52 125 -52h204q58 30 58 78v43 q0 29 -155 53h-49q-35 0 -164 -53h-10q0 35 -38 35v9q126 157 212 157l20 26v8l-49 9h-96l-116 -9v9l-10 -9h-29q0 41 -29 61zM257 301h10l125 96v8h-9q-117 -71 -126 -104zM305 432h10l29 26v8zM373 492h10l48 44v9h-10zM402 1597h29v9l-19 17l-10 -9v-17zM508 623l20 17v9 l-20 -17v-9zM557 684h9q218 180 387 461v8q-16 0 -319 -339zM557 1614l164 -26v9q-23 52 -58 52q-106 -13 -106 -35zM654 614h9q319 218 319 305q-33 -4 -328 -287v-18zM750 771q298 262 387 295l445 531l-9 9h-10q-312 -258 -358 -383l-455 -426v-26zM905 997h10 q175 109 396 426l58 61h-29q-206 -139 -435 -470v-17zM1079 240v18q10 26 58 26v8q0 91 155 444l10 61h19l10 -44v-69l9 8h29l10 -26l-116 -356h-10l10 -26h106q0 99 49 139h29l19 -139h39q145 0 145 -35q0 -26 -87 -44h-107v-61q0 -43 -19 -43q-48 0 -48 96q-51 17 -203 17 h-29zM1176 292h10q23 0 77 218v8q-53 0 -87 -200v-26zM1369 1240h10q200 142 290 314v52h-29q-207 -248 -271 -357v-9z" />
<glyph unicode="&#xbf;" horiz-adv-x="1251" d="M28 339v6l7 24v6l37 -12l112 -135q82 -64 288 -98h178l67 19l141 79q155 139 155 221v80q0 47 -67 110q-220 48 -274 73q-324 70 -407 117v6h44v37q0 72 37 239v98q0 36 38 36v74q11 67 37 67h14l82 -36q24 0 29 -74l-7 -24v-178l-15 -98v-12q197 -73 445 -221 q170 -163 170 -331v-43q0 -108 -133 -226q0 -47 -252 -74q-145 -55 -215 -55h-200q-217 0 -267 147q-7 104 -44 178zM95 173l29 -43q5 -91 260 -91h177q38 0 97 24q0 9 -30 18l-67 -6h-133q-219 43 -319 123h-14v-25zM191 167h15v6l-15 13v-19zM213 1570v6l8 6 q135 62 177 111v12q-59 57 -59 98v37l15 18l30 -6q71 -59 111 -68h14q45 49 60 49l15 -18v-73q125 -76 125 -92l-14 -19l-60 25q-37 0 -44 -19v-147l-15 -18h-7l-8 6q-46 106 -81 135l-37 -6l-200 -55q-30 3 -30 18zM339 817l104 -25h7v12q-22 27 -96 49zM339 915 q32 0 37 61v6l-15 12h-7l-15 -73v-6zM376 884l59 -43h15v25l-59 49l-15 -13v-18zM376 1092q0 -45 22 -49h8q-6 80 -30 80v-31zM398 1772l37 -43l23 6v19q0 12 -45 18h-15zM421 1111h14v30l-14 -12v-18zM428 1209l7 -7l23 19v24h-30v-36zM435 1337l23 -6h7v19h-30v-13z M472 1693q18 -31 37 -31q0 12 37 12v31l-22 18q-41 0 -52 -30zM480 823q133 -36 133 -62q0 -22 230 -73h15q0 18 -97 43q-193 141 -281 141v-49zM480 945l52 -37h14l8 19h-8l-7 6q-35 41 -59 43v-31zM532 1613h22v24h-22v-24zM643 866q99 -80 229 -111h15v6 q-183 117 -244 117v-12zM702 94h30q54 0 59 18v6l-89 -12v-12zM872 112h52q185 132 185 233v98l-7 61h-15l8 -122q0 -32 -23 -56q-52 -118 -200 -208v-6zM946 688l89 -92h8v6q-39 58 -89 86h-8zM969 222l14 13v12l-14 -12v-13zM1028 333l15 12v37h-8l-7 -31v-18z" />
<glyph unicode="&#xc0;" horiz-adv-x="1366" />
<glyph unicode="&#xc1;" horiz-adv-x="1366" />
<glyph unicode="&#xc2;" horiz-adv-x="1366" />
<glyph unicode="&#xc3;" horiz-adv-x="1366" />
<glyph unicode="&#xc4;" horiz-adv-x="1366" d="M9 30q68 171 68 250q24 0 34 93q35 19 35 125q49 56 76 389q123 512 214 600l17 -31h25v15h9l-9 8v16l17 23q112 -29 231 -218q99 -33 188 -234q179 -210 290 -413l153 -412l-17 -47l26 -94l-17 -15q-36 0 -162 343q-123 171 -137 171h-17v-23q162 -225 162 -437v-7 l-25 -24q-60 52 -180 351l-85 117q-68 0 -145 23h-239q-213 0 -213 -39l-94 -273q-38 0 -94 -179q-76 -101 -94 -101zM86 1697q0 156 77 156q42 -39 128 -39q59 -62 59 -117v-15q0 -55 -153 -117q-111 41 -111 132zM171 1705l26 -23h8v23l-25 23h-9v-23zM257 833l17 15v16 l-17 -16v-15zM342 638h8l154 15q0 24 -145 47h-9l-8 -39v-23zM385 957h8q15 0 85 343v8h-8q-48 -86 -85 -351zM393 755h85q130 0 359 -31v7q-205 445 -273 483h-17q0 -116 -154 -459zM547 1760q0 77 94 77h25q104 0 154 -148v-31q0 -62 -68 -62h-60q-72 0 -145 164z M564 1316q0 -39 34 -47v15q-9 47 -26 47h-8v-15zM700 1191q277 -541 308 -553h8v8l-205 436q-40 24 -68 86l-34 31h-9v-8zM820 646l42 -8h18v23q0 16 -26 16q-34 -12 -34 -24v-7z" />
<glyph unicode="&#xc5;" horiz-adv-x="1366" d="M17 38q68 171 68 250q23 0 76 218q43 87 68 405l136 475v8q-195 138 -195 272v31q0 117 102 117q0 19 169 39h43q254 -56 254 -156v-233q-6 -78 -51 -78v-16q6 -26 144 -140q51 -109 280 -413q112 -154 247 -568l-17 -47l25 -94l-17 -15q-36 0 -161 343 q-123 171 -136 171h-17v-23q161 -225 161 -437v-7l-25 -24q-59 52 -178 351l-85 117q-68 0 -144 23h-238q-212 0 -212 -39l-93 -273q-38 0 -94 -179q-76 -101 -93 -101zM255 1674l25 -70h25v54l17 86h-17q-50 -27 -50 -70zM263 841l17 15v16l-17 -16v-15zM288 1526l60 -62 l8 7q-14 35 -59 63h-9v-8zM348 646h8l153 15q0 24 -144 47h-9l-8 -39v-23zM348 1596q0 -48 119 -101h17l17 31q73 -31 118 -70q77 68 77 195q-122 132 -221 132h-34q-69 0 -93 -140v-47zM390 965h9q15 0 85 343v8h-9q-47 -86 -85 -351zM399 763h85q129 0 356 -31v7 q-203 444 -272 483h-16q0 -116 -153 -459zM568 1323q0 -39 34 -46v15q-8 47 -25 47h-9v-16zM704 1199q275 -541 306 -553h8v8l-203 436q-40 24 -68 85l-34 32h-9v-8zM823 654l42 -8h17v23q0 16 -25 16q-34 -12 -34 -24v-7z" />
<glyph unicode="&#xc6;" horiz-adv-x="2048" d="M7 186v29l151 545q-72 21 -72 64l7 8q0 23 72 28q0 26 43 36v29h-72l-21 21l21 15h79q55 93 179 437q35 31 151 251q53 89 215 144l22 -15l28 15l15 -43h50l-7 79l21 14l29 -93h14l674 7q54 29 158 29h137q16 0 28 -51q0 -23 -100 -43q0 -14 -122 -14q-93 -57 -144 -57 h-272q-299 -16 -359 -43l15 -201v-251l-8 -144l237 -28h373l22 -22l-144 -29v-7l201 -14l29 14l14 -21v-7l-21 -22h-44q-47 -72 -100 -72h-179l-388 36l15 -602l43 -15h445l136 15h323q86 0 86 -43h35l22 -15q0 -31 -93 -50h-137q-210 0 -545 -79l-86 -7h-50 q-120 36 -179 36q0 -36 -22 -36q-21 0 -21 43l-22 7l-7 -7q0 21 -179 72l-15 36l22 14l7 -7l65 50q0 231 -22 387v165h-7l-179 -21h-65l-158 7l-129 -273q-86 -283 -179 -466h-7l-22 15l36 129q-43 0 -43 21zM64 208h15l28 100h-7q-14 0 -36 -100zM115 351q48 82 157 402v7 h-35q-79 -86 -79 -230l-36 -143l-7 -7v-29zM258 796h22q21 7 21 43h-21l-22 -22v-21zM272 961h15q119 107 265 495l108 201q14 0 28 50h-21q-54 0 -258 -388zM380 796l108 -7h86q186 0 186 64v7h-21l-115 15h-136q-108 0 -108 -58v-21zM445 961h107q46 0 194 43h14v251 q-21 140 -29 402h-7q-109 -168 -165 -395l-114 -294v-7zM688 939l43 -14h29v29h-57zM796 624l21 -316q51 64 51 151l-7 351h-15q-38 0 -50 -29v-157zM796 939l14 -14l15 21l-8 8h-21v-15zM796 1011l14 -14h15v14h7q-20 79 -36 79v-79zM825 1635l14 -14h7l50 7v29h-57 l-14 -15v-7zM832 1692h43v15h-43v-15zM839 1556q29 -290 65 -452h7v266l-15 208h-14q-26 0 -43 -22zM932 1635h7q53 0 58 22h-65v-22zM932 1692h194l14 15h-208v-15zM947 932h21l-14 14h-7v-14zM961 143h165l14 14h-179v-14zM1018 100q8 -21 43 -21h259q37 0 43 21h-345z M1040 839l294 -29h151q37 0 43 22v14q-215 29 -309 29l-179 -22v-14zM1513 1657h43l72 21v14q-115 -12 -115 -35zM1549 157l122 -7q136 0 136 22h-258v-15zM1650 1700h14l21 21h-35v-21z" />
<glyph unicode="&#xc7;" horiz-adv-x="1479" d="M4 546v93q0 79 17 121l-8 149v195q9 180 161 400h17q45 129 511 335l102 19h68l213 -37q76 -53 76 -93q-119 -103 -170 -103q-85 0 -179 28q-339 -228 -459 -353l-34 -66v-55q76 -316 221 -605q279 -168 391 -168q195 -74 273 -74h8l51 18l26 -9q109 68 161 186l9 9 l17 -27v-66l-34 -111l17 -37q-56 -153 -187 -233q-85 -56 -145 -56h-119q-156 37 -255 37q-52 53 -298 84q-202 66 -272 214q-10 39 -162 121zM47 555q13 -84 68 -84v10q-37 121 -68 121v-47zM64 797l17 -19v47l-17 -19v-9zM132 1048q85 163 85 317h-26q-59 -164 -59 -317z M157 620q0 -96 187 -223h26q-79 158 -179 558v10q-34 0 -34 -224v-121zM259 955q32 -195 94 -195v9q-68 196 -94 196v-10zM319 257q91 -74 161 -74h9v9l-170 84v-19zM327 639q63 -197 162 -307l128 -37l8 9v9q-56 55 -162 261l-136 83v-18zM361 732q13 -37 26 -37h8v18 l-25 28zM370 1402l357 251v19q-5 28 -68 28q-115 0 -289 -270v-28zM608 462q114 -214 332 -214l77 -9l102 37v19q-385 95 -477 167l-25 9zM634 229q4 -32 127 -74l51 9v10q-39 65 -178 65v-10zM639 189l7 15h7l42 -52l7 -4l36 4h35q54 0 71 -98l7 -41v-67h14v-5l7 5h36 q116 0 191 -223l-7 -46l14 -16v-10q-57 -84 -135 -84q-256 0 -290 110q-21 18 -21 35h14l21 -9h7q15 0 15 26h7q28 0 155 -63h43q85 0 85 20v73q0 72 -206 120q-70 0 -106 -26h-14v30l-28 161v26l7 56zM681 18l14 -10v36l-14 10v-36zM702 -54v-15h29l7 26v15zM702 132 q6 -58 22 -58l14 11v47h-36zM724 -334v-5q14 -32 56 -32v6q-2 13 -49 36zM766 116h21v16h-21v-16zM773 -2v-26h14v26h-14zM801 23l22 -5v20q0 27 -22 32v-47zM830 -355l7 -16h85l14 11v5h-106zM837 -111l106 -31v15q-23 36 -64 36q-35 0 -42 -20zM863 110l9 -8h59v8l-17 17 h-34zM889 1681l102 -9h9l51 46v10h-120l-42 -10v-37zM929 -397h78q56 24 56 58v10q-30 0 -134 -68zM1008 143h51l119 34v16h-85q-85 -18 -85 -50zM1034 53h85q150 42 187 111l-9 10l-263 -112v-9z" />
<glyph unicode="&#xc8;" horiz-adv-x="1366" />
<glyph unicode="&#xc9;" horiz-adv-x="1366" d="M9 153l21 12l8 -6l64 44q0 200 -21 336v181l-8 6l8 6v106q-51 0 -51 19q17 12 51 12v231q-29 170 -29 424q51 17 79 43l14 -37h50l-7 69l22 12l28 -81h15l673 6q53 25 158 25h136q16 0 28 -43q0 -21 -100 -38q0 -12 -122 -12q-93 -50 -143 -50h-272q-299 -14 -358 -38 l14 -174v-218l-7 -125l236 -25h373l21 -18l-143 -25v-7l200 -12l29 12l14 -18v-6l-21 -19h-43q-47 -62 -100 -62h-179l-387 31l14 -524l43 -12h444l136 12h323q86 0 86 -37h36l21 -13q0 -27 -93 -43h-136q-211 0 -545 -69l-86 -6h-50q-120 31 -179 31q0 -31 -21 -31 q-22 0 -22 37l-21 7l-8 -7q0 18 -179 63zM116 552l22 -275q50 56 50 131l-7 306h-65v-162zM116 751h58v13l-15 12h-43v-25zM116 813h36l15 13l-15 12h-36v-25zM116 869h36v7q-16 81 -36 81v-88zM145 1430l14 -12h8l50 6v25h-58l-14 -12v-7zM152 1480h43v13h-43v-13z M159 1362q29 -252 65 -393h7v231l-14 180h-15q-26 0 -43 -18zM253 1430h7q53 0 57 19h-64v-19zM253 1480h193l14 13h-207v-13zM267 820h21l-14 12h-7v-12zM281 134h165l14 13h-179v-13zM339 97q7 -19 43 -19h257q38 0 43 19h-343zM360 739l294 -25h150q37 0 43 18v13 q-214 25 -308 25l-179 -19v-12zM419 1626q84 48 160 147l122 85q102 -28 169 -28l56 11q38 -6 38 -34v-23h47v-5q-63 -40 -216 -102q-159 -83 -291 -91q-42 0 -85 40zM522 1620q47 0 66 28v6h-28l-38 -23v-11zM598 1733q49 0 140 63l47 11v11l-84 12l-103 -80v-17zM616 1631 l10 -5l291 130v17h-28l-263 -130l-10 -6v-6zM738 1762h10q48 0 113 34v5h-10q-113 -18 -113 -39zM833 1449h43l71 19v12q-114 -10 -114 -31zM869 147l121 -7q137 0 137 19h-258v-12zM969 1486h14l22 19h-36v-19z" />
<glyph unicode="&#xca;" horiz-adv-x="1366" />
<glyph unicode="&#xcb;" horiz-adv-x="1366" />
<glyph unicode="&#xcc;" horiz-adv-x="569" />
<glyph unicode="&#xcd;" horiz-adv-x="569" />
<glyph unicode="&#xce;" horiz-adv-x="569" />
<glyph unicode="&#xcf;" horiz-adv-x="569" />
<glyph unicode="&#xd0;" horiz-adv-x="1479" />
<glyph unicode="&#xd1;" horiz-adv-x="1479" d="M-7 1567l19 13l46 -20h9q19 0 19 53l18 13l47 -6l55 13l74 -20l28 7q18 0 176 -180q234 -180 473 -498q167 -133 343 -405h18q-148 743 -148 804v192l19 20q45 0 102 -139h18v126q0 60 84 73l18 -20v-46l46 -14l10 -763v-505l9 -60q-19 -44 -83 -93q0 -26 -47 -26 q-32 59 -46 59h-19q0 -26 -27 -26q-62 0 -149 159l-167 319q-106 77 -324 392q-89 128 -241 292l-9 33h-28v-352l-37 -212v-419q46 -101 46 -212v-93l-28 -20l-18 20v73l-111 -33l-28 -20l-19 26h-28v-6l10 -47l-28 -13l-28 20l-28 418v1003q0 32 -46 120zM104 192h28v226 q0 34 -28 40v-266zM141 1374q47 -319 47 -764v-206l46 7v146l19 319v538l-28 53l18 33q0 26 -37 80h-18l-47 -33v-173zM188 119h18l28 20v192q0 37 -46 54v-266zM280 152l19 -13v33l-19 13v-33zM308 1540q63 -126 93 -126h28q0 36 -112 126h-9zM398 1642l22 60 q85 148 230 148h45q32 0 111 -30q149 -136 163 -136h38q74 0 74 47v60l22 17h15l7 -6l30 24q27 0 52 -83v-6l-7 -24q-70 -54 -82 -106q-25 0 -126 -48l-67 6q-52 0 -267 196h-8q-20 0 -74 -30q-138 -136 -156 -136q-22 14 -22 47zM466 1314q0 -42 204 -245 q370 -378 370 -472q74 -168 251 -286v7q-91 162 -362 511q-56 152 -306 379l-139 106h-18zM643 1808q78 0 163 -53h15v6q-99 59 -134 59h-44v-12zM903 1607l74 -18l22 6v23h-96v-11zM1013 816l37 -60h9v7q-21 60 -46 60v-7zM1077 730q22 -64 130 -186l149 -233h18 q-87 190 -269 412l-28 13v-6zM1105 378l28 -33v-34l28 -6v33q-24 0 -46 47h-10v-7zM1148 1731l14 12l-14 12v-24zM1207 205h19v7l-19 13v-20zM1216 1347q0 -119 65 -318h10l-10 46v199q-32 140 -65 140v-67zM1272 232l37 -27v14l-28 19h-9v-6zM1281 962l19 -13v33l-19 13 v-33zM1328 1308q12 -380 65 -419v166l18 93h-9l-28 20v252l-18 14q0 -65 -28 -126zM1365 584l18 -14v20l-18 14v-20zM1383 517q6 -66 28 -66v7q-7 73 -28 73v-14z" />
<glyph unicode="&#xd2;" horiz-adv-x="1593" />
<glyph unicode="&#xd3;" horiz-adv-x="1593" />
<glyph unicode="&#xd4;" horiz-adv-x="1593" />
<glyph unicode="&#xd5;" horiz-adv-x="1593" />
<glyph unicode="&#xd6;" horiz-adv-x="1593" d="M13 489v270l54 259q0 148 161 325l99 78q120 60 394 132h18q466 -34 466 -96q63 -19 144 -175q118 -72 197 -270q45 -114 45 -493v-6q0 -26 -152 -144q0 -70 -207 -217q-247 -138 -385 -138h-215q-363 0 -520 240q-99 133 -99 235zM58 495q6 -96 36 -96v24q-6 96 -36 96 v-24zM112 657l53 -240q0 -232 225 -277l152 -12v6q-177 110 -278 271q-90 144 -90 216v108q0 168 54 355q-64 0 -116 -349v-78zM121 1066h26l162 271q-74 0 -188 -259v-12zM228 814q0 -267 144 -463q208 -133 421 -133h45l179 67q278 168 278 432l36 283v84 q-122 283 -224 283q-121 82 -260 120q-163 0 -439 -259q-180 -211 -180 -414zM372 92q145 -48 224 -48v12l-215 42h-9v-6zM441 1720q0 138 75 138q42 -34 126 -34q59 -56 59 -104v-14q0 -48 -151 -103q-109 37 -109 117zM470 236q140 -108 251 -108h27q359 50 359 96 q65 0 134 175h-9q-216 -187 -322 -187q-12 -24 -81 -24h-27q-128 0 -332 54v-6zM525 1727l25 -21h8v21l-25 21h-8v-21zM605 98q0 -16 71 -24h81q0 14 -107 24h-45zM883 98h36l71 24v12h-9q-98 -21 -98 -30v-6zM893 1775q0 69 92 69h25q103 0 151 -131v-27q0 -55 -67 -55h-59 q-70 0 -142 144zM1071 1475l134 -90v-12h27v12q0 12 -134 90h-27zM1268 327q206 110 206 276v355q-39 120 -62 120v-240q-36 -118 -45 -265zM1519 501l27 18v30q-27 -6 -27 -36v-12zM1519 687l18 12v169l-18 12v-193z" />
<glyph unicode="&#xd7;" horiz-adv-x="1196" />
<glyph unicode="&#xd8;" horiz-adv-x="1593" d="M13 587v288l54 274q0 157 162 345l99 83q120 65 396 141h18q264 -20 440 -64h9q130 191 153 191l27 -13h27q3 26 36 26l18 -19l-36 -64l9 -26q-36 -57 -72 -255q-16 0 -18 -32q0 -15 108 -115q153 -170 153 -645v-89q0 -28 -153 -153q0 -74 -207 -230 q-248 -147 -387 -147h-215q-90 0 -234 26q-108 -45 -108 -103l-36 -6l-36 38l-90 -19h-9l-27 13q0 13 72 45l72 121q-225 212 -225 389zM58 594q6 -102 36 -102v25q-6 102 -36 102v-25zM112 766l54 -255q0 -170 108 -243h18l45 141q-77 61 -153 261l-9 58v115q0 178 54 377 q-65 0 -117 -371v-83zM121 1200h27l162 288q-74 0 -189 -275v-13zM229 932q0 -288 135 -466q126 156 333 549q386 469 386 511v6q0 30 -234 115q-163 0 -440 -274q-180 -225 -180 -441zM346 255q54 26 54 64v7h-18q-27 0 -36 -71zM400 217l36 -6l36 38l-9 19h-36zM427 415 q15 -32 45 -32q139 56 243 268q0 31 305 543v6q-40 -25 -126 -146l-233 -320q-79 -73 -234 -319zM454 147q53 -32 144 -32v13l-135 25h-9v-6zM481 313l18 -13h9v19h-27v-6zM517 204h27v7l-18 12h-9v-19zM553 268q79 -64 171 -64h27q359 54 359 102q66 0 135 186h-9 q-217 -198 -324 -198q-12 -26 -81 -26h-26q-126 0 -234 32l-18 -19v-13zM598 338q77 -38 198 -38h44l180 70q279 179 279 460l36 300v90q-36 95 -54 95h-18q-101 -93 -288 -402q-160 -180 -296 -441q-34 -33 -81 -134zM607 172q0 -16 72 -25h81q0 14 -108 25h-45zM643 804h9 l215 301q29 16 81 102q52 39 207 287v6h-27q-198 -291 -386 -504q-99 -153 -99 -192zM885 172h36l72 26v13h-9q-99 -23 -99 -32v-7zM1074 1635q21 -39 63 -39v13l-36 26h-27zM1137 1264h9q108 95 108 128q-6 32 -27 32h-9l-81 -153v-7zM1272 415q207 117 207 294v376 q-40 128 -63 128v-255q-36 -125 -45 -281zM1524 600l27 19v32q-27 -6 -27 -38v-13zM1524 798l18 13v179l-18 12v-204z" />
<glyph unicode="&#xd9;" horiz-adv-x="1479" />
<glyph unicode="&#xda;" horiz-adv-x="1479" />
<glyph unicode="&#xdb;" horiz-adv-x="1479" />
<glyph unicode="&#xdc;" horiz-adv-x="1479" d="M18 790v139q0 116 97 499q30 139 96 139l18 -13l-9 -6l9 -108v-44h17v139l27 19l17 -19v-133q0 -73 -105 -265v-347q34 -215 219 -385q178 -193 343 -272q75 0 351 139q185 149 185 328v588q0 32 -150 341l18 12q26 0 26 -19l9 -6h18v38l17 19q30 0 62 -63 q123 -51 123 -139v-133q28 0 70 -347v-190q0 -52 -193 -429q-51 -105 -352 -234q-52 -25 -96 -25h-53q-60 0 -237 88q-155 0 -281 101l-149 240q-97 236 -97 348zM62 885q0 -145 88 -272h9v25l-27 253v265q-70 -65 -70 -271zM141 506q29 -76 44 -76h9v25l-53 57v-6z M176 1251h9q21 0 26 57l-35 -44v-13zM238 487q0 -52 140 -228q0 -52 228 -126h27v19l-106 69l-263 272h-26v-6zM273 297l17 -12v19h-17v-7zM358 1728q0 130 75 130q41 -33 124 -33q58 -52 58 -97v-13q0 -46 -149 -98q-108 35 -108 111zM441 1734l25 -19h8v19l-25 20h-8v-20z M668 82l123 -37h53l70 37v7h-79l-167 12v-19zM806 1780q0 65 91 65h25q101 0 149 -124v-26q0 -52 -66 -52h-58q-70 0 -141 137zM975 133q40 12 44 25h-17l-27 -19v-6zM1248 1421l105 -227h9v25q0 68 -97 209h-17v-7zM1327 569q35 10 35 44v189q0 120 -35 139v-372zM1406 948 l9 -272l17 13v215q0 46 -26 50v-6z" />
<glyph unicode="&#xdd;" horiz-adv-x="1366" />
<glyph unicode="&#xde;" horiz-adv-x="1366" />
<glyph unicode="&#xdf;" horiz-adv-x="1251" d="M18 254v8l31 23q38 -76 61 -77h20q75 0 143 348l20 16v240l-51 124l31 15l-10 117v666q51 54 91 54v47l21 23l51 -23l173 23q97 0 224 -70q65 0 143 -85q183 -116 183 -248v-15q0 -134 -224 -334q-32 0 -71 -46v-16l91 -38l275 -295l11 -38v-78l20 -85v-116 q0 -125 -255 -264h-102q-80 0 -285 70q-258 70 -306 70q-31 -256 -153 -256h-61q-61 0 -61 62v31q0 23 92 23l20 23v16h-20q-102 0 -102 85zM79 68l21 -15h40q61 31 61 62v7h-10q0 -31 -71 -31h-41v-23zM314 308h40v16l-20 15h-20v-31zM334 409h61l-10 155v78 q-36 0 -51 -233zM344 959h20l11 54v31h-31v-85zM344 1091h31v232q0 179 -31 179v-411zM405 1641l21 -333v-225h10l173 -8q265 42 265 132q24 0 51 109v162q-69 140 -153 140l-143 39q-78 62 -122 62h-10q-92 -14 -92 -31v-47zM426 851q0 -473 61 -473q88 -70 112 -70 q285 0 285 86q38 17 71 62v255q0 70 -254 163l-82 -23h-193zM426 959h132l31 23v16h-163v-39zM578 890h31l20 15v8h-51v-23zM578 1765q2 -52 306 -132l31 -23v8q0 97 -184 139l-102 24zM691 231q134 -62 203 -62h82q0 17 173 124q51 67 51 116v93h-10q-22 0 -61 -85 l-224 -140q-23 -38 -102 -38h-112v-8zM691 967h30l20 15v16l-50 -8v-23zM803 959l112 -69h51v15q-55 70 -102 85h-51zM966 1246l10 -8h10q9 34 82 116l30 86v15q0 67 -102 155h-20v-85q81 -82 81 -116v-16q0 -26 -61 -85zM976 1393h10l20 16l-10 7h-20v-23zM1006 494h21v202 h-21v-202zM1017 417h20l20 15v8h-20l-20 -15v-8zM1057 781l62 -54v8q-27 49 -51 54h-11v-8zM1078 471h10q20 0 61 101q0 41 -61 85h-10v-186z" />
<glyph unicode="&#xe0;" d="M17 121v47l32 169q0 91 91 292q113 205 270 416l168 123l155 31q21 0 116 -77l45 -8v8l13 15h6q123 -210 123 -377q0 -71 84 -500l19 -154l-19 -23v-8l-7 8h-6q-58 -26 -58 -77h-20q-34 0 -103 516q-358 -516 -477 -516h-45l-84 8l-90 -8h-103q-86 0 -110 115zM43 98 q36 -61 71 -61h142q-29 45 -123 77l-77 123h-7l-6 -39v-100zM75 298q0 -79 77 -161h13v8l-32 184v62h-6q-16 -8 -52 -85v-8zM81 391h7q40 38 84 154l26 38v62l-13 15l-104 -231v-38zM159 368q18 0 26 77v38h-13l-13 -92v-23zM185 229q22 -46 58 -46h51v23q-20 0 -96 116h-7 l-6 -54v-39zM191 145l19 -24h97l20 24v7h-71l-65 16v-23zM210 383q0 -84 136 -192q91 0 406 292q103 172 103 316v161q0 57 -71 131h-116q-127 -58 -341 -331q-65 -98 -117 -338v-39zM240 1642v10h54v44q0 54 43 65l87 -22q100 14 162 54q63 -35 173 -205q63 -139 162 -238 q-49 -76 -97 -76q-141 0 -465 270q-29 0 -119 98zM243 691h6q13 4 65 123l200 231l6 8v7h-13q-196 -159 -264 -331v-38zM262 83q0 -17 58 -31q97 48 103 69v24h-6l-129 -54h-26v-8zM348 1598l335 -248l11 11q-8 36 -238 194l-75 76h-33v-33zM372 37h90q40 0 168 131l19 30 h-13l-116 -53h-45q-72 -93 -103 -93v-15zM413 1674q0 -28 130 -65h11q0 40 -130 76h-11v-11zM449 175h13q231 113 290 231l26 46h-13q-127 -123 -310 -254l-6 -7v-16zM500 1696q37 0 173 -130l43 -11v33q-107 151 -141 151l-75 -22v-21zM655 252h7l13 16v7l-20 -7v-16z M727 1393q21 -54 75 -54v22l-43 43h-32v-11zM875 1022l13 -15h6v46h-19v-31zM920 860l19 -23v8q0 138 -19 138v-123zM971 568q9 -146 33 -146v7l-20 116v23h-13zM997 799l13 -16v39h-13v-23zM1010 129l13 -69h13v54l-13 31h-13v-16zM1042 360q5 -131 26 -131v69q0 59 -26 70 v-8z" />
<glyph unicode="&#xe1;" d="M17 121v47l32 169q0 91 91 292q113 205 270 416l168 123l155 31q21 0 116 -77l45 -8v8l13 15h6q123 -210 123 -377q0 -71 84 -500l19 -154l-19 -23v-8l-7 8h-6q-58 -26 -58 -77h-20q-34 0 -103 516q-358 -516 -477 -516h-45l-84 8l-90 -8h-103q-86 0 -110 115zM43 98 q36 -61 71 -61h142q-29 45 -123 77l-77 123h-7l-6 -39v-100zM75 298q0 -79 77 -161h13v8l-32 184v62h-6q-16 -8 -52 -85v-8zM81 391h7q40 38 84 154l26 38v62l-13 15l-104 -231v-38zM159 368q18 0 26 77v38h-13l-13 -92v-23zM185 229q22 -46 58 -46h51v23q-20 0 -96 116h-7 l-6 -54v-39zM191 145l19 -24h97l20 24v7h-71l-65 16v-23zM210 383q0 -84 136 -192q91 0 406 292q103 172 103 316v161q0 57 -71 131h-116q-127 -58 -341 -331q-65 -98 -117 -338v-39zM243 691h6q13 4 65 123l200 231l6 8v7h-13q-196 -159 -264 -331v-38zM262 83 q0 -17 58 -31q97 48 103 69v24h-6l-129 -54h-26v-8zM269 1300q92 88 174 266l132 153q111 -51 184 -51l61 20q41 -10 41 -61v-41h51v-10q-68 -72 -235 -184q-172 -149 -316 -163q-46 0 -92 71zM372 37h90q40 0 168 131l19 30h-13l-116 -53h-45q-72 -93 -103 -93v-15z M381 1290q51 0 72 51v11h-31l-41 -41v-21zM449 175h13q231 113 290 231l26 46h-13q-127 -123 -310 -254l-6 -7v-16zM463 1494q54 0 153 113l51 20v21l-92 20l-112 -143v-31zM483 1311l11 -11l316 235v31h-31l-285 -235l-11 -10v-10zM616 1545h10q52 0 123 62v10h-10 q-123 -34 -123 -72zM655 252h7l13 16v7l-20 -7v-16zM875 1022l13 -15h6v46h-19v-31zM920 860l19 -23v8q0 138 -19 138v-123zM971 568q9 -146 33 -146v7l-20 116v23h-13zM997 799l13 -16v39h-13v-23zM1010 129l13 -69h13v54l-13 31h-13v-16zM1042 360q5 -131 26 -131v69 q0 59 -26 70v-8z" />
<glyph unicode="&#xe2;" d="M17 121v47l32 169q0 91 91 292q113 205 270 416l168 123l155 31q21 0 116 -77l45 -8v8l13 15h6q123 -210 123 -377q0 -71 84 -500l19 -154l-19 -23v-8l-7 8h-6q-58 -26 -58 -77h-20q-34 0 -103 516q-358 -516 -477 -516h-45l-84 8l-90 -8h-103q-86 0 -110 115zM43 98 q36 -61 71 -61h142q-29 45 -123 77l-77 123h-7l-6 -39v-100zM75 298q0 -79 77 -161h13v8l-32 184v62h-6q-16 -8 -52 -85v-8zM81 391h7q40 38 84 154l26 38v62l-13 15l-104 -231v-38zM159 368q18 0 26 77v38h-13l-13 -92v-23zM185 229q22 -46 58 -46h51v23q-20 0 -96 116h-7 l-6 -54v-39zM191 145l19 -24h97l20 24v7h-71l-65 16v-23zM210 383q0 -84 136 -192q91 0 406 292q103 172 103 316v161q0 57 -71 131h-116q-127 -58 -341 -331q-65 -98 -117 -338v-39zM226 1218q11 32 137 106q52 156 206 351l145 -99q297 -220 297 -290l-23 -15 q-57 0 -267 152q-62 69 -99 69q-206 -161 -305 -320l-7 -8h-8l-23 38l-38 -15zM243 691h6q13 4 65 123l200 231l6 8v7h-13q-196 -159 -264 -331v-38zM262 83q0 -17 58 -31q97 48 103 69v24h-6l-129 -54h-26v-8zM372 37h90q40 0 168 131l19 30h-13l-116 -53h-45 q-72 -93 -103 -93v-15zM449 175h13q231 113 290 231l26 46h-13q-127 -123 -310 -254l-6 -7v-16zM561 1507q32 11 46 38h-15l-31 -30v-8zM655 252h7l13 16v7l-20 -7v-16zM752 1469q23 -53 76 -53h8q0 18 -84 53zM875 1022l13 -15h6v46h-19v-31zM920 860l19 -23v8 q0 138 -19 138v-123zM971 568q9 -146 33 -146v7l-20 116v23h-13zM997 799l13 -16v39h-13v-23zM1010 129l13 -69h13v54l-13 31h-13v-16zM1042 360q5 -131 26 -131v69q0 59 -26 70v-8z" />
<glyph unicode="&#xe3;" d="M17 121v47l32 169q0 91 91 292q113 205 270 416l168 123l155 31q21 0 116 -77l45 -8v8l13 15h6q123 -210 123 -377q0 -71 84 -500l19 -154l-19 -23v-8l-7 8h-6q-58 -26 -58 -77h-20q-34 0 -103 516q-358 -516 -477 -516h-45l-84 8l-90 -8h-103q-86 0 -110 115zM43 98 q36 -61 71 -61h142q-29 45 -123 77l-77 123h-7l-6 -39v-100zM75 298q0 -79 77 -161h13v8l-32 184v62h-6q-16 -8 -52 -85v-8zM81 391h7q40 38 84 154l26 38v62l-13 15l-104 -231v-38zM159 368q18 0 26 77v38h-13l-13 -92v-23zM185 229q22 -46 58 -46h51v23q-20 0 -96 116h-7 l-6 -54v-39zM191 145l19 -24h97l20 24v7h-71l-65 16v-23zM207 1354q0 78 110 200q86 41 125 41h41q96 0 221 -166l34 -27h35q69 0 69 55v69l20 21h7l7 -7q32 13 35 27q25 0 48 -96v-7q0 -23 -69 -104q0 -62 -69 -62q-29 -41 -76 -41q-107 0 -221 159l-76 76h-6 q-53 0 -201 -187l-6 -7q-28 4 -28 56zM210 383q0 -84 136 -192q91 0 406 292q103 172 103 316v161q0 57 -71 131h-116q-127 -58 -341 -331q-65 -98 -117 -338v-39zM243 691h6q13 4 65 123l200 231l6 8v7h-13q-196 -159 -264 -331v-38zM262 83q0 -17 58 -31q97 48 103 69v24 h-6l-129 -54h-26v-8zM372 37h90q40 0 168 131l19 30h-13l-116 -53h-45q-72 -93 -103 -93v-15zM435 1547q64 0 158 -62h7v7q-92 69 -124 69h-41v-14zM449 175h13q231 113 290 231l26 46h-13q-127 -123 -310 -254l-6 -7v-16zM655 252h7l13 16v7l-20 -7v-16zM676 1312l69 -21 l21 7v28h-90v-14zM875 1022l13 -15h6v46h-19v-31zM904 1457l13 14l-13 14v-28zM920 860l19 -23v8q0 138 -19 138v-123zM971 568q9 -146 33 -146v7l-20 116v23h-13zM997 799l13 -16v39h-13v-23zM1010 129l13 -69h13v54l-13 31h-13v-16zM1042 360q5 -131 26 -131v69 q0 59 -26 70v-8z" />
<glyph unicode="&#xe4;" d="M17 121v47l32 169q0 91 91 292q113 205 270 416l168 123l155 31q21 0 116 -77l45 -8v8l13 15h6q123 -210 123 -377q0 -71 84 -500l19 -154l-19 -23v-8l-7 8h-6q-58 -26 -58 -77h-20q-34 0 -103 516q-358 -516 -477 -516h-45l-84 8l-90 -8h-103q-86 0 -110 115zM43 98 q36 -61 71 -61h142q-29 45 -123 77l-77 123h-7l-6 -39v-100zM75 298q0 -79 77 -161h13v8l-32 184v62h-6q-16 -8 -52 -85v-8zM81 391h7q40 38 84 154l26 38v62l-13 15l-104 -231v-38zM159 368q18 0 26 77v38h-13l-13 -92v-23zM185 229q22 -46 58 -46h51v23q-20 0 -96 116h-7 l-6 -54v-39zM191 145l19 -24h97l20 24v7h-71l-65 16v-23zM210 383q0 -84 136 -192q91 0 406 292q103 172 103 316v161q0 57 -71 131h-116q-127 -58 -341 -331q-65 -98 -117 -338v-39zM243 691h6q13 4 65 123l200 231l6 8v7h-13q-196 -159 -264 -331v-38zM262 83 q0 -17 58 -31q97 48 103 69v24h-6l-129 -54h-26v-8zM276 1354q0 157 71 157q39 -39 118 -39q55 -63 55 -118v-16q0 -55 -142 -118q-102 42 -102 134zM355 1362l23 -24h8v24l-24 23h-7v-23zM372 37h90q40 0 168 131l19 30h-13l-116 -53h-45q-72 -93 -103 -93v-15zM449 175h13 q231 113 290 231l26 46h-13q-127 -123 -310 -254l-6 -7v-16zM655 252h7l13 16v7l-20 -7v-16zM700 1417q0 78 87 78h24q96 0 141 -149v-32q0 -62 -63 -62h-55q-66 0 -134 165zM875 1022l13 -15h6v46h-19v-31zM920 860l19 -23v8q0 138 -19 138v-123zM971 568q9 -146 33 -146v7 l-20 116v23h-13zM997 799l13 -16v39h-13v-23zM1010 129l13 -69h13v54l-13 31h-13v-16zM1042 360q5 -131 26 -131v69q0 59 -26 70v-8z" />
<glyph unicode="&#xe5;" d="M17 121v47l32 169q0 91 91 292q113 205 270 416l168 123l155 31q21 0 116 -77l45 -8v8l13 15h6q123 -210 123 -377q0 -71 84 -500l19 -154l-19 -23v-8l-7 8h-6q-58 -26 -58 -77h-20q-34 0 -103 516q-358 -516 -477 -516h-45l-84 8l-90 -8h-103q-86 0 -110 115zM43 98 q36 -61 71 -61h142q-29 45 -123 77l-77 123h-7l-6 -39v-100zM75 298q0 -79 77 -161h13v8l-32 184v62h-6q-16 -8 -52 -85v-8zM81 391h7q40 38 84 154l26 38v62l-13 15l-104 -231v-38zM159 368q18 0 26 77v38h-13l-13 -92v-23zM185 229q22 -46 58 -46h51v23q-20 0 -96 116h-7 l-6 -54v-39zM191 145l19 -24h97l20 24v7h-71l-65 16v-23zM210 383q0 -84 136 -192q91 0 406 292q103 172 103 316v161q0 57 -71 131h-116q-127 -58 -341 -331q-65 -98 -117 -338v-39zM243 691h6q13 4 65 123l200 231l6 8v7h-13q-196 -159 -264 -331v-38zM262 83 q0 -17 58 -31q97 48 103 69v24h-6l-129 -54h-26v-8zM372 37h90q40 0 168 131l19 30h-13l-116 -53h-45q-72 -93 -103 -93v-15zM388 1488v35q0 105 84 105q0 17 140 35h35q210 -50 210 -140v-210q0 -77 -105 -77l-28 -7h-84q-176 0 -252 259zM449 175h13q231 113 290 231 l26 46h-13q-127 -123 -310 -254l-6 -7v-16zM458 1502l21 -63h21v49l14 77h-14q-42 -24 -42 -63zM486 1369l49 -56l7 7q-12 32 -49 56h-7v-7zM535 1432q0 -47 161 -133l49 -7q77 60 77 189q-100 119 -182 119h-28q-57 0 -77 -126v-42zM655 252h7l13 16v7l-20 -7v-16z M875 1022l13 -15h6v46h-19v-31zM920 860l19 -23v8q0 138 -19 138v-123zM971 568q9 -146 33 -146v7l-20 116v23h-13zM997 799l13 -16v39h-13v-23zM1010 129l13 -69h13v54l-13 31h-13v-16zM1042 360q5 -131 26 -131v69q0 59 -26 70v-8z" />
<glyph unicode="&#xe6;" horiz-adv-x="1821" d="M19 803v7q0 129 177 318q119 71 221 71h51q74 0 148 -170q96 -169 96 -233h7q98 143 177 205q154 92 398 92q0 18 88 21q69 0 133 -85q103 -53 103 -113v-70q-12 -153 -74 -226q-194 -191 -324 -191q-23 -42 -81 -42h-206l-103 21h-8v-28q0 -97 229 -191h464 q201 65 265 198q7 42 22 42h8v-14h7q0 -134 -236 -367q-110 -57 -184 -57h-125q-78 0 -170 57h-96q-84 0 -228 91h-7q-224 -106 -295 -106h-199q-206 0 -206 64q-45 64 -45 134v78q0 84 185 148q72 120 235 120l207 -49h22v49l7 135q-34 164 -125 240q-96 56 -147 56h-96 q-148 -69 -148 -176q-60 -99 -95 -99q-15 16 -15 49q-37 0 -37 21zM63 231q0 -52 22 -56h8v28l59 169v8h-8q-56 -26 -81 -64v-85zM85 810q67 47 67 142h-15l-52 -120v-22zM130 168q23 -50 66 -50l-22 71q0 119 118 240v14h-22q-52 0 -140 -254v-21zM181 1029h15q65 0 177 43 l132 -35h52q-46 127 -111 127h-29q-236 -44 -236 -135zM211 189q77 -92 147 -92h44q138 0 346 141q-24 209 -44 219q-107 21 -206 21q-104 0 -228 -141q-59 -102 -59 -148zM321 493h7q118 28 118 42v7q-125 -4 -125 -42v-7zM778 500h15v7q0 257 191 438h-14 q-170 -93 -170 -226q-18 -14 -22 -92v-127zM807 153q0 -17 163 -77h36v7q-47 62 -184 99l-15 -21v-8zM822 436l96 -21h250l15 14v7h-280q-28 35 -59 35h-22v-35zM822 500h206q339 63 339 212l23 63v120q0 26 -236 78l-44 21q-288 -162 -288 -473v-21zM970 161q0 -46 147 -85 h29l37 7v7q-7 17 -191 71h-22zM1080 464h170l14 14v8l-88 -8h-96v-14zM1146 161q0 -22 81 -22h185l36 7v15h-302zM1146 1001l207 -49v21q0 30 -133 64h-15q-54 0 -59 -22v-14zM1176 48q10 -29 66 -29h184q100 9 207 106l14 36h-7q-25 0 -133 -71q-54 -21 -117 -21h-126 l-88 -14v-7zM1205 507h15q91 0 170 77l7 7v29h-7q-67 -55 -185 -106v-7zM1316 1058h15l125 -14v14q0 15 -66 28h-59l-15 -14v-14zM1382 987q0 -60 133 -92l7 -7v-7l-29 -162h29q30 14 44 42v42q-36 177 -125 177l-59 14v-7zM1390 662h22q49 0 81 212l-74 21v-106l-29 -120 v-7zM1404 563l8 -7h7q103 73 103 134h-15q-23 -8 -103 -127zM1463 104h8l36 14v14h-7l-37 -14v-14zM1530 973l51 -57h7v22q-29 49 -58 49v-14z" />
<glyph unicode="&#xe7;" horiz-adv-x="1024" d="M4 369v35q0 260 147 466q67 197 139 234l78 -9q64 52 193 69q34 35 109 35q72 0 193 -156l8 -8v-35q-46 0 -46 -78h-16q-12 1 -54 87h-77q-95 0 -418 -337q-24 -95 -47 -130v-17q0 -80 116 -312q135 -103 248 -103h15q122 42 202 155h15v-17h8l-31 -78q149 67 225 147h7 v-17h8q0 -104 -225 -285l-54 -9h-31l-147 26h-186q-52 0 -201 130q-178 71 -178 207zM35 360q48 -164 147 -164v9q-132 135 -132 225v69l-15 -18v-121zM43 533l15 18v17l-15 -17v-18zM81 412q0 -61 70 -121l8 9h8l-47 104v112q0 44 54 138q37 153 132 251l116 130v17h-70 q-145 -108 -240 -337q-31 -162 -31 -251v-52zM198 395q5 -121 54 -121h8v9q0 43 -55 121h-7v-9zM236 706h8q160 233 356 303v8l-85 26q-78 0 -271 -285zM267 1026q36 17 39 35v8h-16l-23 -26v-17zM438 1087l31 -9l7 9v26h-23l-15 -18v-8zM443 105l4 12h4l24 -40l4 -4l20 4 h20q31 0 40 -76l4 -32v-52h8v-4l4 4h20q66 0 108 -172l-4 -36l8 -12v-8q-32 -64 -76 -64q-145 0 -164 84q-12 15 -12 28h8l12 -8h4q8 0 8 20h4q16 0 88 -48h24q48 0 48 16v56q0 56 -116 92q-40 0 -60 -20h-8v24l-16 124v20l4 44zM467 1v-28l8 -8v28zM479 61q3 -44 12 -44 l8 8v36h-20zM479 -83v-12h16l4 20v12zM491 -299v-4q8 -24 32 -24v4q-1 11 -28 28zM515 49h12v12h-12v-12zM519 -43v-20h8v20h-8zM523 1087h147v8q0 26 -124 26l-23 -26v-8zM535 13v-36l12 -4v16q0 21 -12 24zM551 -315l4 -12h48l8 8v4h-60zM555 -127l60 -24v12 q-13 28 -36 28q-20 0 -24 -16zM607 -347h44q32 19 32 44v8q-17 0 -76 -52zM623 1147l117 -43l7 9v8q0 26 -69 43h-55v-17zM670 41h101l15 17h-116v-17zM740 92h46q41 0 77 44v17l-123 -43v-18z" />
<glyph unicode="&#xe8;" d="M17 625v52q0 141 159 351q147 149 449 149q0 18 87 22q67 0 130 -89q102 -57 102 -120v-74q-12 -162 -73 -239q-191 -201 -318 -201q-23 -45 -80 -45h-203l-101 23h-7v-30q0 -102 224 -201h456q198 68 261 208q7 45 22 45h7v-15h7q0 -141 -232 -387q-108 -60 -181 -60 h-123q-76 0 -166 60h-94q-246 44 -246 186q-22 74 -37 238q-19 0 -43 127zM46 595l22 -22v186q-22 -7 -22 -44v-120zM111 305q15 -14 15 -75q30 -82 86 -82l95 -45h36v8q-60 68 -181 112l-44 97h-7v-15zM118 551h15v7q0 272 188 462h-14q-167 -98 -167 -238q-18 -15 -22 -97 v-134zM162 484l94 -23h246l14 15v8h-275q-28 37 -58 37h-21v-37zM162 551h202q333 67 333 223l22 67v127q0 27 -231 82l-44 22q-282 -171 -282 -499v-22zM209 1657v10h54v44q0 54 43 65l87 -22q100 14 162 54q63 -35 173 -205q63 -139 162 -238q-49 -76 -97 -76 q-141 0 -465 270q-29 0 -119 98zM307 193q0 -48 144 -90h29l36 8v7q-7 18 -188 75h-21zM317 1613l335 -248l11 11q-8 36 -238 194l-75 76h-33v-33zM382 1689q0 -28 130 -65h11q0 40 -130 76h-11v-11zM415 513h167l14 15v8l-87 -8h-94v-15zM469 1711q37 0 173 -130l43 -11v33 q-107 151 -141 151l-75 -22v-21zM480 193q0 -22 80 -22h181l36 7v15h-297zM480 1080l203 -52v22q0 31 -130 67h-15q-53 0 -58 -22v-15zM509 74q10 -30 65 -30h181q98 9 203 112l15 37h-8q-24 0 -130 -75q-54 -22 -116 -22h-123l-87 -15v-7zM538 558h15q89 0 166 82l7 7v30 h-7q-65 -57 -181 -111v-8zM647 1139h14l123 -15v15q0 17 -65 30h-58l-14 -15v-15zM696 1408q21 -54 75 -54v22l-43 43h-32v-11zM712 1065q0 -63 130 -97l7 -7v-8l-29 -171h29q29 15 44 44v45q-36 186 -123 186l-58 15v-7zM719 722h22q48 0 79 224l-72 22v-112l-29 -127v-7z M734 618l7 -8h7q101 77 101 142h-14q-23 -9 -101 -134zM792 133h7l36 15v15h-7l-36 -15v-15zM857 1050l50 -60h8v23q-29 52 -58 52v-15z" />
<glyph unicode="&#xe9;" d="M17 625v52q0 141 159 351q147 149 449 149q0 18 87 22q67 0 130 -89q102 -57 102 -120v-74q-12 -162 -73 -239q-191 -201 -318 -201q-23 -45 -80 -45h-203l-101 23h-7v-30q0 -102 224 -201h456q198 68 261 208q7 45 22 45h7v-15h7q0 -141 -232 -387q-108 -60 -181 -60 h-123q-76 0 -166 60h-94q-246 44 -246 186q-22 74 -37 238q-19 0 -43 127zM46 595l22 -22v186q-22 -7 -22 -44v-120zM111 305q15 -14 15 -75q30 -82 86 -82l95 -45h36v8q-60 68 -181 112l-44 97h-7v-15zM118 551h15v7q0 272 188 462h-14q-167 -98 -167 -238q-18 -15 -22 -97 v-134zM162 484l94 -23h246l14 15v8h-275q-28 37 -58 37h-21v-37zM162 551h202q333 67 333 223l22 67v127q0 27 -231 82l-44 22q-282 -171 -282 -499v-22zM284 1292q92 88 174 266l132 153q111 -51 184 -51l61 20q41 -10 41 -61v-41h51v-10q-68 -72 -235 -184 q-172 -149 -316 -163q-46 0 -92 71zM307 193q0 -48 144 -90h29l36 8v7q-7 18 -188 75h-21zM396 1282q51 0 72 51v11h-31l-41 -41v-21zM415 513h167l14 15v8l-87 -8h-94v-15zM478 1486q54 0 153 113l51 20v21l-92 20l-112 -143v-31zM480 193q0 -22 80 -22h181l36 7v15h-297z M480 1080l203 -52v22q0 31 -130 67h-15q-53 0 -58 -22v-15zM498 1303l11 -11l316 235v31h-31l-285 -235l-11 -10v-10zM509 74q10 -30 65 -30h181q98 9 203 112l15 37h-8q-24 0 -130 -75q-54 -22 -116 -22h-123l-87 -15v-7zM538 558h15q89 0 166 82l7 7v30h-7 q-65 -57 -181 -111v-8zM631 1537h10q52 0 123 62v10h-10q-123 -34 -123 -72zM647 1139h14l123 -15v15q0 17 -65 30h-58l-14 -15v-15zM712 1065q0 -63 130 -97l7 -7v-8l-29 -171h29q29 15 44 44v45q-36 186 -123 186l-58 15v-7zM719 722h22q48 0 79 224l-72 22v-112l-29 -127 v-7zM734 618l7 -8h7q101 77 101 142h-14q-23 -9 -101 -134zM792 133h7l36 15v15h-7l-36 -15v-15zM857 1050l50 -60h8v23q-29 52 -58 52v-15z" />
<glyph unicode="&#xea;" d="M17 625v52q0 141 159 351q147 149 449 149q0 18 87 22q67 0 130 -89q102 -57 102 -120v-74q-12 -162 -73 -239q-191 -201 -318 -201q-23 -45 -80 -45h-203l-101 23h-7v-30q0 -102 224 -201h456q198 68 261 208q7 45 22 45h7v-15h7q0 -141 -232 -387q-108 -60 -181 -60 h-123q-76 0 -166 60h-94q-246 44 -246 186q-22 74 -37 238q-19 0 -43 127zM46 595l22 -22v186q-22 -7 -22 -44v-120zM111 305q15 -14 15 -75q30 -82 86 -82l95 -45h36v8q-60 68 -181 112l-44 97h-7v-15zM118 551h15v7q0 272 188 462h-14q-167 -98 -167 -238q-18 -15 -22 -97 v-134zM128 1211q11 32 137 106q52 156 206 351l145 -99q297 -220 297 -290l-23 -15q-57 0 -267 152q-62 69 -99 69q-206 -161 -305 -320l-7 -8h-8l-23 38l-38 -15zM162 484l94 -23h246l14 15v8h-275q-28 37 -58 37h-21v-37zM162 551h202q333 67 333 223l22 67v127 q0 27 -231 82l-44 22q-282 -171 -282 -499v-22zM307 193q0 -48 144 -90h29l36 8v7q-7 18 -188 75h-21zM415 513h167l14 15v8l-87 -8h-94v-15zM463 1500q32 11 46 38h-15l-31 -30v-8zM480 193q0 -22 80 -22h181l36 7v15h-297zM480 1080l203 -52v22q0 31 -130 67h-15 q-53 0 -58 -22v-15zM509 74q10 -30 65 -30h181q98 9 203 112l15 37h-8q-24 0 -130 -75q-54 -22 -116 -22h-123l-87 -15v-7zM538 558h15q89 0 166 82l7 7v30h-7q-65 -57 -181 -111v-8zM647 1139h14l123 -15v15q0 17 -65 30h-58l-14 -15v-15zM654 1462q23 -53 76 -53h8 q0 18 -84 53zM712 1065q0 -63 130 -97l7 -7v-8l-29 -171h29q29 15 44 44v45q-36 186 -123 186l-58 15v-7zM719 722h22q48 0 79 224l-72 22v-112l-29 -127v-7zM734 618l7 -8h7q101 77 101 142h-14q-23 -9 -101 -134zM792 133h7l36 15v15h-7l-36 -15v-15zM857 1050l50 -60h8 v23q-29 52 -58 52v-15z" />
<glyph unicode="&#xeb;" d="M17 625v52q0 141 159 351q147 149 449 149q0 18 87 22q67 0 130 -89q102 -57 102 -120v-74q-12 -162 -73 -239q-191 -201 -318 -201q-23 -45 -80 -45h-203l-101 23h-7v-30q0 -102 224 -201h456q198 68 261 208q7 45 22 45h7v-15h7q0 -141 -232 -387q-108 -60 -181 -60 h-123q-76 0 -166 60h-94q-246 44 -246 186q-22 74 -37 238q-19 0 -43 127zM46 595l22 -22v186q-22 -7 -22 -44v-120zM111 305q15 -14 15 -75q30 -82 86 -82l95 -45h36v8q-60 68 -181 112l-44 97h-7v-15zM118 551h15v7q0 272 188 462h-14q-167 -98 -167 -238q-18 -15 -22 -97 v-134zM162 484l94 -23h246l14 15v8h-275q-28 37 -58 37h-21v-37zM162 551h202q333 67 333 223l22 67v127q0 27 -231 82l-44 22q-282 -171 -282 -499v-22zM186 1384q0 157 71 157q39 -39 118 -39q55 -63 55 -118v-16q0 -55 -142 -118q-102 42 -102 134zM265 1392l23 -24h8v24 l-24 23h-7v-23zM307 193q0 -48 144 -90h29l36 8v7q-7 18 -188 75h-21zM415 513h167l14 15v8l-87 -8h-94v-15zM480 193q0 -22 80 -22h181l36 7v15h-297zM480 1080l203 -52v22q0 31 -130 67h-15q-53 0 -58 -22v-15zM509 74q10 -30 65 -30h181q98 9 203 112l15 37h-8 q-24 0 -130 -75q-54 -22 -116 -22h-123l-87 -15v-7zM538 558h15q89 0 166 82l7 7v30h-7q-65 -57 -181 -111v-8zM610 1447q0 78 87 78h24q96 0 141 -149v-32q0 -62 -63 -62h-55q-66 0 -134 165zM647 1139h14l123 -15v15q0 17 -65 30h-58l-14 -15v-15zM712 1065q0 -63 130 -97 l7 -7v-8l-29 -171h29q29 15 44 44v45q-36 186 -123 186l-58 15v-7zM719 722h22q48 0 79 224l-72 22v-112l-29 -127v-7zM734 618l7 -8h7q101 77 101 142h-14q-23 -9 -101 -134zM792 133h7l36 15v15h-7l-36 -15v-15zM857 1050l50 -60h8v23q-29 52 -58 52v-15z" />
<glyph unicode="&#xec;" horiz-adv-x="569" d="M8 1721v8h44v36q0 45 36 54l71 -18q83 11 134 44q51 -29 142 -169q52 -114 133 -195q-40 -63 -80 -63q-116 0 -382 222q-24 0 -98 81zM97 1685l275 -204l10 9q-7 29 -196 159l-62 63h-27v-27zM150 1747q0 -23 107 -53h9q0 33 -107 62h-9v-9zM191 683v272l7 39h6l20 -15 l85 54l19 -15h20l26 7q26 0 52 -93v-762q0 -31 -65 -102q0 -46 -46 -46l-26 23l-26 -31h-6l-7 39q0 206 -26 350v132q-33 49 -33 148zM217 644l7 -54h13v257l-13 15h-7v-218zM222 1765q30 0 142 -107l36 -9v27q-88 125 -116 125l-62 -19v-17zM263 302h13l7 39v109l-20 7 v-155zM263 979l13 -156h13l7 78v86h-20l-6 -8h-7zM270 185l13 -15v85h-13v-70zM270 652q15 -202 45 -202v15q0 75 -32 234h-13v-47zM276 107h13v31l-13 16v-47zM315 100l7 -39h13v62h-7l-13 -16v-7zM328 909h7q29 13 45 46v32l-19 7l-33 -7v-78zM341 870l20 -125v-155 q0 -82 26 -234h13v382l-20 163h-13zM361 131h13v101l-13 -16v-85zM409 1516q17 -45 61 -45v19l-35 35h-26v-9z" />
<glyph unicode="&#xed;" horiz-adv-x="569" d="M7 1479q81 77 152 233l116 134q97 -45 161 -45l54 18q36 -9 36 -54v-36h44v-8q-59 -63 -205 -162q-151 -130 -277 -142q-41 0 -81 62zM105 1470q45 0 63 45v9h-27l-36 -36v-18zM177 1649q47 0 134 99l45 17v19l-81 17l-98 -125v-27zM191 683v272l7 39h6l20 -15l85 54 l19 -15h20l26 7q26 0 52 -93v-762q0 -31 -65 -102q0 -46 -46 -46l-26 23l-26 -31h-6l-7 39q0 206 -26 350v132q-33 49 -33 148zM195 1488l9 -9l277 206v27h-27l-250 -206l-9 -9v-9zM217 644l7 -54h13v257l-13 15h-7v-218zM263 302h13l7 39v109l-20 7v-155zM263 979l13 -156 h13l7 78v86h-20l-6 -8h-7zM270 185l13 -15v85h-13v-70zM270 652q15 -202 45 -202v15q0 75 -32 234h-13v-47zM276 107h13v31l-13 16v-47zM311 1694h9q45 0 108 54v9h-9q-108 -30 -108 -63zM315 100l7 -39h13v62h-7l-13 -16v-7zM328 909h7q29 13 45 46v32l-19 7l-33 -7v-78z M341 870l20 -125v-155q0 -82 26 -234h13v382l-20 163h-13zM361 131h13v101l-13 -16v-85z" />
<glyph unicode="&#xee;" horiz-adv-x="569" d="M9 1516q8 23 97 76q37 110 146 248l103 -70q210 -156 210 -205l-16 -11q-40 0 -189 108q-44 48 -70 48q-147 -114 -216 -226l-6 -6h-5l-16 27l-27 -11zM191 683v272l7 39h6l20 -15l85 54l19 -15h20l26 7q26 0 52 -93v-762q0 -31 -65 -102q0 -46 -46 -46l-26 23l-26 -31 h-6l-7 39q0 206 -26 350v132q-33 49 -33 148zM217 644l7 -54h13v257l-13 15h-7v-218zM247 1721q22 8 32 27h-11l-21 -21v-6zM263 302h13l7 39v109l-20 7v-155zM263 979l13 -156h13l7 78v86h-20l-6 -8h-7zM270 185l13 -15v85h-13v-70zM270 652q15 -202 45 -202v15 q0 75 -32 234h-13v-47zM276 107h13v31l-13 16v-47zM315 100l7 -39h13v62h-7l-13 -16v-7zM328 909h7q29 13 45 46v32l-19 7l-33 -7v-78zM341 870l20 -125v-155q0 -82 26 -234h13v382l-20 163h-13zM361 131h13v101l-13 -16v-85zM382 1694q16 -38 54 -38h5q0 13 -59 38z" />
<glyph unicode="&#xef;" horiz-adv-x="569" d="M6 1717q0 131 59 131q33 -33 98 -33q46 -52 46 -98v-13q0 -47 -118 -99q-85 35 -85 112zM72 1723l19 -19h7v19l-20 20h-6v-20zM191 683v272l7 39h6l20 -15l85 54l19 -15h20l26 7q26 0 52 -93v-762q0 -31 -65 -102q0 -46 -46 -46l-26 23l-26 -31h-6l-7 39q0 206 -26 350 v132q-33 49 -33 148zM217 644l7 -54h13v257l-13 15h-7v-218zM263 302h13l7 39v109l-20 7v-155zM263 979l13 -156h13l7 78v86h-20l-6 -8h-7zM270 185l13 -15v85h-13v-70zM270 652q15 -202 45 -202v15q0 75 -32 234h-13v-47zM276 107h13v31l-13 16v-47zM315 100l7 -39h13v62 h-7l-13 -16v-7zM328 909h7q29 13 45 46v32l-19 7l-33 -7v-78zM341 870l20 -125v-155q0 -82 26 -234h13v382l-20 163h-13zM360 1769q0 66 72 66h20q80 0 118 -125v-26q0 -52 -52 -52h-46q-55 0 -112 137zM361 131h13v101l-13 -16v-85z" />
<glyph unicode="&#xf0;" />
<glyph unicode="&#xf1;" d="M10 1070l10 40h21l20 -104h11v137l10 40h10q72 -48 72 -89h20l72 97l11 8h30q31 -145 52 -145q152 105 256 105h21q60 0 154 -65h20l103 16q103 0 236 -379v-515l-11 -41h-20q-8 41 -31 41v-105l-51 -105h-41l-11 32l31 170q-31 0 -41 145q-65 389 -184 491 q-29 12 -103 121h-31q-124 -42 -308 -185l-10 -403l-31 -137l31 -170l-10 -24h-10q-16 0 -41 73q-79 0 -165 177l-10 32l10 162v282q-92 253 -92 298zM143 280q17 -54 93 -97v49q-24 121 -52 121q-41 -47 -41 -73zM195 1030l41 -137h10l51 88v16l-20 138h-21zM207 1354 q0 78 110 200q86 41 125 41h41q96 0 221 -166l34 -27h35q69 0 69 55v69l20 21h7l7 -7q32 13 35 27q25 0 48 -96v-7q0 -23 -69 -104q0 -62 -69 -62q-29 -41 -76 -41q-107 0 -221 159l-76 76h-6q-53 0 -201 -187l-6 -7q-28 4 -28 56zM256 723l21 -16v33h-21v-17zM379 877h11 q131 55 184 137v16l-113 16q-82 -62 -82 -161v-8zM435 1547q64 0 158 -62h7v7q-92 69 -124 69h-41v-14zM533 1102q0 -14 93 -40l61 48l-20 16h-103zM676 1312l69 -21l21 7v28h-90v-14zM708 1022q0 -12 113 -33v25q-20 29 -62 40q-47 -16 -51 -32zM759 957l31 -24h10v16 l-31 24h-10v-16zM841 1062l103 -65q0 -25 51 -48h10q0 51 -102 129h-31zM851 828l21 -16v16l-10 24h-11v-24zM892 965l123 -298h11q-28 282 -93 282l-30 24zM904 1457l13 14l-13 14v-28zM1046 828l31 -234v-72l21 -16v217q-25 113 -52 113v-8z" />
<glyph unicode="&#xf2;" d="M13 542q0 218 186 478q110 152 208 163h115l58 16h14l244 -65q86 0 86 -49q136 -167 150 -259q65 -48 65 -203q0 -205 -158 -357q-224 -227 -394 -260h-72q-301 32 -301 65q-36 67 -136 187q-29 62 -36 170q-20 0 -29 114zM42 493h14l57 243q94 180 94 220h-8 q-104 -84 -157 -374v-89zM78 339q0 -41 57 -114h7v16q0 60 -57 106h-7v-8zM128 680h14q36 25 36 105v16h-7zM142 371q0 -55 115 -122l7 9q-100 154 -100 259v49l-22 -24v-171zM178 193l21 -17h8v9l-22 24l-7 -8v-8zM192 469l7 -9h8v122l14 65v73h-14zM210 1627v10h54v44 q0 54 43 65l87 -22q100 14 162 54q63 -35 173 -205q63 -139 162 -238q-49 -76 -97 -76q-141 0 -465 270q-29 0 -119 98zM228 120q0 -49 43 -49h22v16q-10 33 -65 33zM228 209q53 -81 101 -81h129q-77 53 -230 97v-16zM235 469q35 -276 244 -276l79 -25h86q157 26 316 219 q36 56 36 106v122q-78 271 -180 316q-41 36 -308 106h-7q-68 -13 -215 -219q-34 -43 -51 -268v-81zM250 996l7 -8h7q0 36 115 138h57v16h-7q-134 0 -179 -146zM271 939h7l86 114v16h-7q-48 -42 -86 -130zM307 899h7q29 16 29 48h-7q-29 -16 -29 -48zM318 1583l335 -248 l11 11q-8 36 -238 194l-75 76h-33v-33zM343 87l21 -24h244q101 19 101 40v9h-22l-79 -17h-265v-8zM383 1659q0 -28 130 -65h11q0 40 -130 76h-11v-11zM400 1045h7l87 24h57v16l-122 8zM470 1681q37 0 173 -130l43 -11v33q-107 151 -141 151l-75 -22v-21zM501 1126l294 -89v8 q-97 97 -280 97zM697 1378q21 -54 75 -54v22l-43 43h-32v-11zM780 996q0 -15 101 -81l72 -89h7v8q0 88 -180 170v-8zM823 1077q55 -81 101 -81h7q0 36 -108 89v-8zM988 834l22 -73h14v48l-28 41h-8v-16zM1024 396h15v24h-15v-24zM1089 631l14 16v57h-14v-73z" />
<glyph unicode="&#xf3;" d="M13 542q0 218 186 478q110 152 208 163h115l58 16h14l244 -65q86 0 86 -49q136 -167 150 -259q65 -48 65 -203q0 -205 -158 -357q-224 -227 -394 -260h-72q-301 32 -301 65q-36 67 -136 187q-29 62 -36 170q-20 0 -29 114zM42 493h14l57 243q94 180 94 220h-8 q-104 -84 -157 -374v-89zM78 339q0 -41 57 -114h7v16q0 60 -57 106h-7v-8zM128 680h14q36 25 36 105v16h-7zM142 371q0 -55 115 -122l7 9q-100 154 -100 259v49l-22 -24v-171zM178 193l21 -17h8v9l-22 24l-7 -8v-8zM192 469l7 -9h8v122l14 65v73h-14zM228 120q0 -49 43 -49 h22v16q-10 33 -65 33zM228 209q53 -81 101 -81h129q-77 53 -230 97v-16zM235 469q35 -276 244 -276l79 -25h86q157 26 316 219q36 56 36 106v122q-78 271 -180 316q-41 36 -308 106h-7q-68 -13 -215 -219q-34 -43 -51 -268v-81zM250 996l7 -8h7q0 36 115 138h57v16h-7 q-134 0 -179 -146zM271 939h7l86 114v16h-7q-48 -42 -86 -130zM277 1345q92 88 174 266l132 153q111 -51 184 -51l61 20q41 -10 41 -61v-41h51v-10q-68 -72 -235 -184q-172 -149 -316 -163q-46 0 -92 71zM307 899h7q29 16 29 48h-7q-29 -16 -29 -48zM343 87l21 -24h244 q101 19 101 40v9h-22l-79 -17h-265v-8zM389 1335q51 0 72 51v11h-31l-41 -41v-21zM400 1045h7l87 24h57v16l-122 8zM471 1539q54 0 153 113l51 20v21l-92 20l-112 -143v-31zM491 1356l11 -11l316 235v31h-31l-285 -235l-11 -10v-10zM501 1126l294 -89v8q-97 97 -280 97z M624 1590h10q52 0 123 62v10h-10q-123 -34 -123 -72zM780 996q0 -15 101 -81l72 -89h7v8q0 88 -180 170v-8zM823 1077q55 -81 101 -81h7q0 36 -108 89v-8zM988 834l22 -73h14v48l-28 41h-8v-16zM1024 396h15v24h-15v-24zM1089 631l14 16v57h-14v-73z" />
<glyph unicode="&#xf4;" d="M13 542q0 218 186 478q110 152 208 163h115l58 16h14l244 -65q86 0 86 -49q136 -167 150 -259q65 -48 65 -203q0 -205 -158 -357q-224 -227 -394 -260h-72q-301 32 -301 65q-36 67 -136 187q-29 62 -36 170q-20 0 -29 114zM42 493h14l57 243q94 180 94 220h-8 q-104 -84 -157 -374v-89zM78 339q0 -41 57 -114h7v16q0 60 -57 106h-7v-8zM128 680h14q36 25 36 105v16h-7zM128 1188q11 32 137 106q52 156 206 351l145 -99q297 -220 297 -290l-23 -15q-57 0 -267 152q-62 69 -99 69q-206 -161 -305 -320l-7 -8h-8l-23 38l-38 -15z M142 371q0 -55 115 -122l7 9q-100 154 -100 259v49l-22 -24v-171zM178 193l21 -17h8v9l-22 24l-7 -8v-8zM192 469l7 -9h8v122l14 65v73h-14zM228 120q0 -49 43 -49h22v16q-10 33 -65 33zM228 209q53 -81 101 -81h129q-77 53 -230 97v-16zM235 469q35 -276 244 -276l79 -25 h86q157 26 316 219q36 56 36 106v122q-78 271 -180 316q-41 36 -308 106h-7q-68 -13 -215 -219q-34 -43 -51 -268v-81zM250 996l7 -8h7q0 36 115 138h57v16h-7q-134 0 -179 -146zM271 939h7l86 114v16h-7q-48 -42 -86 -130zM307 899h7q29 16 29 48h-7q-29 -16 -29 -48z M343 87l21 -24h244q101 19 101 40v9h-22l-79 -17h-265v-8zM400 1045h7l87 24h57v16l-122 8zM463 1477q32 11 46 38h-15l-31 -30v-8zM501 1126l294 -89v8q-97 97 -280 97zM654 1439q23 -53 76 -53h8q0 18 -84 53zM780 996q0 -15 101 -81l72 -89h7v8q0 88 -180 170v-8z M823 1077q55 -81 101 -81h7q0 36 -108 89v-8zM988 834l22 -73h14v48l-28 41h-8v-16zM1024 396h15v24h-15v-24zM1089 631l14 16v57h-14v-73z" />
<glyph unicode="&#xf5;" d="M13 542q0 218 186 478q110 152 208 163h115l58 16h14l244 -65q86 0 86 -49q136 -167 150 -259q65 -48 65 -203q0 -205 -158 -357q-224 -227 -394 -260h-72q-301 32 -301 65q-36 67 -136 187q-29 62 -36 170q-20 0 -29 114zM42 493h14l57 243q94 180 94 220h-8 q-104 -84 -157 -374v-89zM78 339q0 -41 57 -114h7v16q0 60 -57 106h-7v-8zM128 680h14q36 25 36 105v16h-7zM142 371q0 -55 115 -122l7 9q-100 154 -100 259v49l-22 -24v-171zM178 193l21 -17h8v9l-22 24l-7 -8v-8zM192 469l7 -9h8v122l14 65v73h-14zM207 1354q0 78 110 200 q86 41 125 41h41q96 0 221 -166l34 -27h35q69 0 69 55v69l20 21h7l7 -7q32 13 35 27q25 0 48 -96v-7q0 -23 -69 -104q0 -62 -69 -62q-29 -41 -76 -41q-107 0 -221 159l-76 76h-6q-53 0 -201 -187l-6 -7q-28 4 -28 56zM228 120q0 -49 43 -49h22v16q-10 33 -65 33zM228 209 q53 -81 101 -81h129q-77 53 -230 97v-16zM235 469q35 -276 244 -276l79 -25h86q157 26 316 219q36 56 36 106v122q-78 271 -180 316q-41 36 -308 106h-7q-68 -13 -215 -219q-34 -43 -51 -268v-81zM250 996l7 -8h7q0 36 115 138h57v16h-7q-134 0 -179 -146zM271 939h7l86 114 v16h-7q-48 -42 -86 -130zM307 899h7q29 16 29 48h-7q-29 -16 -29 -48zM343 87l21 -24h244q101 19 101 40v9h-22l-79 -17h-265v-8zM400 1045h7l87 24h57v16l-122 8zM435 1547q64 0 158 -62h7v7q-92 69 -124 69h-41v-14zM501 1126l294 -89v8q-97 97 -280 97zM676 1312l69 -21 l21 7v28h-90v-14zM780 996q0 -15 101 -81l72 -89h7v8q0 88 -180 170v-8zM823 1077q55 -81 101 -81h7q0 36 -108 89v-8zM904 1457l13 14l-13 14v-28zM988 834l22 -73h14v48l-28 41h-8v-16zM1024 396h15v24h-15v-24zM1089 631l14 16v57h-14v-73z" />
<glyph unicode="&#xf6;" d="M13 542q0 218 186 478q110 152 208 163h115l58 16h14l244 -65q86 0 86 -49q136 -167 150 -259q65 -48 65 -203q0 -205 -158 -357q-224 -227 -394 -260h-72q-301 32 -301 65q-36 67 -136 187q-29 62 -36 170q-20 0 -29 114zM42 493h14l57 243q94 180 94 220h-8 q-104 -84 -157 -374v-89zM78 339q0 -41 57 -114h7v16q0 60 -57 106h-7v-8zM128 680h14q36 25 36 105v16h-7zM142 371q0 -55 115 -122l7 9q-100 154 -100 259v49l-22 -24v-171zM178 193l21 -17h8v9l-22 24l-7 -8v-8zM192 469l7 -9h8v122l14 65v73h-14zM193 1392q0 157 71 157 q39 -39 118 -39q55 -63 55 -118v-16q0 -55 -142 -118q-102 42 -102 134zM228 120q0 -49 43 -49h22v16q-10 33 -65 33zM228 209q53 -81 101 -81h129q-77 53 -230 97v-16zM235 469q35 -276 244 -276l79 -25h86q157 26 316 219q36 56 36 106v122q-78 271 -180 316 q-41 36 -308 106h-7q-68 -13 -215 -219q-34 -43 -51 -268v-81zM250 996l7 -8h7q0 36 115 138h57v16h-7q-134 0 -179 -146zM271 939h7l86 114v16h-7q-48 -42 -86 -130zM272 1400l23 -24h8v24l-24 23h-7v-23zM307 899h7q29 16 29 48h-7q-29 -16 -29 -48zM343 87l21 -24h244 q101 19 101 40v9h-22l-79 -17h-265v-8zM400 1045h7l87 24h57v16l-122 8zM501 1126l294 -89v8q-97 97 -280 97zM617 1455q0 78 87 78h24q96 0 141 -149v-32q0 -62 -63 -62h-55q-66 0 -134 165zM780 996q0 -15 101 -81l72 -89h7v8q0 88 -180 170v-8zM823 1077q55 -81 101 -81 h7q0 36 -108 89v-8zM988 834l22 -73h14v48l-28 41h-8v-16zM1024 396h15v24h-15v-24zM1089 631l14 16v57h-14v-73z" />
<glyph unicode="&#xf7;" horiz-adv-x="1124" d="M11 880v11q0 24 35 24v12q0 39 -35 82q44 70 105 70l200 -12q186 0 375 47h11v-35q-93 -14 -93 -47h128l282 59v-24l-12 -12v-11l117 -59v-23q0 -49 -211 -94v-23l188 -24v-23l-59 -12h-82l-223 23h-316q-43 0 -94 59h-257zM81 962l35 -35l399 -12h23v23h-47 q-41 0 -82 47h-328v-23zM409 623q0 23 76 63l38 -13l32 7q91 -14 120 -51q0 -13 38 -13v-12h6l-101 -165l-57 13l-25 -13q-53 0 -114 133zM416 1394q0 23 76 63l38 -13l32 7q91 -14 120 -51q0 -13 38 -13v-12h6l-101 -165l-57 13l-25 -13q-53 0 -114 133zM434 616 q0 -53 51 -101v7q-19 20 -19 82l-19 19h-13v-7zM441 1387q0 -53 51 -101v7q-19 20 -19 82l-19 19h-13v-7zM491 597h7l12 13l-12 13l-7 -7v-19zM498 1368h7l12 13l-12 13l-7 -7v-19zM529 559l19 -19v7l-6 31h-13v-19zM536 1330l19 -19v7l-6 31h-13v-19zM580 496h6l25 26v63 l-12 12h-7v-38zM587 1267h6l25 26v63l-12 12h-7v-38zM618 635l19 -63v-38h6q13 0 25 57q-25 51 -50 51v-7zM625 1406l19 -63v-38h6q13 0 25 57q-25 51 -50 51v-7zM702 868h94q105 23 105 59h-93l-106 -36v-23z" />
<glyph unicode="&#xf8;" horiz-adv-x="1251" d="M13 552q0 208 205 455q121 143 229 154h126l63 15h16q54 0 221 -54q92 77 126 77q11 -38 79 -62l8 -7v-16l-32 -100q65 -34 142 -215q48 0 55 -170q0 -194 -173 -338q-246 -215 -434 -247h-79l-197 24h-16q-86 -62 -110 -62l-16 15l24 70q-72 100 -166 184 q-32 68 -32 154q-39 41 -39 123zM45 506h15l63 231q103 171 103 208h-8q-115 -79 -173 -354v-85zM84 360q0 -38 63 -108h8v16q0 56 -63 100h-8v-8zM139 683h16q39 24 39 100v16h-7zM155 391q0 -52 126 -116l8 8q-110 146 -110 246v47l-24 -24v-161zM194 222l24 -16h8v8 l-24 23l-8 -8v-7zM210 483l8 -7h8v115l16 62v69h-16zM250 137l15 -16h8v16l-15 15h-8v-15zM250 237q15 -31 47 -31v8l8 8v7q-29 23 -55 23v-15zM258 483q0 -88 71 -169h7q76 178 253 362q38 19 158 300l-198 46q-74 -12 -236 -208q-37 -40 -55 -254v-77zM273 983l8 -7h8 q0 34 126 131h63v15h-8q-147 0 -197 -139zM297 930h8l95 107v16h-8q-53 -40 -95 -123zM336 891h8q32 16 32 46h-8q-32 -15 -32 -46zM344 191h8l16 15v8h-24v-23zM376 275l16 -15q130 170 213 339v7q-100 -60 -221 -292zM407 160h48v15l-16 16h-16l-16 -16v-15zM439 1030h8 l94 23h64v15l-135 8zM455 229h15q71 16 71 100q198 327 198 362q-58 -62 -245 -369q-21 -9 -39 -85v-8zM478 98h190q110 19 110 39v8h-24l-86 -16h-174l-16 -15v-16zM549 1107q202 -62 261 -62l8 8v7q-77 62 -253 62zM557 214l48 -16h102q172 24 347 208q40 53 40 100v116 q-91 269 -174 269l-237 -415q-122 -180 -126 -262zM691 753l8 -8h8q158 154 158 185l-24 23h-31q-72 -78 -119 -200zM857 983l24 -23l15 16l-39 15v-8zM967 907l79 -85h8v8q-34 100 -87 100v-23zM1086 830l23 -70h16v46l-31 39h-8v-15zM1125 414h16v23h-16v-23zM1196 637 l16 16v53h-16v-69z" />
<glyph unicode="&#xf9;" d="M16 616v393q0 122 49 122l8 68h17q16 0 24 -81q74 -18 74 -122v-149q0 -350 148 -556l32 -14h238q33 0 156 163q90 206 90 461v176l8 68h8q121 -204 205 -665q66 -194 66 -244v-13h-16q-14 0 -33 81h-17l9 -95v-40h-17q-54 99 -115 311h-8q-34 -8 -65 -271 q-199 -203 -304 -203q-77 54 -246 95q-74 100 -188 190q-39 0 -123 325zM49 616q0 -62 41 -108l-25 244h-16v-136zM114 616q30 -163 74 -163v14q-39 271 -65 271l-9 -95v-27zM142 1604v10h54v44q0 54 43 65l87 -22q100 14 162 54q63 -35 173 -205q63 -139 162 -238 q-49 -76 -97 -76q-141 0 -465 270q-29 0 -119 98zM250 1560l335 -248l11 11q-8 36 -238 194l-75 76h-33v-33zM303 209q0 -33 90 -67v13q0 41 -74 68h-16v-14zM315 1636q0 -28 130 -65h11q0 40 -130 76h-11v-11zM402 1658q37 0 173 -130l43 -11v33q-107 151 -141 151l-75 -22 v-21zM450 155l41 -13h9l32 54h-82v-41zM573 128h66q57 57 57 81v14h-24q-60 0 -99 -81v-14zM629 1355q21 -54 75 -54v22l-43 43h-32v-11zM811 209l49 68v27h-8q-41 -40 -41 -95zM811 345h8q38 26 41 54v81h-24l-25 -108v-27zM893 508h25l8 95q-16 61 -33 67v-162zM1024 426 q22 -87 41 -95v27q-11 56 -41 82v-14z" />
<glyph unicode="&#xfa;" d="M16 616v393q0 122 49 122l8 68h17q16 0 24 -81q74 -18 74 -122v-149q0 -350 148 -556l32 -14h238q33 0 156 163q90 206 90 461v176l8 68h8q121 -204 205 -665q66 -194 66 -244v-13h-16q-14 0 -33 81h-17l9 -95v-40h-17q-54 99 -115 311h-8q-34 -8 -65 -271 q-199 -203 -304 -203q-77 54 -246 95q-74 100 -188 190q-39 0 -123 325zM49 616q0 -62 41 -108l-25 244h-16v-136zM114 616q30 -163 74 -163v14q-39 271 -65 271l-9 -95v-27zM224 1299q92 88 174 266l132 153q111 -51 184 -51l61 20q41 -10 41 -61v-41h51v-10 q-68 -72 -235 -184q-172 -149 -316 -163q-46 0 -92 71zM303 209q0 -33 90 -67v13q0 41 -74 68h-16v-14zM336 1289q51 0 72 51v11h-31l-41 -41v-21zM418 1493q54 0 153 113l51 20v21l-92 20l-112 -143v-31zM438 1310l11 -11l316 235v31h-31l-285 -235l-11 -10v-10zM450 155 l41 -13h9l32 54h-82v-41zM571 1544h10q52 0 123 62v10h-10q-123 -34 -123 -72zM573 128h66q57 57 57 81v14h-24q-60 0 -99 -81v-14zM811 209l49 68v27h-8q-41 -40 -41 -95zM811 345h8q38 26 41 54v81h-24l-25 -108v-27zM893 508h25l8 95q-16 61 -33 67v-162zM1024 426 q22 -87 41 -95v27q-11 56 -41 82v-14z" />
<glyph unicode="&#xfb;" d="M16 616v393q0 122 49 122l8 68h17q16 0 24 -81q74 -18 74 -122v-149q0 -350 148 -556l32 -14h238q33 0 156 163q90 206 90 461v176l8 68h8q121 -204 205 -665q66 -194 66 -244v-13h-16q-14 0 -33 81h-17l9 -95v-40h-17q-54 99 -115 311h-8q-34 -8 -65 -271 q-199 -203 -304 -203q-77 54 -246 95q-74 100 -188 190q-39 0 -123 325zM49 616q0 -62 41 -108l-25 244h-16v-136zM91 1256q11 32 137 106q52 156 206 351l145 -99q297 -220 297 -290l-23 -15q-57 0 -267 152q-62 69 -99 69q-206 -161 -305 -320l-7 -8h-8l-23 38l-38 -15z M114 616q30 -163 74 -163v14q-39 271 -65 271l-9 -95v-27zM303 209q0 -33 90 -67v13q0 41 -74 68h-16v-14zM426 1545q32 11 46 38h-15l-31 -30v-8zM450 155l41 -13h9l32 54h-82v-41zM573 128h66q57 57 57 81v14h-24q-60 0 -99 -81v-14zM617 1507q23 -53 76 -53h8 q0 18 -84 53zM811 209l49 68v27h-8q-41 -40 -41 -95zM811 345h8q38 26 41 54v81h-24l-25 -108v-27zM893 508h25l8 95q-16 61 -33 67v-162zM1024 426q22 -87 41 -95v27q-11 56 -41 82v-14z" />
<glyph unicode="&#xfc;" d="M16 616v393q0 122 49 122l8 68h17q16 0 24 -81q74 -18 74 -122v-149q0 -350 148 -556l32 -14h238q33 0 156 163q90 206 90 461v176l8 68h8q121 -204 205 -665q66 -194 66 -244v-13h-16q-14 0 -33 81h-17l9 -95v-40h-17q-54 99 -115 311h-8q-34 -8 -65 -271 q-199 -203 -304 -203q-77 54 -246 95q-74 100 -188 190q-39 0 -123 325zM49 616q0 -62 41 -108l-25 244h-16v-136zM114 616q30 -163 74 -163v14q-39 271 -65 271l-9 -95v-27zM156 1339q0 157 71 157q39 -39 118 -39q55 -63 55 -118v-16q0 -55 -142 -118q-102 42 -102 134z M235 1347l23 -24h8v24l-24 23h-7v-23zM303 209q0 -33 90 -67v13q0 41 -74 68h-16v-14zM450 155l41 -13h9l32 54h-82v-41zM573 128h66q57 57 57 81v14h-24q-60 0 -99 -81v-14zM580 1402q0 78 87 78h24q96 0 141 -149v-32q0 -62 -63 -62h-55q-66 0 -134 165zM811 209l49 68v27 h-8q-41 -40 -41 -95zM811 345h8q38 26 41 54v81h-24l-25 -108v-27zM893 508h25l8 95q-16 61 -33 67v-162zM1024 426q22 -87 41 -95v27q-11 56 -41 82v-14z" />
<glyph unicode="&#xfd;" horiz-adv-x="1024" />
<glyph unicode="&#xfe;" />
<glyph unicode="&#xff;" horiz-adv-x="1024" />
<glyph unicode="&#x152;" horiz-adv-x="2048" />
<glyph unicode="&#x153;" horiz-adv-x="1933" />
<glyph unicode="&#x178;" horiz-adv-x="1366" />
<glyph unicode="&#x2c6;" horiz-adv-x="682" />
<glyph unicode="&#x2dc;" horiz-adv-x="682" />
<glyph unicode="&#x2000;" horiz-adv-x="947" />
<glyph unicode="&#x2001;" horiz-adv-x="1895" />
<glyph unicode="&#x2002;" horiz-adv-x="947" />
<glyph unicode="&#x2003;" horiz-adv-x="1895" />
<glyph unicode="&#x2004;" horiz-adv-x="631" />
<glyph unicode="&#x2005;" horiz-adv-x="473" />
<glyph unicode="&#x2006;" horiz-adv-x="315" />
<glyph unicode="&#x2007;" horiz-adv-x="315" />
<glyph unicode="&#x2008;" horiz-adv-x="236" />
<glyph unicode="&#x2009;" horiz-adv-x="379" />
<glyph unicode="&#x200a;" horiz-adv-x="105" />
<glyph unicode="&#x2010;" horiz-adv-x="682" d="M11 861v7q0 14 21 14v7q0 24 -21 49q26 43 64 43l120 -7q112 0 226 28h7v-21q-57 -9 -57 -28h78l169 35v-14l-7 -7v-7l71 -36v-14q0 -29 -127 -56v-14l113 -15v-14l-35 -7h-50l-134 14h-191q-26 0 -56 36h-156zM53 910l22 -21l240 -7h14v14h-28q-25 0 -50 28h-198v-14z M428 854h56q64 14 64 35h-57l-63 -21v-14z" />
<glyph unicode="&#x2011;" horiz-adv-x="682" d="M11 861v7q0 14 21 14v7q0 24 -21 49q26 43 64 43l120 -7q112 0 226 28h7v-21q-57 -9 -57 -28h78l169 35v-14l-7 -7v-7l71 -36v-14q0 -29 -127 -56v-14l113 -15v-14l-35 -7h-50l-134 14h-191q-26 0 -56 36h-156zM53 910l22 -21l240 -7h14v14h-28q-25 0 -50 28h-198v-14z M428 854h56q64 14 64 35h-57l-63 -21v-14z" />
<glyph unicode="&#x2012;" horiz-adv-x="682" d="M11 861v7q0 14 21 14v7q0 24 -21 49q26 43 64 43l120 -7q112 0 226 28h7v-21q-57 -9 -57 -28h78l169 35v-14l-7 -7v-7l71 -36v-14q0 -29 -127 -56v-14l113 -15v-14l-35 -7h-50l-134 14h-191q-26 0 -56 36h-156zM53 910l22 -21l240 -7h14v14h-28q-25 0 -50 28h-198v-14z M428 854h56q64 14 64 35h-57l-63 -21v-14z" />
<glyph unicode="&#x2013;" />
<glyph unicode="&#x2014;" horiz-adv-x="2048" />
<glyph unicode="&#x2018;" horiz-adv-x="455" d="M12 1408l7 7v153q0 79 159 277h7l28 -28l35 21h14v-21q-43 -44 -118 -235l34 -7l35 13q58 0 125 -145l14 -56q0 -25 -83 -69l-42 14l-35 -7q-100 15 -131 55q0 14 -42 14v14h-7zM61 1498h6q49 90 49 118q-50 -57 -55 -104v-14zM67 1422q28 -55 56 -55v6l-21 70v41h-7 q-14 0 -28 -62zM130 1429l14 -14h7v42l14 69h-7l-28 -28v-69zM199 1471l7 -35h14v21l-21 20v-6zM241 1401l14 -14l7 7v21h-7zM269 1498q20 -22 20 -90l21 -21h14v7q0 59 -55 111v-7z" />
<glyph unicode="&#x2019;" horiz-adv-x="455" d="M12 1784q0 25 83 69l42 -14l34 7q100 -15 132 -55q0 -14 42 -14v-14h7l-7 -7v-153q0 -79 -160 -277h-7l-27 28l-35 -21h-14v21q43 44 118 236l-35 6l-34 -13q-58 0 -125 145zM40 1777q0 -59 55 -111v7q-21 22 -21 90l-20 21h-14v-7zM102 1756h7l14 14l-14 14l-7 -7v-21z M144 1714l21 -20v6l-7 35h-14v-21zM199 1645h7l28 28v69l-14 14h-7v-42zM241 1798l21 -70v-41h7q13 0 27 62q-27 55 -55 55v-6zM248 1555q50 57 55 104v14h-7q-48 -90 -48 -118z" />
<glyph unicode="&#x201a;" horiz-adv-x="455" />
<glyph unicode="&#x201c;" horiz-adv-x="682" d="M10 1437l7 7v147q0 77 150 267h6l26 -27l33 20h13v-20q-41 -42 -111 -227l33 -7l32 14q54 0 118 -141l13 -53q0 -24 -79 -67l-39 14l-32 -7q-94 15 -124 53q0 14 -39 14v13h-7zM56 1524h6q46 86 46 113q-47 -55 -52 -100v-13zM62 1450q26 -53 52 -53v7l-19 66v41h-7 q-13 0 -26 -61zM121 1457l13 -13h6v40l14 67h-7l-26 -27v-67zM186 1497l7 -33h13v20l-20 20v-7zM225 1430l13 -13l7 7v20h-7zM251 1524q20 -22 20 -87l20 -20h13v7q0 56 -53 107v-7zM362 1437l7 7v147q0 77 150 267h6l27 -27l32 20h13v-20q-40 -42 -111 -227l33 -7l33 14 q54 0 117 -141l13 -53q0 -24 -78 -67l-39 14l-33 -7q-94 15 -124 53q0 14 -39 14v13h-7zM408 1524h7q45 86 45 113q-47 -55 -52 -100v-13zM415 1450q26 -53 52 -53v7l-20 66v41h-6q-13 0 -26 -61zM473 1457l13 -13h7v40l13 67h-7l-26 -27v-67zM538 1497l7 -33h13v20l-20 20 v-7zM578 1430l13 -13l6 7v20h-6zM604 1524q19 -22 19 -87l20 -20h13v7q0 56 -52 107v-7z" />
<glyph unicode="&#x201d;" horiz-adv-x="682" d="M17 1790q0 25 77 68l39 -14l32 7q93 -15 123 -54q0 -14 38 -14v-13h7l-7 -7v-149q0 -78 -148 -271h-6l-26 27l-32 -20h-13v20q40 43 109 231l-32 6l-32 -13q-54 0 -116 142zM43 1783q0 -57 51 -108v7q-19 22 -19 88l-19 20h-13v-7zM101 1763h6l13 14l-13 13l-6 -7v-20z M140 1722l19 -20v7l-7 34h-12v-21zM191 1655h7l25 27v68l-13 13h-6v-41zM230 1804l19 -68v-41h7q12 0 25 61q-25 55 -51 55v-7zM236 1567q47 56 52 101v14h-7q-45 -88 -45 -115zM365 1790q0 25 78 68l38 -14l32 7q93 -15 123 -54q0 -14 39 -14v-13h6l-6 -7v-149 q0 -78 -149 -271h-6l-26 27l-32 -20h-13v20q40 43 110 231l-33 6l-32 -13q-53 0 -116 142zM391 1783q0 -57 52 -108v7q-20 22 -20 88l-19 20h-13v-7zM449 1763h6l13 14l-13 13l-6 -7v-20zM488 1722l19 -20v7l-6 34h-13v-21zM539 1655h7l25 27v68l-12 13h-7v-41zM578 1804 l19 -68v-41h7q13 0 26 61q-26 55 -52 55v-7zM584 1567q47 56 52 101v14h-6q-46 -88 -46 -115z" />
<glyph unicode="&#x201e;" horiz-adv-x="682" />
<glyph unicode="&#x2022;" horiz-adv-x="717" d="M13 1054q0 52 172 143l87 -29l71 15q207 -32 273 -115q0 -29 87 -29v-29h14l-230 -373l-129 29l-58 -29q-119 0 -258 302zM70 1039q0 -121 115 -230v15q-43 46 -43 186l-43 44h-29v-15zM200 996h14l29 29l-29 29l-14 -15v-43zM286 910l43 -43v14l-14 72h-29v-43zM401 766 h14l58 58v143l-29 29h-14v-86zM487 1082l43 -143v-87h15q28 0 57 130q-57 115 -115 115v-15z" />
<glyph unicode="&#x2026;" horiz-adv-x="2048" />
<glyph unicode="&#x202f;" horiz-adv-x="379" />
<glyph unicode="&#x2039;" horiz-adv-x="682" />
<glyph unicode="&#x203a;" horiz-adv-x="682" />
<glyph unicode="&#x205f;" horiz-adv-x="473" />
<glyph unicode="&#x20ac;" d="M2 908v15q17 0 42 38q153 39 153 62v15h-21l-132 -8l-12 8v15q48 15 165 15h9l38 122q127 382 369 611q51 30 76 30h132l4 8q42 0 42 -107l-8 -15q17 0 30 -38v-8l-64 23h-76q-114 0 -170 -84q-31 -17 -161 -168q-123 -242 -123 -397l4 -7l115 -8h21l182 31h13 q63 -31 123 -38v-8q0 -26 -195 -76l-263 -61v-16l17 -107h335q42 0 51 -30l-17 -46v-7h21l21 -8v-15l-21 -8h-13l-102 15h-216l-21 -7v-16q37 -211 174 -358q83 -102 254 -183h123q17 34 140 99q0 19 43 38q21 0 21 -38l-4 -61h4l21 7l13 -7v-23l-30 -15h-38 q-55 -84 -216 -84l-43 -8h-76q-62 0 -365 206q-114 132 -114 267q-23 127 -47 145h-166l-21 8v15l153 38v23q0 23 -68 23h-34l-21 8v15l21 7h89v46l4 77h-4zM112 931h60l8 15v8q-68 0 -68 -23zM180 755h60v123h-47q-13 -8 -13 -46v-77zM193 702l13 -23h34v31h-47v-8z M201 931h39v23h-39v-23zM218 1007h22v23h-22v-23zM231 1061h17v61h-4q-13 -5 -13 -61zM265 755h13v46l-9 15l-4 -7v-54zM278 450q64 -160 169 -213q-44 95 -161 274h-8v-61zM278 565q115 -199 127 -199v8q0 34 -89 221q0 31 -13 31h-4l-21 -8v-53zM295 931h29l64 15v23h-42 l-51 -15v-23zM303 343q23 -60 43 -61q-8 27 -39 69h-4v-8zM363 259q0 -29 63 -61v8q0 23 -59 53h-4zM409 969l51 8h34v23h-21l-64 -8v-23zM460 313l17 -31h4l-17 31h-4zM490 267q45 -102 106 -153v8q-17 39 -106 153v-8zM498 694h5l144 -7l21 15v15l-85 8q-85 -9 -85 -31z M537 1671q73 50 203 99l17 31h-76q-65 0 -144 -115v-15zM566 977h34l9 15h-34zM609 153l42 -61h4l81 -16q0 16 -127 77zM778 1755h68v46h-12q-31 0 -56 -38v-8zM965 46q42 9 42 30h-8q-31 0 -34 -23v-7zM1024 122h43q21 20 21 61v15h-17q-36 -61 -47 -61v-15z" />
<glyph unicode="&#x2122;" horiz-adv-x="2048" d="M8 1222v15l37 7h111l-30 22l-7 8v15q0 31 169 36h281q0 23 15 23q14 0 14 -23h355q26 0 74 -51l36 -15l23 7v45l7 37h15q10 -52 29 -52l22 15q91 -41 96 -74q128 -73 244 -251q56 -114 74 -118h14l96 229l74 236h15l7 -30h22l52 -7v7l-15 22v15l15 15h30q0 -44 73 -44 l15 14h22l8 -36v-170l44 -443v-7l-7 -37h-8q-15 0 -37 81h-7l-22 -133h-15l-15 81l8 436l-8 37h-14v-583l-8 -37h-15q-37 97 -37 354v295q-86 -85 -184 -457q0 -74 -66 -74h-8q-10 40 -199 192l-155 236h-7v-266q0 -148 -96 -310h-8q-7 52 -22 52l-22 -8v8l-7 29v665l-89 14 h-15q-70 -22 -243 -44q0 -15 -30 -15v-74h15q0 52 59 52l7 -37v-147l-22 -200l15 -81v-52q-52 -113 -52 -140h-29q-11 74 -30 74l-51 -66h-8l-7 37v162l-22 44l-8 155l8 148l-15 125h-155q-180 -51 -258 -51l-45 7v29l74 15v15zM185 1274q62 -22 133 -22l7 7v15l-14 15h-111 zM657 794q13 -88 30 -88h7v88l-22 170l-15 -15v-155zM1137 1259l15 -303v-376h7q27 12 37 126q-29 0 -29 36v495l-30 37v-15zM1196 735l15 15v280l-15 -14v-281zM1241 1141q200 -376 295 -376q-209 326 -288 413h-7v-37zM1602 691q11 -30 22 -30h15l37 155h-15l-37 -44v-15 l15 -22l-37 -37v-7zM1698 986h8q73 101 73 155h-14q-67 -76 -67 -148v-7zM1765 1185h7q24 0 37 74h-22q-22 -7 -22 -44v-30zM1949 1170l22 -22v96h-7l-15 -14v-60z" />
<glyph unicode="&#x25fc;" horiz-adv-x="1200" d="M0 0v1200h1200v-1200h-1200z" />
</font>
</defs>
</svg>
